<?xml version="1.0" encoding="UTF-8" standalone="no"?>
<svg
   width="71.516319mm"
   height="33.00304mm"
   viewBox="0 0 71.516302 33.003039"
   version="1.1"
   id="svg8"
   xmlns="http://www.w3.org/2000/svg"
   xmlns:svg="http://www.w3.org/2000/svg"
   xmlns:rdf="http://www.w3.org/1999/02/22-rdf-syntax-ns#"
   xmlns:cc="http://creativecommons.org/ns#"
   xmlns:dc="http://purl.org/dc/elements/1.1/">
  <defs
     id="defs2">
    <clipPath
       clipPathUnits="userSpaceOnUse"
       id="clipPath856">
      <path
         d="m 194.596,186.782 h 43.975 v -41.345 h -43.975 z"
         id="path854" />
    </clipPath>
    <clipPath
       clipPathUnits="userSpaceOnUse"
       id="clipPath872">
      <path
         d="m 196.144,165.832 h 32.205 v -35.44 h -32.205 z"
         id="path870" />
    </clipPath>
    <clipPath
       clipPathUnits="userSpaceOnUse"
       id="clipPath890">
      <path
         d="M 158.315,186.924 H 202.29 V 145.579 H 158.315 Z"
         id="path888" />
    </clipPath>
    <clipPath
       clipPathUnits="userSpaceOnUse"
       id="clipPath906">
      <path
         d="m 168.536,165.832 h 32.206 v -35.44 h -32.206 z"
         id="path904" />
    </clipPath>
    <clipPath
       clipPathUnits="userSpaceOnUse"
       id="clipPath924">
      <path
         d="m 196.259,173.38 h 4.368 v -34.452 h -4.368 z"
         id="path922" />
    </clipPath>
  </defs>
  <metadata
     id="metadata5">
    <rdf:RDF>
      <cc:Work
         rdf:about="">
        <dc:format>image/svg+xml</dc:format>
        <dc:type
           rdf:resource="http://purl.org/dc/dcmitype/StillImage" />
      </cc:Work>
    </rdf:RDF>
  </metadata>
  <g
     id="g1836"
     transform="translate(-62.713827,-26.653588)"
     style="fill:#bbbbbb;fill-opacity:1">
    <path
       d="m 80.434561,51.16453 -4.338108,-0.225072 c -0.109361,-0.02716 -0.18415,-0.122767 -0.225072,-0.286456 0.286455,-0.122766 0.555625,-0.269169 0.808213,-0.439914 0.252237,-0.170391 0.473781,-0.340783 0.664987,-0.511527 0.190852,-0.170392 0.344311,-0.337609 0.460375,-0.501298 0.115711,-0.164041 0.173919,-0.307269 0.173919,-0.430036 0,-0.05433 -0.0071,-0.09525 -0.02046,-0.122766 0.109008,0.02752 0.207786,0.04798 0.296686,0.06138 0.0889,0.01376 0.160514,0.02752 0.215194,0.04092 0.136173,-0.286455 0.218017,-0.443089 0.245534,-0.470605 0.436386,-0.286456 0.743302,-0.600075 0.92075,-0.941211 0.177094,-0.340784 0.265994,-0.825148 0.265994,-1.452739 0,-0.3683 -0.04445,-0.664986 -0.132997,-0.890411 -0.0889,-0.225073 -0.214842,-0.415925 -0.378531,-0.572912 -0.163689,-0.156633 -0.365125,-0.293158 -0.603602,-0.409222 -0.238831,-0.115711 -0.50165,-0.248708 -0.788106,-0.398991 -0.559505,-0.286456 -1.01988,-0.501298 -1.381125,-0.644525 -0.361597,-0.143228 -0.664986,-0.248709 -0.910519,-0.317148 -0.245534,-0.06809 -0.460375,-0.10548 -0.644525,-0.112536 -0.18415,-0.0067 -0.378531,-0.01023 -0.583142,-0.01023 -0.02752,0 -0.09913,-0.02364 -0.215194,-0.07161 -0.116064,-0.04763 -0.242359,-0.09525 -0.378531,-0.143228 -0.136525,-0.04763 -0.262819,-0.09208 -0.378531,-0.132997 -0.116063,-0.04092 -0.180975,-0.06138 -0.19438,-0.06138 -0.21837,0 -0.511528,0.0889 -0.879828,0.265994 -0.04092,0 -0.136525,-0.02364 -0.286455,-0.07161 -0.150284,-0.04763 -0.310445,-0.09878 -0.480836,-0.153458 -0.170745,-0.05433 -0.334434,-0.102306 -0.491067,-0.143228 -0.156986,-0.04092 -0.255764,-0.06138 -0.296686,-0.06138 -0.122767,0 -0.310445,0.02752 -0.562681,0.08184 -0.252589,0.05468 -0.440266,0.08184 -0.563033,0.08184 -0.06844,0 -0.109361,0.03069 -0.122767,0.09208 -0.01376,0.06138 -0.05468,0.09208 -0.122766,0.09208 -0.06844,0 -0.105834,-0.01693 -0.112537,-0.05115 -0.0071,-0.03387 -0.03775,-0.05115 -0.09208,-0.05115 -0.06844,0 -0.136525,0.04445 -0.204611,0.132997 -0.06844,0.0889 -0.129822,0.132997 -0.18415,0.132997 -0.0956,0 -0.242358,-0.0441 -0.439914,-0.132997 -0.197908,-0.08855 -0.344663,-0.132997 -0.439913,-0.132997 -0.06844,0 -0.102306,0.04445 -0.102306,0.132997 0,0.0889 -0.03422,0.132997 -0.102305,0.132997 -0.05468,-0.0134 -0.08185,-0.03387 -0.08185,-0.06138 0,-0.02716 0.01341,-0.05433 0.04092,-0.08184 0,-0.01341 -0.02752,-0.02046 -0.08184,-0.02046 -0.341136,0 -0.92075,0.109361 -1.739547,0.327377 -0.450145,0.122767 -0.818445,0.2286 -1.1049,0.317148 -0.286456,0.0889 -0.511528,0.173919 -0.675217,0.255763 -0.163689,0.08184 -0.286456,0.17392 -0.3683,0.276225 -0.08184,0.102306 -0.143228,0.2286 -0.18415,0.378531 0.109361,0.109361 0.163689,0.279753 0.163689,0.511528 0.545394,0.232127 1.012825,0.450144 1.401586,0.654755 0.388761,0.204964 0.698853,0.382411 0.930981,0.532342 v -0.163689 c 0,-0.136525 -0.02364,-0.259292 -0.07161,-0.368653 -0.04762,-0.109008 -0.09878,-0.197555 -0.153459,-0.265994 -0.05468,-0.06809 -0.109361,-0.12947 -0.163689,-0.18415 -0.05468,-0.05433 -0.0889,-0.102306 -0.102305,-0.143228 0.218017,-0.299861 0.511528,-0.538692 0.88018,-0.716139 0.3683,-0.177094 0.787753,-0.317147 1.258359,-0.419453 0.470605,-0.102305 0.978605,-0.180622 1.524352,-0.235302 0.545395,-0.05433 1.098198,-0.115711 1.657703,-0.18415 l 0.143228,0.225072 c -0.27305,0.668514 -0.409222,1.261886 -0.409222,1.780116 v 0.225425 c -0.300214,0.613834 -0.4572,1.023056 -0.470959,1.227667 -0.122766,0.08185 -0.2286,0.225072 -0.317147,0.429683 -0.0889,0.204612 -0.187678,0.504825 -0.296686,0.900289 -0.191205,0.02752 -0.361597,0.122767 -0.511528,0.286456 v 0.163689 c 0,0.395816 -0.0956,0.8255 -0.286455,1.289402 -0.191206,0.463903 -0.416278,0.845962 -0.675217,1.145823 v 0.08184 0.04092 c 0,0.06844 -0.01376,0.146756 -0.04092,0.235303 -0.02752,0.0889 -0.06138,0.194381 -0.102306,0.317147 -0.08184,0.204611 -0.173919,0.385586 -0.276225,0.54222 -0.102305,0.156986 -0.23883,0.300214 -0.409222,0.429683 -0.170744,0.129822 -0.37853,0.252589 -0.624064,0.3683 -0.245533,0.116064 -0.552802,0.242358 -0.921102,0.378531 -0.04092,0 -0.109362,-0.01341 -0.204612,-0.04092 -0.0956,-0.02716 -0.163688,-0.04092 -0.204611,-0.04092 -0.109361,0 -0.310444,0.07867 -0.603602,0.235303 -0.293512,0.156986 -0.590198,0.337961 -0.890059,0.542572 -0.299861,0.204611 -0.565855,0.41275 -0.797983,0.624064 -0.231775,0.211667 -0.347839,0.371828 -0.347839,0.480836 0,0.259292 0.05115,0.487892 0.153458,0.685447 0.102306,0.197909 0.289984,0.296686 0.562681,0.296686 0.08184,0 0.201436,-0.0067 0.358069,-0.02046 0.156986,-0.0134 0.320323,-0.02364 0.491067,-0.03069 0.170392,-0.0067 0.334081,-0.01693 0.491067,-0.03069 0.156633,-0.01341 0.269169,-0.02046 0.337608,-0.02046 0.06809,0 0.170392,-0.05433 0.306917,-0.163689 0.136172,-0.109008 0.238477,-0.163689 0.306916,-0.163689 0.09525,0 0.18415,0.04798 0.265995,0.143228 0,0.05468 -0.03069,0.140053 -0.09207,0.255764 -0.06138,0.116064 -0.129822,0.235303 -0.204611,0.358069 -0.07514,0.122767 -0.143228,0.235303 -0.204611,0.337609 -0.06138,0.102305 -0.09208,0.173919 -0.09208,0.214841 0,0.04092 0.0067,0.06844 0.02046,0.08185 -0.04092,0.04092 -0.126295,0.177447 -0.255764,0.409222 -0.129822,0.232128 -0.265995,0.478014 -0.409222,0.736953 -0.143228,0.259291 -0.324203,0.600075 -0.54222,1.023055 0,0.190853 0.122767,0.456847 0.3683,0.797983 0.613833,-0.136525 1.016,-0.259291 1.207206,-0.3683 0.06809,-0.0956 0.156633,-0.327377 0.265994,-0.695677 0.109361,-0.3683 0.235656,-0.780697 0.378883,-1.237897 0.143228,-0.4572 0.299862,-0.910873 0.470606,-1.361017 0.170392,-0.450145 0.358069,-0.811389 0.562681,-1.084439 0.463549,-0.136172 0.961672,-0.317147 1.493661,-0.542219 0.531988,-0.225073 1.1049,-0.501298 1.719086,-0.828675 0.05433,0 0.08184,0.01376 0.08184,0.04092 v 0.02046 c 0,0.01376 0.02716,0.02046 0.08184,0.02046 0.04092,0 0.1397,-0.03739 0.296686,-0.112536 0.156633,-0.07514 0.354541,-0.177447 0.593372,-0.307269 0.238478,-0.12947 0.504472,-0.276225 0.797983,-0.439914 0.293159,-0.163689 0.596547,-0.340784 0.91052,-0.531989 0.04092,-0.02716 0.143227,-0.05786 0.306916,-0.09208 0.163689,-0.03387 0.337609,-0.07161 0.521759,-0.112536 0.184502,-0.04092 0.358422,-0.07479 0.522111,-0.102306 0.163689,-0.02716 0.265994,-0.05433 0.306916,-0.08184 0.08185,-0.04092 0.156634,-0.08855 0.225073,-0.143228 0.06809,-0.04092 0.129469,-0.07832 0.18415,-0.112536 0.05433,-0.03387 0.09525,-0.05115 0.122766,-0.05115 0.06809,0 0.132997,0.04092 0.194381,0.122767 0.06138,0.08184 0.125941,0.122766 0.19438,0.122766 0.06809,0 0.149931,0.0035 0.245534,0.01023 0.09525,0.0071 0.204611,0.01729 0.327377,0.03069 0.122767,0 0.211314,-0.01341 0.265995,-0.04092 0.05433,-0.02716 0.143228,-0.115711 0.265994,-0.265994 l 3.43782,-0.143228 z M 78.674905,46.0489 c -0.04092,0.122766 -0.08184,0.252588 -0.122766,0.388761 -0.04092,0.136525 -0.08185,0.265994 -0.12312,0.388761 -0.04092,0.122766 -0.06138,0.218369 -0.06138,0.286455 0,0.109361 0.03422,0.197909 0.102658,0.265995 -0.355247,0.06844 -0.532341,0.109361 -0.532341,0.122766 h 0.02046 c -0.02752,0.05468 -0.04092,0.116064 -0.04092,0.18415 0,0.05468 0.0067,0.102306 0.02046,0.143228 v 0.143228 c -0.750359,0.613833 -1.302809,1.118658 -1.65735,1.514475 0.01341,0 -0.0071,0.01023 -0.06138,0.03069 -0.05468,0.02046 -0.116063,0.05115 -0.18415,0.09207 -0.06844,0.04092 -0.136525,0.0956 -0.204611,0.163688 -0.06844,0.06844 -0.116064,0.150284 -0.143227,0.245534 v -0.02046 c 0,-0.04092 -0.06138,-0.06138 -0.18415,-0.06138 -0.259292,0.191206 -0.484364,0.361598 -0.675217,0.511528 -0.177447,0.122767 -0.334433,0.235303 -0.470958,0.337608 -0.136525,0.102306 -0.21837,0.153459 -0.245534,0.153459 -0.05468,0 -0.08537,-0.01341 -0.09208,-0.04092 -0.0071,-0.02716 -0.04445,-0.04092 -0.112536,-0.04092 -0.06844,0 -0.177447,0.07514 -0.327378,0.225073 -0.204611,0.01376 -0.402519,0.03069 -0.593372,0.05115 -0.191205,0.02046 -0.382058,0.05115 -0.572911,0.09208 -0.01376,0 -0.08537,0.02752 -0.214842,0.08185 -0.129822,0.05468 -0.276225,0.109361 -0.439913,0.163689 -0.163689,0.05468 -0.310445,0.105833 -0.439914,0.153458 -0.129823,0.04798 -0.201436,0.07161 -0.214842,0.07161 -0.05468,0 -0.132997,-0.01341 -0.235303,-0.04092 -0.102305,-0.02716 -0.180975,-0.04092 -0.235303,-0.04092 -0.163688,0 -0.300213,0.05468 -0.409575,0.163689 l -0.18415,-0.163689 c -0.313972,0.163689 -0.675216,0.245534 -1.084438,0.245534 h -0.450145 c 0.05433,-0.299861 0.102306,-0.559153 0.143228,-0.777522 0.04092,-0.218017 0.07479,-0.402167 0.102305,-0.55245 0.204612,-0.09525 0.415925,-0.354542 0.634295,-0.777523 0.218017,-0.42298 0.443089,-0.900641 0.675217,-1.43263 l 0.204611,-0.450145 c 0,-0.0134 0.0035,-0.02716 0.01058,-0.04092 0.0067,-0.01341 0.01023,-0.02716 0.01023,-0.04092 0,-0.01341 0.0067,-0.02046 0.02046,-0.02046 0,-0.04092 -0.01729,-0.102306 -0.05151,-0.18415 -0.03387,-0.08185 -0.05115,-0.149931 -0.05115,-0.204611 0.177448,-0.136172 0.389114,-0.402167 0.634648,-0.797984 0.245533,-0.395463 0.477308,-0.821619 0.695677,-1.278819 0.218017,-0.4572 0.405695,-0.903817 0.562681,-1.340556 0.156633,-0.436386 0.235303,-0.763763 0.235303,-0.982133 4.269669,0.791281 6.405033,1.725789 6.405033,2.803525 0,0.05468 -0.02046,0.143228 -0.06138,0.265995 M 69.630036,53.3747 c -0.05468,0 -0.0889,-0.01376 -0.102305,-0.04092 -0.01376,-0.02716 -0.04798,-0.04092 -0.102306,-0.04092 -0.05468,0 -0.334433,0.122767 -0.838905,0.3683 -0.600428,0.286456 -0.907345,0.436739 -0.92075,0.450145 0.04092,-0.327378 0.173919,-0.593372 0.398991,-0.797984 0.225072,-0.204963 0.504472,-0.368652 0.838906,-0.491419 0.33408,-0.122767 0.705908,-0.228247 1.11513,-0.317147 0.409575,-0.08855 0.818798,-0.187325 1.22802,-0.296686 -0.191206,0.313972 -0.729897,0.702733 -1.616781,1.166636 m -3.151011,0.838905 c -0.150283,0.27305 -0.361597,0.409222 -0.634647,0.409222 -0.122767,0 -0.354894,-0.06138 -0.695678,-0.18415 v -0.04092 c 0,-0.122766 0.153459,-0.2794 0.460375,-0.470605 0.306917,-0.190853 0.672042,-0.402167 1.095022,-0.634295 0,0.341136 -0.07514,0.648053 -0.225072,0.92075 M 82.07145,52.146663 c -0.163689,0.109361 -0.470606,0.375356 -0.92075,0.797984 -0.3683,0.341136 -0.688975,0.573264 -0.961672,0.69603 0.02716,0.21837 0.115711,0.327378 0.265994,0.327378 0.01341,0 0.0441,-0.0067 0.09207,-0.02046 0.04763,-0.01341 0.07832,-0.02046 0.09208,-0.02046 0.04092,0 0.07161,0.01376 0.09207,0.04092 0.02046,0.02752 0.0441,0.04092 0.07161,0.04092 0.05433,0 0.149931,-0.02716 0.286456,-0.08184 0.04092,-0.354542 0.06138,-0.491067 0.06138,-0.409222 0.02716,0 0.06138,0.02399 0.102305,0.07161 0.04092,0.04798 0.09525,0.07161 0.163689,0.07161 0.149931,0 0.334081,-0.115711 0.55245,-0.347839 0.109009,0.0956 0.163689,0.177448 0.163689,0.245534 0,0.286455 -0.150283,0.64135 -0.450144,1.063977 -0.300214,0.01376 -0.484364,0.02752 -0.55245,0.04092 -0.08185,0.109361 -0.245534,0.197908 -0.491067,0.265994 -0.191205,0.04092 -0.382058,0.08185 -0.572911,0.122767 0.06809,0.3683 -0.01376,0.55245 -0.245533,0.55245 -0.0956,0 -0.143228,-0.02716 -0.143228,-0.08185 l 0.02046,-0.06138 c -0.313972,0.327378 -0.620889,0.654756 -0.92075,0.982133 -0.300214,0.327378 -0.450497,0.743656 -0.450497,1.248481 0,0.27305 0.04798,0.4572 0.143228,0.55245 0.150283,0.122767 0.252588,0.272697 0.307269,0.450144 0.06809,0.02716 0.2794,0.149931 0.634294,0.3683 0.31362,0.190853 0.49777,0.286456 0.55245,0.286456 0.136173,0 0.344312,-0.02399 0.624064,-0.07161 0.2794,-0.04798 0.487539,-0.07161 0.624064,-0.07161 1.036461,-0.845961 1.555397,-1.295753 1.555397,-1.350433 V 57.5491 c -0.136525,0 -0.204611,-0.02716 -0.204611,-0.08184 0.149931,-0.06809 0.258939,-0.116064 0.327378,-0.143228 0,-0.04092 -0.0071,-0.09913 -0.02046,-0.174272 -0.01376,-0.07479 -0.02046,-0.125942 -0.02046,-0.153459 0,-0.02716 0.0067,-0.05433 0.02046,-0.08184 0.08184,0.08184 0.156633,0.129822 0.225072,0.143228 0.02716,-0.109009 0.06809,-0.484011 0.122767,-1.125361 0.05433,-0.518231 0.129469,-0.852312 0.225072,-1.002595 0.409222,-0.05433 0.640997,-0.08855 0.695678,-0.102305 0.654755,-0.354542 1.063978,-0.531989 1.227666,-0.531989 0.109009,0 0.211314,0.02046 0.306917,0.06138 -0.01376,-0.136172 0,-0.204611 0.04092,-0.204611 0.136173,0.08184 0.334081,0.122767 0.593373,0.122767 0.05433,0 0.402519,-0.163689 1.043869,-0.491067 0.7366,-0.395464 1.125361,-0.600428 1.166283,-0.614186 v -0.470606 l -5.11563,1.166636 c -0.0956,-0.190852 -0.143228,-0.443441 -0.143228,-0.757413 0,-0.3683 0.149931,-0.797984 0.450144,-1.28905 0.395464,-0.640998 0.627239,-1.043517 0.695678,-1.207206 0.04092,0.04092 0.109009,0.06138 0.204611,0.06138 0.08185,0 0.211314,-0.09208 0.388761,-0.276225 0.177095,-0.18415 0.265995,-0.32385 0.265995,-0.419452 0,0.02752 -0.03422,-0.122767 -0.102306,-0.450145 -0.02752,-0.05433 -0.170744,-0.153458 -0.429683,-0.296686 -0.259292,-0.143581 -0.416278,-0.215194 -0.470606,-0.215194 -0.654755,0 -1.173338,0.36195 -1.555044,1.084791 l -0.69603,1.923345 z m -0.531989,5.115984 c -0.436739,0.64135 -0.900289,0.961672 -1.391356,0.961672 H 79.86165 c 0,-0.02716 -0.01376,-0.08185 -0.04092,-0.163689 -0.02752,-0.08185 -0.04092,-0.149931 -0.04092,-0.204611 0,-0.08185 0.05433,-0.289631 0.163689,-0.624417 0.109009,-0.33408 0.170392,-0.548922 0.18415,-0.644525 0.600075,-0.491067 1.111603,-0.852311 1.534584,-1.084439 0.163689,-0.05433 0.293158,-0.08855 0.388761,-0.102305 0.05433,0.191205 0.08184,0.259291 0.08184,0.204611 0,0.518583 -0.197908,1.071033 -0.593372,1.657703 M 93.71488,46.089822 c -0.450144,0.02752 -0.914047,0.197908 -1.391708,0.511528 -0.05468,0 -0.143228,-0.01341 -0.265995,-0.04092 -0.122766,-0.02716 -0.211666,-0.04092 -0.265994,-0.04092 -0.204611,0 -0.41275,0.04798 -0.624064,0.143228 -0.211667,0.0956 -0.310444,0.143228 -0.296686,0.143228 -0.04092,0 -0.06138,-0.01341 -0.06138,-0.04092 v -0.02046 c 0,-0.0134 -0.02046,-0.02046 -0.06138,-0.02046 -0.0956,0 -0.211666,0.05821 -0.347839,0.17392 -0.136525,0.116064 -0.197908,0.221897 -0.18415,0.317147 v 0.04092 c 0.06809,0.06844 0.218017,0.252589 0.450145,0.55245 0.163689,0.21837 0.33408,0.375356 0.511528,0.470606 0.09525,-0.08185 0.320322,-0.238478 0.675216,-0.470606 0.286456,-0.190853 0.49777,-0.361244 0.634295,-0.511528 1.077736,-0.258939 1.678164,-1.234369 1.228019,-1.207205 m 1.248128,8.082844 c -0.0956,0 -0.143228,-0.0067 -0.143228,-0.02046 -0.709436,0.382058 -1.098197,0.572911 -1.166283,0.572911 -0.58667,0.477661 -1.057275,0.811742 -1.41217,1.002594 0.136173,-0.08184 0.204612,-0.143227 0.204612,-0.18415 0,-0.02716 -0.02752,-0.04092 -0.08185,-0.04092 -0.05468,0 -0.116064,0.0071 -0.18415,0.02046 0.02716,0.136525 0.02716,0.21837 0,0.245534 -0.450144,0.245533 -0.852664,0.436739 -1.207205,0.572911 0,0.08184 -0.02752,0.150283 -0.08185,0.204611 -0.122767,0.04092 -0.539044,0.191205 -1.248128,0.450144 -0.572911,0.204611 -0.982133,0.30727 -1.228019,0.30727 -0.245533,0 -0.3683,-0.259292 -0.3683,-0.777875 0,-0.218017 0.06138,-0.443089 0.18415,-0.675217 0.09525,-0.190853 0.197908,-0.388761 0.306917,-0.593372 0,-0.01341 0.02752,-0.170392 0.08184,-0.470606 0.02752,-0.163689 0.116064,-0.272697 0.266347,-0.327377 0.136172,-0.327378 0.456847,-0.722842 0.961672,-1.186745 0.409223,-0.341136 0.811389,-0.688975 1.207206,-1.043869 0,-0.06809 0.02716,-0.197556 0.08184,-0.388761 0.05433,-0.190853 0.08185,-0.334081 0.08185,-0.429684 0,0.04092 -0.02752,-0.03387 -0.08185,-0.225072 -0.150283,0 -0.334433,-0.06809 -0.55245,-0.204611 -0.286455,0 -0.784577,0.484364 -1.493661,1.452739 -0.627944,0.859719 -1.023408,1.501069 -1.187097,1.923697 -0.300214,0.300214 -0.450144,0.525286 -0.450144,0.675217 -0.109361,0.109361 -0.27305,0.385586 -0.491067,0.828675 -0.218017,0.443441 -0.327378,0.733425 -0.327378,0.869597 0,0.313972 0.150284,0.668867 0.450145,1.06433 0.299861,0.395817 0.600075,0.593373 0.900289,0.593373 0.163688,0 0.395463,-0.03422 0.69603,-0.102306 0.299861,-0.06809 0.524933,-0.102305 0.675217,-0.102305 0.109008,0 0.491066,-0.17392 1.145822,-0.521759 0.654756,-0.347839 1.050219,-0.576439 1.186744,-0.6858 0.136173,-0.163689 0.218017,-0.286455 0.245534,-0.3683 0.381705,-0.02716 0.654755,-0.08855 0.818797,-0.18415 0.504472,-0.258939 0.975078,-0.559153 1.411817,-0.900289 0.627238,-0.491066 0.941211,-0.913694 0.941211,-1.268589 0,-0.05433 -0.04798,-0.08184 -0.143228,-0.08184 m 10.098263,-0.74683 c -0.048,-0.07514 -0.0991,-0.112537 -0.15381,-0.112537 -0.2727,0 -0.56974,0.119239 -0.89006,0.35807 -0.32067,0.23883 -0.54927,0.365125 -0.68545,0.37853 0.0952,0 0.14323,0.04092 0.14323,0.122767 -0.62759,0.327378 -1.26188,0.654756 -1.90288,0.982133 -0.79128,0.436739 -1.32362,0.866423 -1.596321,1.28905 l -0.225072,-0.143227 c 0,0.232127 -0.06138,0.347838 -0.18415,0.347838 -0.05468,0 -0.08184,-0.0134 -0.08184,-0.04092 0,-0.0134 -0.02046,-0.02046 -0.06138,-0.02046 -0.01376,0 -0.351367,0.160514 -1.012825,0.480836 -0.661811,0.320675 -1.285875,0.481189 -1.872544,0.481189 -0.259292,0 -0.474134,-0.143228 -0.644525,-0.430036 -0.170745,-0.286456 -0.255764,-0.572911 -0.255764,-0.859367 0,-0.46355 0.177094,-0.825147 0.531989,-1.084439 0.3683,-0.218016 0.736952,-0.429683 1.105252,-0.634294 0.204612,-0.177094 0.347839,-0.320322 0.429684,-0.429683 0.299861,-0.177095 0.531989,-0.306917 0.695677,-0.388761 0.109009,-0.149931 0.225073,-0.303389 0.347839,-0.460375 0.122767,-0.156986 0.265995,-0.235656 0.429684,-0.235656 h 0.122766 c -0.02752,-0.14993 0.255764,-0.521758 0.84914,-1.11513 0.59337,-0.593373 0.91087,-1.09467 0.95179,-1.503892 0.0409,-0.01341 0.0681,-0.0067 0.0818,0.02046 0.0134,0.02752 0.0476,0.04092 0.1023,0.04092 0.21802,0 0.32738,-0.136172 0.32738,-0.409222 0,-0.04092 -0.0138,-0.08855 -0.0409,-0.143228 -0.0275,-0.05433 -0.048,-0.09525 -0.0614,-0.122766 l -0.14323,0.06138 c -0.0956,-0.05433 -0.19121,-0.115711 -0.28646,-0.18415 -0.17744,-0.109008 -0.36159,-0.163689 -0.5528,-0.163689 -0.43674,0 -1.063981,0.259292 -1.882425,0.777522 -0.204611,0.150284 -0.777522,0.566209 -1.718733,1.248128 -0.05468,0.341136 -0.177448,0.504825 -0.368653,0.491067 h -0.08185 c 0.02716,0.177447 -0.0956,0.395816 -0.3683,0.654755 -0.354894,0.341136 -0.55245,0.539045 -0.593372,0.593725 -0.245533,0.518583 -0.42298,0.907345 -0.531989,1.166283 -0.231775,0.21837 -0.422628,0.361598 -0.572911,0.429684 -0.01341,0.232128 -0.02046,0.504825 -0.02046,0.818444 0,1.036814 0.388761,1.889831 1.166283,2.557992 0,-0.06809 0.03387,-0.136172 0.102306,-0.204611 0.177094,0.27305 0.484011,0.409222 0.92075,0.409222 0.150283,0 0.368653,-0.02399 0.655108,-0.07161 0.286456,-0.04763 0.504472,-0.07161 0.654756,-0.07161 0.08184,0 0.231775,-0.06138 0.450144,-0.18415 0.286456,-0.163689 0.443089,-0.252236 0.470606,-0.265994 0.190852,-0.08185 0.340783,-0.143228 0.450144,-0.18415 -0.01376,-0.09525 0.02046,-0.170392 0.102306,-0.225072 0.177094,-0.04092 0.2794,-0.06138 0.306916,-0.06138 h 0.06138 c -0.05468,-0.02752 -0.08185,-0.05468 -0.08185,-0.08184 0,-0.06844 0.06809,-0.136525 0.204611,-0.204964 0.272693,0 0.838903,-0.293158 1.698623,-0.879828 1.0093,-0.695678 1.62313,-1.091142 1.8415,-1.186744 0.0134,-0.231775 0.25223,-0.436386 0.71614,-0.613834 0.46355,-0.177094 0.69567,-0.3683 0.69567,-0.572911 0,-0.04092 -0.007,-0.08184 -0.0205,-0.122766 0.15029,0.01376 0.29351,-0.01341 0.43004,-0.08185 -0.0547,-0.06809 -0.10583,-0.1397 -0.15346,-0.214841 m -6.118572,-1.647473 c -0.116064,0.08185 -0.2286,0.163689 -0.337608,0.245534 -0.764117,0.695677 -1.343731,1.200502 -1.739195,1.514475 l -0.184503,-0.102306 c 0.750359,-0.941564 1.555398,-1.603022 2.414764,-1.98508 0.01341,0.136525 -0.03775,0.245533 -0.153458,0.327377 m 15.807262,4.706409 c -0.0956,0.163688 -0.15699,0.293511 -0.18415,0.388761 -0.35489,-0.02716 -0.74366,0.122766 -1.16628,0.450497 -0.66852,0.531989 -1.00965,0.797983 -1.02306,0.797983 -0.0547,-0.122766 -0.1023,-0.18415 -0.14323,-0.18415 -1.09184,0.436386 -1.80093,0.654756 -2.1283,0.654756 -0.34114,0 -0.6276,-0.225072 -0.85937,-0.675217 -0.20461,-0.381705 -0.30692,-0.764117 -0.30692,-1.146175 0,-0.14993 0.0512,-0.37853 0.15346,-0.685447 0.10231,-0.306917 0.1464,-0.54222 0.133,-0.705908 v -0.143228 c 0.55915,-0.954617 0.95461,-1.725436 1.18674,-2.312458 0.10901,-0.06809 0.19085,-0.115712 0.24554,-0.143228 0.14993,-0.381706 0.28645,-0.743303 0.40922,-1.084439 -0.0409,-0.05433 -0.21167,-0.12947 -0.51153,-0.225072 -0.30021,-0.09525 -0.49107,-0.143228 -0.57291,-0.143228 -0.0138,0 -0.2219,0.18415 -0.62407,0.55245 -0.40251,0.3683 -0.66498,0.579967 -0.78775,0.634294 -0.0138,0.150284 -0.0342,0.245534 -0.0614,0.286456 -0.27305,0.01376 -0.68898,0.286455 -1.24848,0.818797 -0.3683,0.395817 -0.7299,0.784578 -1.08444,1.166283 -0.13653,0.02752 -0.27305,0.102306 -0.40922,0.225073 -0.13653,0.122766 -0.30692,0.18415 -0.51153,0.18415 -0.0275,0 -0.0409,-0.0067 -0.0409,-0.02046 0,-0.08184 0.27622,-0.688622 0.82867,-1.821038 0.55245,-1.132417 0.82868,-1.725789 0.82868,-1.78047 0,-0.204611 -0.0956,-0.371475 -0.28646,-0.501297 -0.1912,-0.129469 -0.38876,-0.194381 -0.59337,-0.194381 -0.0819,0 -0.17745,0.05468 -0.28646,0.163689 -0.0956,0.286456 -0.14322,0.518584 -0.14322,0.695678 v 0.102306 c -0.46391,0.954969 -1.04352,2.312458 -1.7392,4.072113 0.0819,0 0.12277,0.03422 0.12277,0.102306 -0.57327,0.518583 -0.85972,0.954969 -0.85972,1.309864 0,0.122767 0.0684,0.276225 0.20461,0.460375 0.13652,0.18415 0.25929,0.276225 0.36865,0.276225 0.0409,0 0.11571,-0.01023 0.22507,-0.03069 0.10901,-0.02046 0.18415,-0.03069 0.22508,-0.03069 0.21801,0 1.05022,-0.791281 2.49625,-2.373842 l -0.14323,-0.04092 c 0.0818,-0.149931 0.12277,-0.231775 0.12277,-0.245534 0.0272,0.04092 0.0681,0.06138 0.12277,0.06138 0.0681,0 0.34784,-0.255764 0.8389,-0.767292 0.49142,-0.511528 0.78458,-0.767292 0.88018,-0.767292 -0.13652,0.436739 -0.26599,0.873125 -0.38876,1.309511 -0.15028,0.545748 -0.22507,0.995892 -0.22507,1.350434 0,0.818797 0.15663,1.514475 0.47061,2.087386 0.3817,0.695678 0.94791,1.043516 1.69827,1.043516 0.2727,0 0.641,-0.07514 1.1049,-0.225072 0.54575,-0.177447 0.91405,-0.279753 1.10525,-0.306916 0,-0.163689 0.20461,-0.341137 0.61383,-0.531989 0.2727,-0.122767 0.55245,-0.238831 0.83891,-0.347839 0.85937,-1.023408 1.3776,-1.609725 1.55504,-1.760008 z m -8.20561,-1.821039 -0.0818,-0.163689 0.0818,-0.04092 0.1023,0.204611 z m -0.14323,-0.06138 h 0.10231 v 0.245534 h -0.10231 z m 19.80777,-3.806119 c -0.25929,-0.01341 -0.54222,0.01729 -0.84914,0.09208 -0.30691,0.07514 -0.48083,0.112536 -0.52176,0.112536 -0.0818,0 -0.19438,-0.02364 -0.3376,-0.07161 -0.14323,-0.04762 -0.25612,-0.07161 -0.33797,-0.07161 -0.0818,0 -0.19438,0.02399 -0.3376,0.07161 -0.14323,0.04798 -0.25577,0.07161 -0.33761,0.07161 -0.0547,0 -0.0819,-0.02716 -0.0819,-0.08184 l 0.0205,-0.02046 c 0,-0.02716 -0.0275,-0.04092 -0.0818,-0.04092 -0.0956,0 -0.24236,0.01729 -0.43991,0.05115 -0.19791,0.03422 -0.35137,0.05115 -0.46038,0.05115 -0.12277,0 -0.31715,-0.01693 -0.58314,-0.05115 -0.266,-0.03387 -0.46743,-0.05115 -0.6036,-0.05115 -0.19121,0 -0.43674,0.04798 -0.7366,0.143228 -0.12277,-0.109008 -0.18415,-0.190853 -0.18415,-0.245533 0.0409,-0.05433 0.12947,-0.211314 0.26599,-0.470606 0.0953,-0.163689 0.22507,-0.299861 0.38876,-0.409222 0,-0.258939 0.007,-0.409222 0.0205,-0.450144 0.25894,-0.382059 0.46355,-0.655109 0.61384,-0.818798 0.29986,-0.559152 0.59337,-1.118305 0.87982,-1.677811 0.38171,-0.722841 0.76377,-1.207205 1.14583,-1.452739 0.21801,-0.764116 0.32737,-1.139119 0.32737,-1.125713 0,-0.06809 -0.0956,-0.190853 -0.28645,-0.3683 -0.19121,-0.177095 -0.32068,-0.265995 -0.38876,-0.265995 -0.46391,0 -0.7299,0.08185 -0.79799,0.245533 -0.0684,0.300214 -0.10936,0.525287 -0.12276,0.675217 -0.19121,0.49142 -0.34784,0.85972 -0.47061,1.105253 -0.25929,0.27305 -0.54575,0.845961 -0.85936,1.718733 -0.0547,0.136525 -0.23213,0.382059 -0.53199,0.7366 -0.2593,0.300214 -0.38912,0.531989 -0.38912,0.695678 v 0.18415 c 0.0138,0.06844 0.0205,0.123119 0.0205,0.164042 0,0.177447 -0.109,0.347838 -0.32737,0.511527 -0.0684,0.05468 -0.22508,0.300214 -0.47061,0.7366 -0.19121,0.341136 -0.42298,0.511528 -0.69568,0.511528 -0.0409,0 -0.0956,-0.01023 -0.16369,-0.03069 -0.0684,-0.02046 -0.12276,-0.03069 -0.16369,-0.03069 -0.58666,0 -1.22766,0.163689 -1.92334,0.491066 -0.80539,0.395817 -1.20756,0.845962 -1.20756,1.350434 0,0.122766 0.15346,0.341136 0.46038,0.655108 0.30691,0.313972 0.51505,0.470606 0.62441,0.470606 0.1771,0 0.2794,-0.0067 0.30692,-0.02046 0.0272,-0.0134 0.0748,-0.09525 0.14323,-0.245533 -0.0547,-0.14993 -0.0684,-0.265994 -0.0409,-0.347839 0.14993,-0.436739 0.35807,-0.699205 0.62406,-0.788105 0.26599,-0.08855 0.54222,-0.17392 0.82867,-0.255764 -0.45014,1.405467 -0.70943,2.25813 -0.77752,2.557991 -0.13652,0.02752 -0.23883,0.05468 -0.30691,0.08185 0.0134,0.177447 -0.007,0.300214 -0.0614,0.3683 h -0.22507 c 0.0272,0.05468 0.0409,0.116064 0.0409,0.18415 0,0.232128 -0.20814,0.685447 -0.62406,1.360664 -0.41663,0.675569 -0.62442,1.135944 -0.62442,1.381478 0,0.109361 0.0476,0.214841 0.14323,0.317147 0.0952,0.102305 0.19756,0.153458 0.30692,0.153458 0.0547,0 0.13652,-0.01729 0.24588,-0.05115 0.10901,-0.03422 0.19086,-0.05115 0.24554,-0.05115 0.0409,0 0.0748,0.0067 0.1023,0.02046 -0.0409,0.08184 -0.0614,0.156633 -0.0614,0.225072 0,0.05433 0.0134,0.08184 0.0409,0.08184 0.2727,-0.259291 0.49107,-0.463902 0.65476,-0.613833 0.21801,-1.00965 0.36124,-1.773414 0.42968,-2.291997 0.34078,-0.31362 0.53869,-0.763764 0.59337,-1.350434 0.0681,-0.08184 0.375,-0.600075 0.92075,-1.555397 0.47731,-0.83185 0.79798,-1.248127 0.96167,-1.248127 0.0956,0 0.2286,0.03422 0.39935,0.102305 0.17039,0.06844 0.30339,0.102306 0.39899,0.102306 0.14993,0 0.30692,-0.06138 0.47061,-0.18415 h 1.39135 c 0.66816,-0.01341 1.13206,-0.02046 1.39136,-0.02046 0.1912,0 0.69603,-0.122767 1.51447,-0.3683 0.24553,-0.08185 0.39546,-0.136173 0.45015,-0.163689 0.0134,0 0.0272,-0.0067 0.0409,-0.02046 z m -5.15655,-2.148769 -0.0614,-0.08185 0.24554,-0.265994 0.0818,0.08184 z m 13.02455,4.778375 c -0.048,-0.07514 -0.0991,-0.112537 -0.15346,-0.112537 -0.27305,0 -0.56973,0.119239 -0.89006,0.35807 -0.32067,0.23883 -0.54927,0.365125 -0.68544,0.37853 0.0953,0 0.14322,0.04092 0.14322,0.122767 -0.62794,0.327378 -1.26223,0.654756 -1.90323,0.982133 -0.79128,0.436739 -1.32327,0.866423 -1.59597,1.28905 l -0.22507,-0.143227 c 0,0.232127 -0.0614,0.347838 -0.18415,0.347838 -0.0547,0 -0.0819,-0.0134 -0.0819,-0.04092 0,-0.0134 -0.0205,-0.02046 -0.0614,-0.02046 -0.0138,0 -0.35137,0.160514 -1.01318,0.480836 -0.66181,0.320675 -1.28587,0.481189 -1.87219,0.481189 -0.25929,0 -0.47413,-0.143228 -0.64452,-0.430036 -0.17075,-0.286456 -0.25577,-0.572911 -0.25577,-0.859367 0,-0.46355 0.1771,-0.825147 0.53199,-1.084439 0.3683,-0.218016 0.7366,-0.429683 1.1049,-0.634294 0.20461,-0.177094 0.34784,-0.320322 0.42969,-0.429683 0.29986,-0.177095 0.53198,-0.306917 0.69567,-0.388761 0.10901,-0.149931 0.22508,-0.303389 0.34784,-0.460375 0.12277,-0.156986 0.26635,-0.235656 0.43004,-0.235656 h 0.12276 c -0.0275,-0.14993 0.25577,-0.521758 0.84914,-1.11513 0.59337,-0.593373 0.91052,-1.09467 0.95144,-1.503892 0.0409,-0.01341 0.0681,-0.0067 0.0819,0.02046 0.0134,0.02752 0.0476,0.04092 0.1023,0.04092 0.21802,0 0.32738,-0.136172 0.32738,-0.409222 0,-0.04092 -0.0138,-0.08855 -0.0409,-0.143228 -0.0275,-0.05433 -0.048,-0.09525 -0.0614,-0.122766 l -0.14322,0.06138 c -0.0956,-0.05433 -0.19121,-0.115711 -0.28646,-0.18415 -0.17745,-0.109008 -0.3616,-0.163689 -0.55245,-0.163689 -0.43674,0 -1.06398,0.259292 -1.88277,0.777522 -0.20461,0.150284 -0.77753,0.566209 -1.71874,1.248128 -0.0547,0.341136 -0.17744,0.504825 -0.3683,0.491067 h -0.0818 c 0.0272,0.177447 -0.0956,0.395816 -0.3683,0.654755 -0.3549,0.341136 -0.55245,0.539045 -0.59337,0.593725 -0.24554,0.518583 -0.42298,0.907345 -0.53199,1.166283 -0.23213,0.21837 -0.42298,0.361598 -0.57327,0.429684 -0.0134,0.232128 -0.0205,0.504825 -0.0205,0.818444 0,1.036814 0.38876,1.889831 1.16664,2.557992 0,-0.06809 0.0339,-0.136172 0.1023,-0.204611 0.1771,0.27305 0.48402,0.409222 0.92075,0.409222 0.14994,0 0.3683,-0.02399 0.65476,-0.07161 0.28646,-0.04763 0.50447,-0.07161 0.65476,-0.07161 0.0818,0 0.23177,-0.06138 0.45014,-0.18415 0.28646,-0.163689 0.44344,-0.252236 0.47061,-0.265994 0.1912,-0.08185 0.34113,-0.143228 0.45049,-0.18415 -0.0138,-0.09525 0.0205,-0.170392 0.10231,-0.225072 0.17709,-0.04092 0.2794,-0.06138 0.30691,-0.06138 h 0.0614 c -0.0547,-0.02752 -0.0819,-0.05468 -0.0819,-0.08184 0,-0.06844 0.0681,-0.136525 0.20461,-0.204964 0.2727,0 0.83891,-0.293158 1.69828,-0.879828 1.00929,-0.695678 1.62348,-1.091142 1.84185,-1.186744 0.0134,-0.231775 0.25224,-0.436386 0.71614,-0.613834 0.46355,-0.177094 0.69568,-0.3683 0.69568,-0.572911 0,-0.04092 -0.007,-0.08184 -0.0205,-0.122766 0.14993,0.01376 0.29315,-0.01341 0.42968,-0.08185 -0.0547,-0.06809 -0.10583,-0.1397 -0.15346,-0.214841 m -6.11822,-1.647473 c -0.11642,0.08185 -0.22896,0.163689 -0.33797,0.245534 -0.76411,0.695677 -1.34373,1.200502 -1.73919,1.514475 L 125.69716,53.4361 c 0.75001,-0.941564 1.55504,-1.603022 2.41476,-1.98508 0.0134,0.136525 -0.0377,0.245533 -0.15345,0.327377"
       style="fill:#bbbbbb;fill-opacity:1;fill-rule:nonzero;stroke:none;stroke-width:0.352778"
       id="path844" />
    <g
       id="g852"
       style="fill:#bbbbbb;fill-opacity:1"
       transform="matrix(0.35277777,0,0,-0.35277777,28.09892,90.115394)" />
    <g
       id="g864"
       style="fill:#bbbbbb;fill-opacity:1"
       transform="matrix(0.35277777,0,0,-0.35277777,28.09892,90.115394)">
      <g
         clip-path="url(#clipPath856)"
         opacity="0.539993"
         id="g862"
         style="fill:#bbbbbb;fill-opacity:1">
        <g
           transform="translate(223.2533,156.2212)"
           id="g860"
           style="fill:#bbbbbb;fill-opacity:1">
          <path
             d="m 0,0 c -7.693,-5.189 -16.916,-4.969 -20.599,0.493 -3.684,5.461 -0.434,14.095 7.259,19.284 7.694,5.189 16.916,4.968 20.6,-0.493 C 10.943,13.823 7.693,5.189 0,0"
             style="fill:#bbbbbb;fill-opacity:1;fill-rule:nonzero;stroke:none"
             id="path858" />
        </g>
      </g>
    </g>
    <g
       id="g868"
       style="fill:#bbbbbb;fill-opacity:1"
       transform="matrix(0.35277777,0,0,-0.35277777,28.09892,90.115394)" />
    <g
       id="g882"
       style="fill:#bbbbbb;fill-opacity:1"
       transform="matrix(0.35277777,0,0,-0.35277777,28.09892,90.115394)">
      <g
         clip-path="url(#clipPath872)"
         opacity="0.399994"
         id="g880"
         style="fill:#bbbbbb;fill-opacity:1">
        <g
           transform="matrix(-0.7849968,0.6194998,0.5047567,0.8755492,196.95865,318.21576)"
           id="g878"
           style="fill:#bbbbbb;fill-opacity:1">
          <g
             transform="translate(-99.2463,-114.558)"
             id="g876"
             style="fill:#bbbbbb;fill-opacity:1">
            <path
               d="m 0,0 c 7.047,0 12.76,-4.254 12.76,-9.502 0,-5.248 -5.713,-9.502 -12.76,-9.502 -7.047,0 -12.76,4.254 -12.76,9.502 C -12.76,-4.254 -7.047,0 0,0"
               style="fill:#bbbbbb;fill-opacity:1;fill-rule:nonzero;stroke:none"
               id="path874" />
          </g>
        </g>
      </g>
    </g>
    <g
       id="g886"
       style="fill:#bbbbbb;fill-opacity:1"
       transform="matrix(0.35277777,0,0,-0.35277777,28.09892,90.115394)" />
    <g
       id="g898"
       style="fill:#bbbbbb;fill-opacity:1"
       transform="matrix(0.35277777,0,0,-0.35277777,28.09892,90.115394)">
      <g
         clip-path="url(#clipPath890)"
         opacity="0.539993"
         id="g896"
         style="fill:#bbbbbb;fill-opacity:1">
        <g
           transform="translate(173.6325,156.363)"
           id="g894"
           style="fill:#bbbbbb;fill-opacity:1">
          <path
             d="M 0,0 C 7.693,-5.189 16.916,-4.969 20.599,0.493 24.283,5.954 21.033,14.588 13.34,19.777 5.646,24.966 -3.576,24.745 -7.26,19.284 -10.943,13.823 -7.693,5.189 0,0"
             style="fill:#bbbbbb;fill-opacity:1;fill-rule:nonzero;stroke:none"
             id="path892" />
        </g>
      </g>
    </g>
    <g
       id="g902"
       style="fill:#bbbbbb;fill-opacity:1"
       transform="matrix(0.35277777,0,0,-0.35277777,28.09892,90.115394)" />
    <g
       id="g916"
       style="fill:#bbbbbb;fill-opacity:1"
       transform="matrix(0.35277777,0,0,-0.35277777,28.09892,90.115394)">
      <g
         clip-path="url(#clipPath906)"
         opacity="0.399994"
         id="g914"
         style="fill:#bbbbbb;fill-opacity:1">
        <g
           transform="matrix(0.7849968,0.6194998,-0.5047567,0.8755492,199.92717,318.21576)"
           id="g912"
           style="fill:#bbbbbb;fill-opacity:1">
          <g
             transform="translate(-99.2463,-114.558)"
             id="g910"
             style="fill:#bbbbbb;fill-opacity:1">
            <path
               d="m 0,0 c 7.047,0 12.76,-4.254 12.76,-9.502 0,-5.248 -5.713,-9.502 -12.76,-9.502 -7.047,0 -12.76,4.254 -12.76,9.502 C -12.76,-4.254 -7.047,0 0,0"
               style="fill:#bbbbbb;fill-opacity:1;fill-rule:nonzero;stroke:none"
               id="path908" />
          </g>
        </g>
      </g>
    </g>
    <g
       id="g920"
       style="fill:#bbbbbb;fill-opacity:1"
       transform="matrix(0.35277777,0,0,-0.35277777,28.09892,90.115394)" />
    <g
       id="g934"
       style="fill:#bbbbbb;fill-opacity:1"
       transform="matrix(0.35277777,0,0,-0.35277777,28.09892,90.115394)">
      <g
         clip-path="url(#clipPath924)"
         opacity="0.600006"
         id="g932"
         style="fill:#bbbbbb;fill-opacity:1">
        <g
           transform="translate(197.12769,358.28763)"
           id="g930"
           style="fill:#bbbbbb;fill-opacity:1">
          <g
             transform="translate(1.3152,-185.9078)"
             id="g928"
             style="fill:#bbbbbb;fill-opacity:1">
            <path
               d="m 0,0 c 0.654,0 1.184,-7.265 1.184,-16.226 0,-8.961 -0.53,-16.225 -1.184,-16.225 -0.654,0 -1.184,7.264 -1.184,16.225 C -1.184,-7.265 -0.654,0 0,0"
               style="fill:#bbbbbb;fill-opacity:1;fill-rule:nonzero;stroke:none"
               id="path926" />
          </g>
        </g>
      </g>
    </g>
  </g>
</svg>
