<?xml version="1.0" encoding="UTF-8" standalone="no"?>
<!-- Created with Inkscape (http://www.inkscape.org/) -->

<svg
   xmlns:dc="http://purl.org/dc/elements/1.1/"
   xmlns:cc="http://creativecommons.org/ns#"
   xmlns:rdf="http://www.w3.org/1999/02/22-rdf-syntax-ns#"
   xmlns:svg="http://www.w3.org/2000/svg"
   xmlns="http://www.w3.org/2000/svg"
   xmlns:sodipodi="http://sodipodi.sourceforge.net/DTD/sodipodi-0.dtd"
   xmlns:inkscape="http://www.inkscape.org/namespaces/inkscape"
   width="500"
   height="500"
   viewBox="0 0 132.29166 132.29167"
   version="1.1"
   id="svg8"
   inkscape:version="0.92.4 (33fec40, 2019-01-16)"
   sodipodi:docname="circle.svg">
  <defs
     id="defs2" />
  <sodipodi:namedview
     id="base"
     pagecolor="#ffffff"
     bordercolor="#666666"
     borderopacity="1.0"
     inkscape:pageopacity="0.0"
     inkscape:pageshadow="2"
     inkscape:zoom="0.49497475"
     inkscape:cx="423.12418"
     inkscape:cy="-74.070581"
     inkscape:document-units="mm"
     inkscape:current-layer="layer1"
     showgrid="false"
     units="px"
     inkscape:window-width="1920"
     inkscape:window-height="1052"
     inkscape:window-x="0"
     inkscape:window-y="0"
     inkscape:window-maximized="1" />
  <metadata
     id="metadata5">
    <rdf:RDF>
      <cc:Work
         rdf:about="">
        <dc:format>image/svg+xml</dc:format>
        <dc:type
           rdf:resource="http://purl.org/dc/dcmitype/StillImage" />
        <dc:title />
      </cc:Work>
    </rdf:RDF>
  </metadata>
  <g
     inkscape:label="Layer 1"
     inkscape:groupmode="layer"
     id="layer1"
     transform="translate(0,-164.70832)">
    <path
       style="fill:#666666;stroke-width:0.24481259"
       id="path2-6-6-6"
       d="m -109.10648,221.93258 c -0.16279,-8.52561 -2.01261,-17.02427 -5.42871,-24.79535 -3.40487,-7.77795 -8.34665,-14.82365 -14.41359,-20.64578 -6.06328,-5.82655 -13.25391,-10.4327 -21.03651,-13.47131 -7.77843,-3.05036 -16.1422,-4.50749 -24.40463,-4.33073 -8.26364,0.16354 -16.49057,1.96022 -24.01391,5.27302 -7.52896,3.30202 -14.34969,8.09302 -19.98455,13.97169 -5.63875,5.87576 -10.09338,12.84092 -13.02941,20.37551 -2.94706,7.53044 -4.35154,15.62174 -4.17528,23.62295 0.16404,8.00243 1.90783,15.95737 5.11733,23.23246 3.19895,7.28024 7.83866,13.87622 13.52982,19.32331 5.68797,5.45147 12.42814,9.75479 19.71426,12.58752 7.28292,2.84374 15.10248,4.1951 22.84174,4.01958 7.74098,-0.16428 15.42345,-1.85568 22.45104,-4.96187 7.032,-3.09589 13.40274,-7.58404 18.6623,-13.08793 5.2642,-5.50069 9.41573,-12.01538 12.14539,-19.05301 1.66228,-4.26635 2.78988,-8.7212 3.38429,-13.23507 0.15888,0.009 0.31875,0.0154 0.47983,0.0154 4.50676,0 8.16034,-3.65334 8.16034,-8.16033 0,-0.22915 -0.012,-0.45558 -0.0304,-0.67985 z m -12.9665,21.66932 c -2.99308,6.78376 -7.32969,12.92905 -12.6458,18.00156 -5.31316,5.07548 -11.60312,9.07669 -18.39203,11.70377 -6.78717,2.63662 -14.06276,3.88247 -21.27885,3.70792 -7.21732,-0.16574 -14.3568,-1.75138 -20.88815,-4.65069 -6.53455,-2.89025 -12.45534,-7.07533 -17.34008,-12.20367 -4.88842,-5.12587 -8.73761,-11.19062 -11.26162,-17.73104 -2.53358,-6.53942 -3.72679,-13.54328 -3.55272,-20.49767 0.16597,-6.95584 1.69923,-13.82334 4.495,-20.10669 2.78694,-6.28605 6.8212,-11.98187 11.76202,-16.6791 4.93836,-4.70088 10.77812,-8.39877 17.0698,-10.81947 6.29095,-2.43052 13.0228,-3.57108 19.71575,-3.39728 6.6939,0.16648 13.28988,1.64711 19.32524,4.33956 6.03757,2.68388 11.50815,6.56686 16.01786,11.32036 4.51336,4.75059 8.05971,10.36563 10.37784,16.40859 2.3267,6.04295 3.41464,12.50307 3.24156,18.93429 h 0.0306 c -0.0186,0.22424 -0.0306,0.45069 -0.0306,0.67982 0,4.20907 3.18697,7.67244 7.27878,8.11237 -0.79369,4.44042 -2.1076,8.77506 -3.9246,12.87737 z"
       inkscape:connector-curvature="0" />
    <circle
       style="opacity:1;fill:none;fill-opacity:1;stroke:#fff201;stroke-width:3.01495481;stroke-miterlimit:4;stroke-dasharray:none;stroke-opacity:1"
       id="path897-1-7"
       cx="-155.63383"
       cy="234.19566"
       r="15.522163" />
    <circle
       style="opacity:1;fill:#666666;fill-opacity:1;stroke:none;stroke-width:1.20811915;stroke-miterlimit:4;stroke-dasharray:none;stroke-opacity:1"
       id="path910-7-3-29-5"
       cx="-186.53459"
       cy="191.82191"
       r="2.6458333" />
    <circle
       style="opacity:1;fill:#666666;fill-opacity:1;stroke:none;stroke-width:1.85418773;stroke-miterlimit:4;stroke-dasharray:none;stroke-opacity:1"
       id="path910-7-3-5-1-3"
       cx="-204.9236"
       cy="203.82964"
       r="4.0607514" />
    <circle
       style="opacity:1;fill:#666666;fill-opacity:1;stroke:none;stroke-width:1.20811915;stroke-miterlimit:4;stroke-dasharray:none;stroke-opacity:1"
       id="path910-7-3-6-94-5"
       cx="-181.91368"
       cy="262.67596"
       r="2.6458333" />
    <circle
       style="opacity:1;fill:#666666;fill-opacity:1;stroke:none;stroke-width:1.85418773;stroke-miterlimit:4;stroke-dasharray:none;stroke-opacity:1"
       id="path910-7-3-2-7-6"
       cx="-156.95409"
       cy="261.26102"
       r="4.0607514" />
    <circle
       style="opacity:1;fill:#666666;fill-opacity:1;stroke:none;stroke-width:1.85418773;stroke-miterlimit:4;stroke-dasharray:none;stroke-opacity:1"
       id="path910-7-3-9-8-2"
       cx="-158.80885"
       cy="231.02065"
       r="4.0607514" />
    <circle
       style="opacity:1;fill:#666666;fill-opacity:1;stroke:none;stroke-width:1.85418773;stroke-miterlimit:4;stroke-dasharray:none;stroke-opacity:1"
       id="path910-7-3-1-4-9"
       cx="-142.65128"
       cy="208.89064"
       r="4.0607514" />
    <circle
       style="opacity:1;fill:#666666;fill-opacity:1;stroke:none;stroke-width:1.85418773;stroke-miterlimit:4;stroke-dasharray:none;stroke-opacity:1"
       id="path910-7-3-27-50-1"
       cx="-208.66432"
       cy="228.47453"
       r="4.0607514" />
    <circle
       style="opacity:1;fill:#666666;fill-opacity:1;stroke:none;stroke-width:1.85418773;stroke-miterlimit:4;stroke-dasharray:none;stroke-opacity:1"
       id="path910-7-3-0-3-2"
       cx="-199.4225"
       cy="249.37866"
       r="4.0607514" />
    <circle
       style="opacity:1;fill:#666666;fill-opacity:1;stroke:none;stroke-width:1.85418773;stroke-miterlimit:4;stroke-dasharray:none;stroke-opacity:1"
       id="path910-7-3-6-9-6-7"
       cx="-171.47697"
       cy="206.69022"
       r="4.0607514" />
    <circle
       style="opacity:1;fill:#666666;fill-opacity:1;stroke:none;stroke-width:1.20811915;stroke-miterlimit:4;stroke-dasharray:none;stroke-opacity:1"
       id="path910-7-3-6-9-3-1-0"
       cx="-192.03569"
       cy="221.52783"
       r="2.6458333" />
    <circle
       style="opacity:1;fill:#666666;fill-opacity:1;stroke:none;stroke-width:1.85418773;stroke-miterlimit:4;stroke-dasharray:none;stroke-opacity:1"
       id="path910-7-3-6-9-3-6-0-9"
       cx="-185.55977"
       cy="239.69673"
       r="4.0607514" />
    <circle
       style="opacity:1;fill:#666666;fill-opacity:1;stroke:none;stroke-width:1.20811915;stroke-miterlimit:4;stroke-dasharray:none;stroke-opacity:1"
       id="path910-7-3-6-94-6-3"
       cx="-160.47774"
       cy="192.24249"
       r="2.6458333" />
    <path
       style="opacity:1;fill:#ffffff;fill-opacity:1;stroke:none;stroke-width:2.80328083;stroke-miterlimit:4;stroke-dasharray:none;stroke-opacity:1"
       d="m 60.078877,296.40032 c -5.661639,-0.40552 -11.521678,-1.53357 -16.421434,-3.1612 -7.989628,-2.65403 -15.326852,-6.69435 -21.621559,-11.90623 -4.445509,-3.68075 -9.130657,-8.78978 -12.1247204,-13.22166 -0.9630649,-1.42554 -1.1144015,-2.02241 -0.6344686,-2.50234 0.4618353,-0.46184 0.818762,-0.34049 1.705997,0.57998 0.56193,0.58294 0.718064,0.68749 0.47693,0.31929 -6.4548263,-9.85611 -10.304169,-22.40874 -10.3135626,-33.63235 -0.00207,-2.24371 -0.00103,-2.25047 0.5314579,-2.78251 0.293339,-0.29336 0.4675153,-0.53335 0.3870575,-0.53335 -0.080464,0 -0.2540161,-0.2601 -0.3856847,-0.57796 -0.3020872,-0.72931 0.00734,-6.27478 0.5587584,-10.01523 1.2230131,-8.29532 4.6794649,-17.45051 9.1578925,-24.25676 4.00098,-6.08062 7.543979,-10.05022 13.323117,-14.92731 0.973759,-0.82178 1.810366,-1.49412 1.859133,-1.49412 0.04877,0 0.721778,-0.45426 1.495583,-1.00941 3.168929,-2.27361 7.925771,-4.9599 11.470415,-6.47761 7.150491,-3.06156 16.987819,-5.20672 25.55274,-5.57205 6.191273,-0.2641 14.293199,0.82225 20.435568,2.74008 8.153168,2.54569 11.604571,4.28151 19.794293,9.95529 3.48282,2.41284 9.30136,8.25364 12.5406,12.58854 3.61138,4.83292 5.71831,8.4337 7.89135,13.48651 2.66784,6.20333 4.26284,12.19685 5.15115,19.35635 0.35649,2.87324 0.29829,11.50887 -0.0978,14.50562 -1.57583,11.92337 -6.10694,22.97017 -13.14583,32.0493 -3.57927,4.61675 -4.49835,5.60514 -8.77887,9.44124 -5.25291,4.70751 -10.774616,8.22872 -18.03661,11.50195 -5.761363,2.59685 -10.241731,3.88429 -17.178245,4.93617 -4.318362,0.65483 -9.634668,0.89333 -13.593298,0.60977 z m 9.57917,-5.54376 c 6.303008,-0.54335 11.496297,-1.77013 17.867058,-4.22069 5.381932,-2.07017 9.675018,-4.59558 15.979345,-9.39993 1.54186,-1.17503 5.9126,-5.46232 7.68137,-7.53474 0.64238,-0.75262 1.22094,-1.4095 1.28569,-1.45968 0.27456,-0.21272 3.20539,-4.22403 3.55437,-4.86469 0.20982,-0.38517 0.98152,-1.68562 1.71491,-2.88987 4.07144,-6.68542 6.68537,-14.40318 7.50841,-22.16894 0.31963,-3.01586 0.31816,-11.84155 -0.002,-14.59682 -0.64767,-5.56636 -1.63006,-9.56665 -3.5847,-14.59683 -0.90651,-2.33283 -2.9107,-6.56857 -3.10801,-6.56857 -0.0504,0 0.28583,0.75136 0.74707,1.66974 2.5767,5.13054 4.64419,12.18255 5.45343,18.60114 0.39533,3.13553 0.40002,11.80417 0.008,14.85597 -0.85677,6.6708 -2.60838,12.6822 -5.37209,18.43674 -0.67777,1.41124 -1.62288,3.2093 -2.10023,3.99568 -0.47735,0.78635 -1.03255,1.72541 -1.23379,2.08679 -1.83134,3.28889 -7.14372,9.47898 -11.27698,13.14015 -2.09706,1.85751 -5.799181,4.54452 -8.907242,6.46487 -6.315384,3.90208 -14.570907,6.72778 -23.021213,7.8797 -2.98115,0.4064 -9.770198,0.55194 -12.98118,0.27836 -8.310545,-0.70815 -17.09428,-3.32159 -23.784588,-7.07669 -3.632931,-2.03904 -8.445707,-5.29308 -10.483537,-7.0882 -1.858928,-1.63748 -5.482098,-5.04198 -5.486566,-5.15542 -0.0027,-0.0673 -0.541292,-0.68705 -1.196969,-1.37724 -1.485525,-1.56372 -3.408189,-4.09306 -5.361131,-7.0527 -1.760821,-2.66847 -1.85555,-2.78436 -1.188523,-1.45404 1.296248,2.58525 4.039667,6.75044 6.282807,9.53883 2.229258,2.7711 6.908641,6.95681 10.847312,9.70286 3.409848,2.37738 8.204009,5.06193 10.783203,6.03823 8.66007,3.27804 12.147922,4.11637 20.344329,4.88985 1.526964,0.14409 7.025082,0.0991 9.031795,-0.0739 z m 3.193052,-3.25705 c 9.611792,-1.41582 16.777455,-4.1462 24.758774,-9.43399 9.813437,-6.5016 17.149937,-15.57286 21.454847,-26.52787 3.72148,-9.47036 4.9326,-20.21005 3.40691,-30.21112 -1.42645,-9.35057 -5.61153,-19.10765 -11.34668,-26.45359 -1.8003,-2.30594 -4.42426,-5.33108 -5.50544,-6.34722 -8.024891,-7.54194 -15.835092,-12.00191 -25.743678,-14.70079 -5.665952,-1.54331 -10.757535,-2.12704 -17.151282,-1.96644 -7.417102,0.18631 -13.445523,1.40872 -19.958158,4.04698 -3.095678,1.25409 -6.759154,3.0006 -7.867045,3.75053 -0.250889,0.16982 -1.154066,0.74361 -2.007067,1.27511 -0.853,0.53151 -2.454093,1.63629 -3.557981,2.45507 -5.587341,4.14436 -9.07877,7.84867 -13.104484,13.90349 -1.987434,2.98919 -2.055981,3.06784 -2.673943,3.06784 -0.530878,0 -0.663623,-0.0836 -0.814697,-0.51321 -0.145251,-0.41302 -0.101505,-0.6623 0.224193,-1.2772 0.222569,-0.42022 0.404431,-0.9324 0.404162,-1.1382 -10e-4,-0.34609 2.990463,-5.46672 3.573225,-6.11756 0.141865,-0.15841 0.257934,-0.34864 0.257934,-0.42271 0,-0.074 0.215626,-0.43706 0.479175,-0.8067 l 0.479187,-0.67206 -0.524803,0.57263 c -1.044218,1.13943 -4.35784,5.88852 -5.7325,8.21585 -4.9528415,8.38536 -8.1930195,19.60229 -8.2058201,28.40716 -0.00273,1.99634 -0.1893319,2.62072 -0.886235,2.96817 -0.3772272,0.18808 -0.3909931,0.23153 -0.1211525,0.38254 0.4140577,0.23171 0.6355948,1.30598 0.6408072,3.10731 0.00423,1.46524 0.2142604,1.96527 0.4428776,1.0544 0.3069035,-1.22279 1.6279594,-0.87073 1.8365228,0.48941 0.7008011,4.57047 1.1255292,6.52615 2.3004581,10.59265 1.0027311,3.47049 1.7066493,5.23492 3.7294759,9.34825 1.791655,3.64321 4.778769,8.37888 7.189139,11.39743 1.73825,2.17681 6.644058,7.06993 8.938884,8.91574 2.859029,2.29962 7.314164,5.13801 10.781589,6.86898 6.633481,3.31149 13.301782,5.21052 21.165655,6.02762 3.395706,0.35281 9.848983,0.22583 13.13715,-0.2585 z M 99.490324,178.56226 c -0.124931,-0.15053 -0.314898,-0.27369 -0.422144,-0.27369 -0.107246,0 -0.03561,0.12056 0.159188,0.26789 0.457698,0.34618 0.547082,0.34816 0.262956,0.006 z m -1.094771,-0.64531 c -1.375054,-1.09577 -5.849239,-3.55551 -9.305472,-5.11579 -10.923257,-4.93125 -25.647857,-6.37278 -37.111462,-3.63313 -5.60889,1.34041 -11.953081,4.14361 -17.075114,7.54464 -1.339954,0.88974 -1.037774,0.8456 0.451525,-0.066 5.791973,-3.54511 14.891325,-6.58642 22.078167,-7.37933 1.404948,-0.155 2.989179,-0.3298 3.520518,-0.38844 0.531339,-0.0586 2.789289,-0.10442 5.017662,-0.10176 4.358143,0.005 9.088526,0.42982 12.456542,1.11807 3.367997,0.68821 7.891838,2.10256 10.844623,3.39047 2.197068,0.95832 7.198391,3.52596 8.301938,4.26216 1.177577,0.7856 1.558835,0.95696 0.821073,0.36906 z"
       id="path1172-9"
       inkscape:connector-curvature="0" />
    <path
       sodipodi:type="inkscape:offset"
       inkscape:radius="0"
       inkscape:original="M 86.611328 226.10156 C 84.447178 226.15966 82.654587 226.46676 80.617188 227.12891 C 78.926449 227.67834 76.988122 228.61339 75.566406 229.56836 C 72.606059 231.55686 70.054189 234.43879 68.498047 237.56055 C 67.44216 239.67874 66.782924 241.73662 66.431641 244.02734 C 66.241469 245.26742 66.203654 247.651 66.34375 248.97266 C 66.61516 251.53292 67.283119 253.83378 68.474609 256.32227 C 68.904975 257.2211 69.630575 258.36496 70.388672 259.35742 C 72.323826 261.89095 74.819753 263.93178 77.716797 265.35352 C 79.699167 266.32637 82.362733 267.06813 84.556641 267.25977 C 85.410731 267.33482 86.929028 267.33703 87.779297 267.26367 C 90.328588 267.0447 93.286362 266.32128 95.398438 265.39062 C 96.928639 264.71635 98.823024 263.48852 100.16406 262.31055 C 100.57242 261.95185 101.11996 261.41798 101.61523 260.9082 C 102.1098 260.39913 102.52075 259.96592 102.74805 259.64453 C 102.84638 259.50545 103.07647 259.18185 103.25391 258.93555 C 103.53676 258.54289 103.77903 258.18002 103.95898 257.87695 C 104.04877 257.72575 104.12357 257.59111 104.18359 257.46289 C 104.23468 257.35385 104.31641 257.25369 104.31641 256.96094 C 104.31641 256.75241 104.22514 256.52186 104.06055 256.33203 C 104.35501 255.68966 104.72999 254.8084 104.91602 254.25 C 105.40302 252.78808 105.6658 251.3175 105.7793 249.44727 C 105.8149 248.8607 105.83803 248.51347 105.78711 248.17969 C 105.76144 248.0114 105.70626 247.81057 105.55664 247.62891 C 105.40312 247.44258 105.19066 247.34812 105.04102 247.31055 C 104.82848 247.25723 104.53777 247.27893 104.31055 247.42969 C 104.09156 247.57519 103.98466 247.77545 103.92188 247.94336 C 103.79713 248.27686 103.78103 248.61369 103.77734 249.05859 C 103.76686 250.33068 103.19284 252.8482 102.48438 254.54297 C 102.37692 254.79999 102.12383 255.34125 101.88477 255.82422 C 101.76539 256.06539 101.64593 256.29536 101.55078 256.47656 C 101.5037 256.56626 101.45783 256.64852 101.42383 256.70898 C 101.40683 256.73922 101.39211 256.76491 101.38281 256.78125 C 101.38141 256.78372 101.38205 256.78501 101.38086 256.78711 C 101.3793 256.78986 101.37622 256.79081 101.375 256.79297 A 0.094505998 0.094505998 0 0 0 101.375 256.79688 C 101.375 256.79688 101.37305 256.79883 101.37305 256.79883 C 101.37182 256.80102 101.37099 256.80304 101.36914 256.80664 C 101.36868 256.80754 101.36723 256.81045 101.36719 256.81055 C 101.29394 256.91805 101.07988 257.24039 100.84961 257.58984 C 100.29593 258.43009 99.796965 259.04524 98.898438 259.99219 C 97.434268 261.53519 95.81219 262.708 93.880859 263.62305 C 92.77893 264.14513 91.886752 264.44203 90.648438 264.69531 C 88.288858 265.17802 86.287753 265.1851 83.851562 264.71875 C 80.198612 264.01965 76.584821 261.89469 74.105469 258.97656 C 73.539176 258.31004 72.661056 257.08555 72.412109 256.64453 C 71.826923 255.60791 71.653634 255.27478 71.375 254.6543 C 70.818537 253.41506 70.36602 251.9023 70.125 250.47266 C 69.625853 247.51183 69.868635 244.51625 70.837891 241.70117 C 71.126263 240.86362 71.80831 239.36278 72.148438 238.79102 C 72.222301 238.66685 72.288429 238.5523 72.339844 238.46094 C 72.365829 238.41473 72.387842 238.37304 72.40625 238.33789 C 72.415261 238.32066 72.424038 238.30404 72.435547 238.2793 C 72.440143 238.2693 72.44449 238.25805 72.449219 238.24609 C 72.461491 238.22542 72.479829 238.19215 72.509766 238.14648 C 72.576152 238.04517 72.676152 237.89974 72.789062 237.74023 C 73.014564 237.42169 73.2984 237.0411 73.486328 236.80664 C 73.990283 236.1779 75.370106 234.79401 75.994141 234.29102 C 78.645726 232.15353 81.711919 230.85347 85.152344 230.41211 C 85.886964 230.31797 88.79533 230.33491 89.523438 230.4375 C 91.92671 230.77634 94.02377 231.48332 96.146484 232.67383 C 97.49021 233.42746 98.276211 234.00522 99.582031 235.19922 C 100.66659 236.19089 101.14097 236.72119 102.0625 237.98633 C 103.93386 240.55538 105.20059 243.82419 105.57031 247.03516 C 105.59004 247.20652 105.61195 247.37407 105.63477 247.51562 C 105.65581 247.64678 105.64669 247.70111 105.72461 247.9082 C 105.82897 248.18532 105.99703 248.33531 106.16992 248.44922 C 106.24982 248.50188 106.35264 248.57752 106.49219 248.61719 C 106.63174 248.65685 106.80547 248.65639 107.01953 248.57422 C 107.20052 248.50472 107.3736 248.35995 107.47266 248.19141 C 107.56712 248.03079 107.59719 247.87717 107.61328 247.74219 C 107.64567 247.47051 107.62296 247.20128 107.58008 246.83594 C 107.36759 245.02899 106.92968 243.27868 106.25586 241.53516 C 105.51252 239.61191 104.5681 237.96723 103.3125 236.33398 C 103.4595 236.29875 103.59403 236.24853 103.69727 236.16016 C 103.84331 236.03514 104.03516 235.83891 104.03516 235.4668 C 104.03516 235.28751 103.99098 235.2058 103.97656 235.16992 C 103.95488 235.11572 103.93385 235.07176 103.91211 235.03125 C 103.86873 234.95075 103.82085 234.8747 103.76367 234.78711 C 103.64886 234.61125 103.49757 234.39839 103.32617 234.16797 C 102.98329 233.70705 102.55548 233.17252 102.17969 232.74805 C 101.09581 231.52391 99.313674 230.02837 97.9375 229.18945 C 94.32363 226.98648 90.685395 225.99202 86.611328 226.10156 z "
       style="opacity:1;fill:#fff201;fill-opacity:1;stroke:none;stroke-width:2.07023644;stroke-miterlimit:4;stroke-dasharray:none;stroke-opacity:1"
       id="path1189-2"
       d="m 86.611328,226.10156 c -2.16415,0.0581 -3.956741,0.3652 -5.99414,1.02735 -1.690739,0.54943 -3.629066,1.48448 -5.050782,2.43945 -2.960347,1.9885 -5.512217,4.87043 -7.068359,7.99219 -1.055887,2.11819 -1.715123,4.17607 -2.066406,6.46679 -0.190172,1.24008 -0.227987,3.62366 -0.08789,4.94532 0.27141,2.56026 0.939369,4.86112 2.130859,7.34961 0.430366,0.89883 1.155966,2.04269 1.914063,3.03515 1.935154,2.53353 4.431081,4.57436 7.328125,5.9961 1.98237,0.97285 4.645936,1.71461 6.839844,1.90625 0.85409,0.075 2.372387,0.0773 3.222656,0.004 2.549291,-0.21897 5.507065,-0.94239 7.619141,-1.87305 1.530201,-0.67427 3.424586,-1.9021 4.765622,-3.08007 0.40836,-0.3587 0.9559,-0.89257 1.45117,-1.40235 0.49457,-0.50907 0.90552,-0.94228 1.13282,-1.26367 0.0983,-0.13908 0.32842,-0.46268 0.50586,-0.70898 0.28285,-0.39266 0.52512,-0.75553 0.70507,-1.0586 0.0898,-0.1512 0.16459,-0.28584 0.22461,-0.41406 0.0511,-0.10904 0.13282,-0.2092 0.13282,-0.50195 0,-0.20853 -0.0913,-0.43908 -0.25586,-0.62891 0.29446,-0.64237 0.66944,-1.52363 0.85547,-2.08203 0.487,-1.46192 0.74978,-2.9325 0.86328,-4.80273 0.0356,-0.58657 0.0587,-0.9338 0.008,-1.26758 -0.0257,-0.16829 -0.0808,-0.36912 -0.23047,-0.55078 -0.15352,-0.18633 -0.36598,-0.28079 -0.51562,-0.31836 -0.21254,-0.0533 -0.50325,-0.0316 -0.73047,0.11914 -0.21899,0.1455 -0.32589,0.34576 -0.38867,0.51367 -0.12475,0.3335 -0.14085,0.67033 -0.14454,1.11523 -0.0105,1.27209 -0.5845,3.78961 -1.29296,5.48438 -0.10746,0.25702 -0.36055,0.79828 -0.59961,1.28125 -0.11938,0.24117 -0.23884,0.47114 -0.33399,0.65234 -0.0471,0.0897 -0.093,0.17196 -0.12695,0.23242 -0.017,0.0302 -0.0317,0.0559 -0.041,0.0723 -0.001,0.002 -7.6e-4,0.004 -0.002,0.006 -0.002,0.003 -0.005,0.004 -0.006,0.006 a 0.094506,0.094506 0 0 0 0,0.004 c 0,0 -0.002,0.002 -0.002,0.002 -0.001,0.002 -0.002,0.004 -0.004,0.008 -4.6e-4,9e-4 -0.002,0.004 -0.002,0.004 -0.0732,0.1075 -0.28731,0.42984 -0.51758,0.77929 -0.55368,0.84025 -1.052645,1.4554 -1.951172,2.40235 -1.46417,1.543 -3.086248,2.71581 -5.017579,3.63086 -1.101929,0.52208 -1.994107,0.81898 -3.232421,1.07226 -2.35958,0.48271 -4.360685,0.48979 -6.796876,0.0234 -3.65295,-0.6991 -7.266741,-2.82406 -9.746093,-5.74219 -0.566293,-0.66652 -1.444413,-1.89101 -1.69336,-2.33203 -0.585186,-1.03662 -0.758475,-1.36975 -1.037109,-1.99023 -0.556463,-1.23924 -1.00898,-2.752 -1.25,-4.18164 -0.499147,-2.96083 -0.256365,-5.95641 0.712891,-8.77149 0.288372,-0.83755 0.970419,-2.33839 1.310547,-2.91015 0.07386,-0.12417 0.139991,-0.23872 0.191406,-0.33008 0.02599,-0.0462 0.048,-0.0879 0.06641,-0.12305 0.009,-0.0172 0.01779,-0.0339 0.0293,-0.0586 0.0046,-0.01 0.0089,-0.0213 0.01367,-0.0332 0.01227,-0.0207 0.03061,-0.0539 0.06055,-0.0996 0.06639,-0.10131 0.166386,-0.24674 0.279296,-0.40625 0.225502,-0.31854 0.509338,-0.69913 0.697266,-0.93359 0.503955,-0.62874 1.883778,-2.01263 2.507813,-2.51562 2.651585,-2.13749 5.717778,-3.43755 9.158203,-3.87891 0.73462,-0.0941 3.642986,-0.0772 4.371094,0.0254 2.403272,0.33884 4.500332,1.04582 6.623046,2.23633 1.343726,0.75363 2.129727,1.33139 3.435547,2.52539 1.084559,0.99167 1.558939,1.52197 2.480469,2.78711 1.87136,2.56905 3.13809,5.83786 3.50781,9.04883 0.0197,0.17136 0.0416,0.33891 0.0645,0.48046 0.021,0.13116 0.0119,0.18549 0.0898,0.39258 0.10436,0.27712 0.27242,0.42711 0.44531,0.54102 0.0799,0.0527 0.18272,0.1283 0.32227,0.16797 0.13955,0.0397 0.31328,0.0392 0.52734,-0.043 0.18099,-0.0695 0.35407,-0.21427 0.45313,-0.38281 0.0945,-0.16062 0.12453,-0.31424 0.14062,-0.44922 0.0324,-0.27168 0.01,-0.54091 -0.0332,-0.90625 -0.21249,-1.80695 -0.6504,-3.55726 -1.32422,-5.30078 -0.74334,-1.92325 -1.68776,-3.56793 -2.94336,-5.20118 0.147,-0.0352 0.28153,-0.0855 0.38477,-0.17382 0.14604,-0.12502 0.33789,-0.32125 0.33789,-0.69336 0,-0.17929 -0.0442,-0.261 -0.0586,-0.29688 -0.0217,-0.0542 -0.0427,-0.0982 -0.0645,-0.13867 -0.0434,-0.0805 -0.0913,-0.15655 -0.14844,-0.24414 -0.11481,-0.17586 -0.2661,-0.38872 -0.4375,-0.61914 -0.34288,-0.46092 -0.77069,-0.99545 -1.14648,-1.41992 -1.08388,-1.22414 -2.866016,-2.71968 -4.24219,-3.5586 -3.61387,-2.20297 -7.252105,-3.19743 -11.326172,-3.08789 z" />
    <ellipse
       style="opacity:1;fill:#ffffff;fill-opacity:1;stroke:none;stroke-width:2.24090719;stroke-linecap:round;stroke-miterlimit:4;stroke-dasharray:none;stroke-opacity:1"
       id="path1244"
       cx="-202.02538"
       cy="-47.470661"
       rx="2.4632151"
       ry="2.1895244"
       transform="rotate(-112.89167)" />
    <ellipse
       style="opacity:1;fill:#ffffff;fill-opacity:1;stroke:none;stroke-width:2.24090719;stroke-linecap:round;stroke-miterlimit:4;stroke-dasharray:none;stroke-opacity:1"
       id="path1244-4"
       cx="199.7494"
       cy="20.570564"
       rx="2.4632151"
       ry="2.1895244"
       transform="rotate(65.877375)" />
    <ellipse
       style="opacity:1;fill:#ffffff;fill-opacity:1;stroke:none;stroke-width:2.24090719;stroke-linecap:round;stroke-miterlimit:4;stroke-dasharray:none;stroke-opacity:1"
       id="path1244-7"
       cx="-160.16414"
       cy="150.24873"
       rx="2.4632151"
       ry="2.1895244"
       transform="rotate(-69.790395)" />
    <ellipse
       style="opacity:1;fill:#ffffff;fill-opacity:1;stroke:none;stroke-width:2.24090719;stroke-linecap:round;stroke-miterlimit:4;stroke-dasharray:none;stroke-opacity:1"
       id="path1244-8"
       cx="54.285927"
       cy="213.70288"
       rx="2.4632151"
       ry="2.1895244" />
    <ellipse
       style="opacity:1;fill:#ffffff;fill-opacity:1;stroke:none;stroke-width:2.24090719;stroke-linecap:round;stroke-miterlimit:4;stroke-dasharray:none;stroke-opacity:1"
       id="path1244-45"
       cx="31.113457"
       cy="228.48219"
       rx="2.4632151"
       ry="2.1895244" />
    <ellipse
       style="opacity:1;fill:#ffffff;fill-opacity:1;stroke:none;stroke-width:2.24090719;stroke-linecap:round;stroke-miterlimit:4;stroke-dasharray:none;stroke-opacity:1"
       id="path1244-0"
       cx="162.33646"
       cy="179.32451"
       rx="2.4632151"
       ry="2.1895244"
       transform="rotate(30.467391)" />
    <ellipse
       style="opacity:1;fill:#ffffff;fill-opacity:1;stroke:none;stroke-width:2.24090719;stroke-linecap:round;stroke-miterlimit:4;stroke-dasharray:none;stroke-opacity:1"
       id="path1244-3"
       cx="237.40855"
       cy="-99.976715"
       rx="2.4632151"
       ry="2.1895244"
       transform="rotate(105.49055)" />
    <ellipse
       style="opacity:1;fill:#ffffff;fill-opacity:1;stroke:none;stroke-width:2.24090719;stroke-linecap:round;stroke-miterlimit:4;stroke-dasharray:none;stroke-opacity:1"
       id="path1244-6"
       cx="-98.011948"
       cy="242.55876"
       rx="2.4632151"
       ry="2.1895244"
       transform="rotate(-33.856067)" />
    <ellipse
       style="opacity:1;fill:#ffffff;fill-opacity:1;stroke:none;stroke-width:2.24090719;stroke-linecap:round;stroke-miterlimit:4;stroke-dasharray:none;stroke-opacity:1"
       id="path1244-1"
       cx="71.984581"
       cy="277.38156"
       rx="2.4632151"
       ry="2.1895244" />
    <ellipse
       style="opacity:1;fill:#fff201;fill-opacity:1;stroke:none;stroke-width:2.24090719;stroke-linecap:round;stroke-miterlimit:4;stroke-dasharray:none;stroke-opacity:1"
       id="path1244-06"
       cx="85.166"
       cy="244.21803"
       rx="2.4632151"
       ry="2.1895244" />
    <ellipse
       style="opacity:1;fill:#ffffff;fill-opacity:1;stroke:none;stroke-width:2.24090719;stroke-linecap:round;stroke-miterlimit:4;stroke-dasharray:none;stroke-opacity:1"
       id="path1244-32"
       cx="238.78955"
       cy="-0.4976846"
       rx="2.4632151"
       ry="2.1895244"
       transform="rotate(64.517415)" />
    <ellipse
       style="opacity:1;fill:#ffffff;fill-opacity:1;stroke:none;stroke-width:2.24090719;stroke-linecap:round;stroke-miterlimit:4;stroke-dasharray:none;stroke-opacity:1"
       id="path1244-061"
       cx="71.802124"
       cy="219.17668"
       rx="2.4632151"
       ry="2.1895244" />
    <ellipse
       style="opacity:1;fill:#ffffff;fill-opacity:1;stroke:none;stroke-width:2.24090719;stroke-linecap:round;stroke-miterlimit:4;stroke-dasharray:none;stroke-opacity:1"
       id="path1244-5"
       cx="122.25737"
       cy="-152.23061"
       rx="2.4632151"
       ry="2.1895244"
       transform="rotate(128.13248)" />
    <ellipse
       style="opacity:1;fill:#ffffff;fill-opacity:1;stroke:none;stroke-width:2.24090719;stroke-linecap:round;stroke-miterlimit:4;stroke-dasharray:none;stroke-opacity:1"
       id="path1244-54"
       cx="214.31024"
       cy="63.801662"
       rx="2.4632151"
       ry="2.1895244"
       transform="rotate(69.232234)" />
    <ellipse
       style="opacity:1;fill:#ffffff;fill-opacity:1;stroke:none;stroke-width:2.24090719;stroke-linecap:round;stroke-miterlimit:4;stroke-dasharray:none;stroke-opacity:1"
       id="path1244-76"
       cx="47.717346"
       cy="272.63757"
       rx="2.4632151"
       ry="2.1895244" />
    <ellipse
       style="opacity:1;fill:#ffffff;fill-opacity:1;stroke:none;stroke-width:2.24090719;stroke-linecap:round;stroke-miterlimit:4;stroke-dasharray:none;stroke-opacity:1"
       id="path1244-56"
       cx="229.65221"
       cy="-80.548805"
       rx="2.4632151"
       ry="2.1895244"
       transform="rotate(104.57489)" />
    <path
       style="opacity:1;fill:#000000;fill-opacity:1;stroke:none;stroke-width:2.80328083;stroke-miterlimit:4;stroke-dasharray:none;stroke-opacity:1"
       d="m -126.87278,97.414782 c -5.66164,-0.40552 -11.52168,-1.53357 -16.42144,-3.1612 -7.98962,-2.65403 -15.32685,-6.69435 -21.62155,-11.90623 -4.44551,-3.68075 -9.13066,-8.78978 -12.12473,-13.22166 -0.96306,-1.42554 -1.1144,-2.02241 -0.63446,-2.50234 0.46183,-0.46184 0.81876,-0.34049 1.70599,0.57998 0.56193,0.58294 0.71807,0.68749 0.47693,0.31929 -6.45482,-9.85611 -10.30417,-22.40874 -10.31356,-33.63235 -0.002,-2.24371 -0.001,-2.25047 0.53146,-2.78251 0.29334,-0.29336 0.46751,-0.53335 0.38706,-0.53335 -0.0805,0 -0.25402,-0.2601 -0.38569,-0.57796 -0.30209,-0.72931 0.007,-6.27478 0.55876,-10.01523 1.22301,-8.29532 4.67946,-17.4505102 9.15789,-24.2567602 4.00098,-6.0806198 7.54398,-10.0502198 13.32312,-14.9273098 0.97376,-0.82178 1.81037,-1.49412 1.85913,-1.49412 0.0488,0 0.72178,-0.45426 1.49558,-1.00941 3.16894,-2.27361 7.92578,-4.9599 11.47042,-6.47761 7.15049,-3.06156 16.98782,-5.20672 25.55274,-5.57205 6.19127,-0.2641 14.2932,0.82225 20.43557,2.74008 8.153168,2.54569 11.60457,4.28151 19.794294,9.95529 3.48282,2.41284 9.30136,8.25364 12.5406,12.5885398 3.61138,4.83292 5.71831,8.43370003 7.89135,13.48651 2.66784,6.2033302 4.26284,12.1968502 5.15115,19.3563502 0.35649,2.87324 0.29829,11.50887 -0.0978,14.50562 -1.57583,11.92337 -6.10694,22.97017 -13.14583,32.0493 -3.57927,4.61675 -4.49835,5.60514 -8.77887,9.44124 -5.25291,4.70751 -10.774617,8.22872 -18.036612,11.50195 -5.761362,2.59685 -10.241732,3.88429 -17.178242,4.93617 -4.31837,0.65483 -9.63467,0.89333 -13.5933,0.60977 z m 9.57917,-5.54376 c 6.30301,-0.54335 11.49629,-1.77013 17.867056,-4.22069 5.381932,-2.07017 9.675019,-4.59558 15.979348,-9.39993 1.54186,-1.17503 5.9126,-5.46232 7.68137,-7.53474 0.64238,-0.75262 1.22094,-1.4095 1.28569,-1.45968 0.27456,-0.21272 3.20539,-4.22403 3.55437,-4.86469 0.20982,-0.38517 0.98152,-1.68562 1.71491,-2.88987 4.07144,-6.68542 6.68537,-14.40318 7.50841,-22.16894 0.31963,-3.01586 0.31816,-11.84155 -0.002,-14.59682 -0.64767,-5.56636 -1.63006,-9.56665 -3.5847,-14.59683 -0.90651,-2.3328302 -2.9107,-6.5685702 -3.10801,-6.5685702 -0.0504,0 0.28583,0.75136 0.74707,1.66974 2.5767,5.1305402 4.64419,12.1825502 5.45343,18.6011402 0.39533,3.13553 0.40002,11.80417 0.008,14.85597 -0.85677,6.6708 -2.60838,12.6822 -5.37209,18.43674 -0.67777,1.41124 -1.62288,3.2093 -2.10023,3.99568 -0.47735,0.78635 -1.03255,1.72541 -1.23379,2.08679 -1.83134,3.28889 -7.14372,9.47898 -11.27698,13.14015 -2.09706,1.85751 -5.799178,4.54452 -8.907238,6.46487 -6.315385,3.90208 -14.570906,6.72778 -23.021216,7.8797 -2.98115,0.4064 -9.7702,0.55194 -12.98118,0.27836 -8.31054,-0.70815 -17.09428,-3.32159 -23.78459,-7.07669 -3.63293,-2.03904 -8.4457,-5.29308 -10.48353,-7.0882 -1.85893,-1.63748 -5.4821,-5.04198 -5.48657,-5.15542 -0.003,-0.0673 -0.54129,-0.68705 -1.19697,-1.37724 -1.48552,-1.56372 -3.40819,-4.09306 -5.36113,-7.0527 -1.76082,-2.66847 -1.85555,-2.78436 -1.18852,-1.45404 1.29625,2.58525 4.03966,6.75044 6.2828,9.53883 2.22926,2.7711 6.90865,6.95681 10.84732,9.70286 3.40984,2.37738 8.20401,5.06193 10.7832,6.03823 8.66007,3.27804 12.14792,4.11637 20.34433,4.88985 1.52696,0.14409 7.02508,0.0991 9.03179,-0.0739 z m 3.19305,-3.25705 c 9.61179,-1.41582 16.777454,-4.1462 24.758775,-9.43399 9.813439,-6.5016 17.149939,-15.57286 21.454849,-26.52787 3.72148,-9.47036 4.9326,-20.21005 3.40691,-30.21112 -1.42645,-9.35057 -5.61153,-19.1076502 -11.34668,-26.4535902 -1.8003,-2.30594 -4.42426,-5.33108 -5.50544,-6.3472198 -8.024893,-7.54194 -15.835094,-12.00191 -25.743684,-14.70079 -5.66595,-1.54331 -10.75753,-2.12704 -17.15128,-1.96644 -7.4171,0.18631 -13.44552,1.40872 -19.95816,4.04698 -3.09567,1.25409 -6.75915,3.0006 -7.86704,3.75053 -0.25089,0.16982 -1.15407,0.74361 -2.00707,1.27511 -0.853,0.53151 -2.45409,1.63629 -3.55798,2.45507 -5.58734,4.14436 -9.07877,7.8486698 -13.10448,13.9034898 -1.98744,2.98919 -2.05598,3.06784 -2.67395,3.06784 -0.53087,0 -0.66362,-0.0836 -0.81469,-0.51320997 -0.14525,-0.41302 -0.10151,-0.6623 0.22419,-1.2772 0.22257,-0.42022 0.40443,-0.93240003 0.40416,-1.13820003 -0.001,-0.34609 2.99046,-5.46672 3.57323,-6.11756 0.14186,-0.15841 0.25793,-0.34864 0.25793,-0.42271 0,-0.074 0.21563,-0.43706 0.47918,-0.8067 l 0.47918,-0.67206 -0.5248,0.57263 c -1.04422,1.13943 -4.35784,5.88852 -5.7325,8.21585003 -4.95284,8.38535997 -8.19302,19.60229017 -8.20582,28.40716017 -0.003,1.99634 -0.18933,2.62072 -0.88624,2.96817 -0.37722,0.18808 -0.39099,0.23153 -0.12115,0.38254 0.41406,0.23171 0.6356,1.30598 0.64081,3.10731 0.004,1.46524 0.21426,1.96527 0.44288,1.0544 0.3069,-1.22279 1.62796,-0.87073 1.83652,0.48941 0.7008,4.57047 1.12553,6.52615 2.30046,10.59265 1.00273,3.47049 1.70665,5.23492 3.72947,9.34825 1.79166,3.64321 4.77877,8.37888 7.18914,11.39743 1.73825,2.17681 6.64406,7.06993 8.93889,8.91574 2.85903,2.29962 7.31416,5.13801 10.78158,6.86898 6.63349,3.31149 13.30179,5.21052 21.16566,6.02762 3.39571,0.35281 9.84898,0.22583 13.13715,-0.2585 z m 26.639227,-109.03725 c -0.124931,-0.15053 -0.3149,-0.27369 -0.422146,-0.27369 -0.107246,0 -0.03561,0.12056 0.159189,0.26789 0.457698,0.34618 0.547082,0.34816 0.262957,0.006 z m -1.094772,-0.64531 c -1.375056,-1.09577 -5.849239,-3.55551 -9.305473,-5.11579 -10.923252,-4.93125 -25.647852,-6.37278 -37.111462,-3.63313 -5.60889,1.34041 -11.95308,4.14361 -17.07511,7.54464 -1.33996,0.88974 -1.03778,0.8456 0.45152,-0.066 5.79197,-3.54511 14.89133,-6.58642 22.07817,-7.37933 1.40495,-0.155 2.98918,-0.3298 3.52052,-0.38844 0.53134,-0.0586 2.78928,-0.10442 5.01766,-0.10176 4.35814,0.005 9.08853,0.42982 12.45654,1.11807 3.368,0.68821 7.89184,2.10256 10.844624,3.39047 2.197068,0.95832 7.198389,3.52596 8.301937,4.26216 1.177579,0.7856 1.558835,0.95696 0.821074,0.36906 z"
       id="path1172-9-6"
       inkscape:connector-curvature="0" />
    <path
       style="opacity:1;fill:#fff201;fill-opacity:1;stroke:none;stroke-width:2.07023644;stroke-miterlimit:4;stroke-dasharray:none;stroke-opacity:1"
       d="m -100.33763,27.209742 c -2.15662,0.0579 -3.93802,0.36356 -5.96814,1.02334 -1.68093,0.54625 -3.61509,1.47869 -5.02746,2.42738 -2.9461,1.97893 -5.48808,4.85261 -7.03617,7.95821 -1.05199,2.11038 -1.70616,4.15518 -2.05605,6.43681 -0.18767,1.22378 -0.22797,3.61498 -0.0893,4.92279 0.27032,2.55 0.93507,4.8377 2.12272,7.31817 0.42601,0.88974 1.14963,2.03043 1.90405,3.01807 1.92622,2.52183 4.4093,4.55339 7.29351,5.96883 1.9693,0.96644 4.62876,1.70766 6.80816,1.89803 0.84439,0.0742 2.36571,0.0755 3.206077,0.003 2.537778,-0.21798 5.489403,-0.93992 7.588182,-1.86472 1.517745,-0.66879 3.409836,-1.8938 4.742121,-3.06408 0.404771,-0.35555 0.951302,-0.89016 1.445364,-1.39869 0.49407,-0.50856 0.90414,-0.9434 1.12336,-1.25337 0.0989,-0.13988 0.32914,-0.46091 0.50668,-0.70736 0.28154,-0.39083 0.52202,-0.75426 0.70002,-1.05403 0.089,-0.14988 0.16204,-0.28287 0.22,-0.40667 0.058,-0.1238 0.12534,-0.18245 0.12534,-0.45999 0,-0.20092 -0.0889,-0.44289 -0.268,-0.62138 0.29603,-0.64279 0.68526,-1.55543 0.87268,-2.11803 0.48423,-1.4536 0.74488,-2.91639 0.85802,-4.78079 0.0356,-0.58661 0.0568,-0.92815 0.008,-1.24801 -0.0244,-0.15996 -0.0734,-0.33978 -0.20868,-0.50403 -0.13533,-0.16426 -0.33424,-0.25276 -0.46668,-0.28601 -0.18496,-0.0464 -0.45618,-0.0266 -0.65401,0.10465 -0.19784,0.13146 -0.29417,0.31046 -0.35334,0.4687 -0.11837,0.31649 -0.13501,0.63978 -0.13868,1.0827 -0.0107,1.29891 -0.58577,3.81221 -1.30002,5.52079 -0.10973,0.26249 -0.36372,0.80058 -0.60336,1.28471 -0.11981,0.24204 -0.23723,0.47358 -0.33267,0.65534 -0.0954,0.18177 -0.18832,0.33858 -0.18201,0.32933 -0.0675,0.0987 -0.2919,0.43742 -0.526014,0.7927 -0.5564,0.84437 -1.059474,1.46496 -1.960041,2.41406 -1.471684,1.55092 -3.104349,2.73374 -5.045464,3.65342 -1.107329,0.52464 -2.01031,0.82427 -3.254076,1.07867 -2.36968,0.48477 -4.387659,0.4928 -6.833499,0.0246 -3.67635,-0.70358 -7.30823,-2.84078 -9.80223,-5.77615 -0.5719,-0.67312 -1.4435,-1.88601 -1.70204,-2.34402 -0.58553,-1.03723 -0.76257,-1.3764 -1.04203,-1.99873 -0.56037,-1.24794 -1.0156,-2.76678 -1.25803,-4.20478 -0.50172,-2.97609 -0.25571,-5.98887 0.71869,-8.81887 0.2919,-0.84782 0.96868,-2.34126 1.31736,-2.92741 0.0737,-0.12387 0.13997,-0.23925 0.19067,-0.32933 0.0254,-0.0451 0.0465,-0.0826 0.0647,-0.11735 0.009,-0.0174 0.0173,-0.0331 0.028,-0.056 0.005,-0.01 0.0107,-0.0232 0.018,-0.042 0.0124,-0.0208 0.0337,-0.056 0.0647,-0.10332 0.0676,-0.10323 0.16809,-0.24935 0.28134,-0.40934 0.22652,-0.31997 0.50851,-0.70077 0.69869,-0.93804 0.51402,-0.64131 1.88607,-2.01754 2.52272,-2.53071 2.66474,-2.14809 5.74893,-3.45533 9.20556,-3.89877 0.7655,-0.0981 3.637395,-0.0811 4.396768,0.0259 2.413775,0.34032 4.523534,1.05304 6.655493,2.24873 1.347999,0.75603 2.144147,1.34085 3.452749,2.5374 1.086901,0.99382 1.568844,1.53531 2.492054,2.80275 1.88184,2.58344 3.15507,5.86213 3.52676,9.09021 0.0196,0.17021 0.0422,0.33774 0.0647,0.47735 0.0224,0.13958 0.008,0.17453 0.0833,0.37466 0.0969,0.2573 0.24495,0.38681 0.41067,0.49601 0.16573,0.10922 0.36558,0.2687 0.76336,0.11602 0.15626,-0.06 0.31747,-0.19726 0.40334,-0.34335 0.0859,-0.14607 0.11522,-0.28373 0.13067,-0.41334 0.0309,-0.25922 0.008,-0.51823 -0.0347,-0.88202 -0.21156,-1.79905 -0.64758,-3.54296 -1.31869,-5.27947 -0.75789,-1.96089 -1.71849,-3.62778 -3.01474,-5.29346 0.20031,-0.027 0.36598,-0.0864 0.48467,-0.18801 0.14256,-0.12203 0.30534,-0.27706 0.30534,-0.61933 0,-0.16705 -0.0337,-0.21282 -0.054,-0.26334 -0.0202,-0.0505 -0.0393,-0.0888 -0.06,-0.12736 -0.0415,-0.077 -0.0888,-0.15336 -0.14535,-0.23999 -0.11309,-0.17323 -0.26199,-0.38258 -0.43267,-0.61203 -0.34135,-0.45886 -0.76679,-0.99313 -1.14002,-1.41469 -1.075052,-1.21418 -2.857034,-2.70967 -4.221442,-3.54142 -3.60062,-2.19489 -7.217709,-3.18314 -11.274932,-3.07405 z m -11.58428,6.19947 c -0.43199,0.36449 -0.88561,0.72724 -1.2447,1.094 -0.35572,0.36336 -0.57262,0.62841 -0.83535,0.92139 0.61188,-0.69934 1.30381,-1.37308 2.08005,-2.01539 z m -2.80407,2.84205 c -0.1039,0.13207 -0.22906,0.32687 -0.33334,0.46869 0.0798,-0.11076 0.15998,-0.25791 0.23734,-0.35936 0.0306,-0.0401 0.0653,-0.0697 0.096,-0.10933 z m -1.5607,2.33139 c -0.0283,0.0453 -0.0476,0.088 -0.0747,0.132 0.0298,-0.0513 0.0441,-0.0801 0.0747,-0.132 z"
       id="path1189-2-0"
       inkscape:connector-curvature="0"
       sodipodi:nodetypes="ccccccccccccccccsssccccsccscccscccscccccccccccccscccccccsccccccccccsccccccccccccccccccc" />
    <ellipse
       style="opacity:1;fill:#000000;fill-opacity:1;stroke:none;stroke-width:2.24090719;stroke-linecap:round;stroke-miterlimit:4;stroke-dasharray:none;stroke-opacity:1"
       id="path1244-62"
       cx="-152.09776"
       cy="5.5943174"
       rx="2.4632151"
       ry="2.1895244" />
    <ellipse
       style="opacity:1;fill:#000000;fill-opacity:1;stroke:none;stroke-width:2.24090719;stroke-linecap:round;stroke-miterlimit:4;stroke-dasharray:none;stroke-opacity:1"
       id="path1244-4-6"
       cx="-124.0901"
       cy="-8.272687"
       rx="2.4632151"
       ry="2.1895244" />
    <ellipse
       style="opacity:1;fill:#000000;fill-opacity:1;stroke:none;stroke-width:2.24090719;stroke-linecap:round;stroke-miterlimit:4;stroke-dasharray:none;stroke-opacity:1"
       id="path1244-7-1"
       cx="-101.28255"
       cy="3.2223539"
       rx="2.4632151"
       ry="2.1895244" />
    <ellipse
       style="opacity:1;fill:#000000;fill-opacity:1;stroke:none;stroke-width:2.24090719;stroke-linecap:round;stroke-miterlimit:4;stroke-dasharray:none;stroke-opacity:1"
       id="path1244-8-8"
       cx="-132.66573"
       cy="14.717334"
       rx="2.4632151"
       ry="2.1895244" />
    <ellipse
       style="opacity:1;fill:#000000;fill-opacity:1;stroke:none;stroke-width:2.24090719;stroke-linecap:round;stroke-miterlimit:4;stroke-dasharray:none;stroke-opacity:1"
       id="path1244-45-7"
       cx="-155.8382"
       cy="29.496647"
       rx="2.4632151"
       ry="2.1895244" />
    <ellipse
       style="opacity:1;fill:#000000;fill-opacity:1;stroke:none;stroke-width:2.24090719;stroke-linecap:round;stroke-miterlimit:4;stroke-dasharray:none;stroke-opacity:1"
       id="path1244-0-9"
       cx="-137.95708"
       cy="37.889805"
       rx="2.4632151"
       ry="2.1895244" />
    <ellipse
       style="opacity:1;fill:#000000;fill-opacity:1;stroke:none;stroke-width:2.24090719;stroke-linecap:round;stroke-miterlimit:4;stroke-dasharray:none;stroke-opacity:1"
       id="path1244-3-2"
       cx="-154.01361"
       cy="56.500751"
       rx="2.4632151"
       ry="2.1895244" />
    <ellipse
       style="opacity:1;fill:#000000;fill-opacity:1;stroke:none;stroke-width:2.24090719;stroke-linecap:round;stroke-miterlimit:4;stroke-dasharray:none;stroke-opacity:1"
       id="path1244-6-0"
       cx="-133.21312"
       cy="57.048191"
       rx="2.4632151"
       ry="2.1895244" />
    <ellipse
       style="opacity:1;fill:#000000;fill-opacity:1;stroke:none;stroke-width:2.24090719;stroke-linecap:round;stroke-miterlimit:4;stroke-dasharray:none;stroke-opacity:1"
       id="path1244-1-2"
       cx="-114.96708"
       cy="78.396027"
       rx="2.4632151"
       ry="2.1895244" />
    <ellipse
       style="opacity:1;fill:#fff201;fill-opacity:1;stroke:none;stroke-width:2.24090719;stroke-linecap:round;stroke-miterlimit:4;stroke-dasharray:none;stroke-opacity:1"
       id="path1244-06-3"
       cx="-101.78565"
       cy="45.232487"
       rx="2.4632151"
       ry="2.1895244" />
    <ellipse
       style="opacity:1;fill:#000000;fill-opacity:1;stroke:none;stroke-width:2.24090719;stroke-linecap:round;stroke-miterlimit:4;stroke-dasharray:none;stroke-opacity:1"
       id="path1244-32-7"
       cx="-83.766357"
       cy="16.359501"
       rx="2.4632151"
       ry="2.1895244" />
    <ellipse
       style="opacity:1;fill:#000000;fill-opacity:1;stroke:none;stroke-width:2.24090719;stroke-linecap:round;stroke-miterlimit:4;stroke-dasharray:none;stroke-opacity:1"
       id="path1244-061-5"
       cx="-115.14954"
       cy="20.191135"
       rx="2.4632151"
       ry="2.1895244" />
    <ellipse
       style="opacity:1;fill:#000000;fill-opacity:1;stroke:none;stroke-width:2.24090719;stroke-linecap:round;stroke-miterlimit:4;stroke-dasharray:none;stroke-opacity:1"
       id="path1244-5-9"
       cx="-142.70105"
       cy="-8.8200808"
       rx="2.4632151"
       ry="2.1895244" />
    <ellipse
       style="opacity:1;fill:#000000;fill-opacity:1;stroke:none;stroke-width:2.24090719;stroke-linecap:round;stroke-miterlimit:4;stroke-dasharray:none;stroke-opacity:1"
       id="path1244-54-2"
       cx="-170.61749"
       cy="24.0228"
       rx="2.4632151"
       ry="2.1895244" />
    <ellipse
       style="opacity:1;fill:#000000;fill-opacity:1;stroke:none;stroke-width:2.24090719;stroke-linecap:round;stroke-miterlimit:4;stroke-dasharray:none;stroke-opacity:1"
       id="path1244-76-2"
       cx="-139.23431"
       cy="73.652039"
       rx="2.4632151"
       ry="2.1895244" />
    <ellipse
       style="opacity:1;fill:#000000;fill-opacity:1;stroke:none;stroke-width:2.24090719;stroke-linecap:round;stroke-miterlimit:4;stroke-dasharray:none;stroke-opacity:1"
       id="path1244-56-8"
       cx="-166.78583"
       cy="43.54607"
       rx="2.4632151"
       ry="2.1895244" />
  </g>
</svg>
