<?xml version="1.0" encoding="UTF-8" standalone="no"?>
<!-- Created with Inkscape (http://www.inkscape.org/) -->

<svg
   xmlns:dc="http://purl.org/dc/elements/1.1/"
   xmlns:cc="http://creativecommons.org/ns#"
   xmlns:rdf="http://www.w3.org/1999/02/22-rdf-syntax-ns#"
   xmlns:svg="http://www.w3.org/2000/svg"
   xmlns="http://www.w3.org/2000/svg"
   xmlns:sodipodi="http://sodipodi.sourceforge.net/DTD/sodipodi-0.dtd"
   xmlns:inkscape="http://www.inkscape.org/namespaces/inkscape"
   width="180"
   height="50"
   viewBox="0 0 47.624998 13.229167"
   version="1.1"
   id="svg8"
   inkscape:version="0.92.4 (f8dce91, 2019-08-02)"
   sodipodi:docname="logo.svg">
  <defs
     id="defs2" />
  <sodipodi:namedview
     id="base"
     pagecolor="#ffffff"
     bordercolor="#666666"
     borderopacity="1.0"
     inkscape:pageopacity="0.0"
     inkscape:pageshadow="2"
     inkscape:zoom="2.8"
     inkscape:cx="64.308494"
     inkscape:cy="-4.7718259"
     inkscape:document-units="mm"
     inkscape:current-layer="layer1"
     showgrid="false"
     units="px"
     inkscape:window-width="1853"
     inkscape:window-height="1052"
     inkscape:window-x="67"
     inkscape:window-y="0"
     inkscape:window-maximized="1"
     showguides="false" />
  <metadata
     id="metadata5">
    <rdf:RDF>
      <cc:Work
         rdf:about="">
        <dc:format>image/svg+xml</dc:format>
        <dc:type
           rdf:resource="http://purl.org/dc/dcmitype/StillImage" />
        <dc:title></dc:title>
      </cc:Work>
    </rdf:RDF>
  </metadata>
  <g
     inkscape:label="Layer 1"
     inkscape:groupmode="layer"
     id="layer1"
     transform="translate(0,-283.77082)">
    <path
       style="opacity:1;fill:#ffffff;fill-opacity:1;stroke:none;stroke-width:1.85208356;stroke-miterlimit:4;stroke-dasharray:none;stroke-opacity:1"
       d="m 9.4050433,285.16107 a 5.9531249,5.9531249 0 0 0 -2.8544245,-0.729 5.9531249,5.9531249 0 0 0 -5.95295471,5.95346 5.9531249,5.9531249 0 0 0 5.95275621,5.95313 5.9531249,5.9531249 0 0 0 5.9534017,-5.9532 5.9531249,5.9531249 0 0 0 -3.0987955,-5.22433 z m 0.7100087,3.88516 a 1.7033064,1.7033064 0 0 1 0.886348,1.49511 1.7033064,1.7033064 0 0 1 -1.7029577,1.70318 1.7033064,1.7033064 0 0 1 -1.7036269,-1.70322 1.7033064,1.7033064 0 0 1 1.7036681,-1.70337 1.7033064,1.7033064 0 0 1 0.8165555,0.20834 z m -3.9596774,0.37401 a 1.2774798,1.2774798 0 0 1 0.6654649,1.12114 1.2774798,1.2774798 0 0 1 -1.2775722,1.27747 1.2774798,1.2774798 0 0 1 -1.2774763,-1.27756 1.2774798,1.2774798 0 0 1 1.2775756,-1.27748 1.2774798,1.2774798 0 0 1 0.6119303,0.15672 z M 3.0479347,289.794 a 0.85165321,0.85165321 0 0 1 0.4434358,0.7471 0.85165321,0.85165321 0 0 1 -0.8517424,0.85204 0.85165321,0.85165321 0 0 1 -0.8517735,-0.85218 0.85165321,0.85165321 0 0 1 0.8519255,-0.85134 0.85165321,0.85165321 0 0 1 0.408208,0.10419 z"
       id="path827-7-2-1-0-6"
       inkscape:connector-curvature="0" />
    <text
       xml:space="preserve"
       style="font-style:normal;font-weight:normal;font-size:10.58333302px;line-height:1.25;font-family:sans-serif;letter-spacing:0px;word-spacing:0px;fill:#000000;fill-opacity:1;stroke:none;stroke-width:0.26458332"
       x="-318.93173"
       y="384.02472"
       id="text823"><tspan
         sodipodi:role="line"
         x="-318.93173"
         y="384.02472"
         style="font-style:normal;font-variant:normal;font-weight:bold;font-stretch:normal;font-size:7.76111126px;line-height:0;font-family:Montserrat;-inkscape-font-specification:'Montserrat Bold';stroke-width:0.26458332"
         id="tspan825">ASOCIACIÓN</tspan></text>
    <text
       xml:space="preserve"
       style="font-style:normal;font-weight:normal;font-size:10.58333302px;line-height:1.25;font-family:sans-serif;letter-spacing:0px;word-spacing:0px;fill:#000000;fill-opacity:1;stroke:none;stroke-width:0.26458332"
       x="-319.87997"
       y="394.36536"
       id="text823-0"><tspan
         sodipodi:role="line"
         x="-319.87997"
         y="394.36536"
         style="font-style:normal;font-variant:normal;font-weight:bold;font-stretch:normal;line-height:0;font-family:Montserrat;-inkscape-font-specification:'Montserrat Bold';stroke-width:0.26458332"
         id="tspan825-8">EXPANDE</tspan></text>
    <path
       style="opacity:1;fill:#000000;fill-opacity:1;stroke:none;stroke-width:2.64444709;stroke-miterlimit:4;stroke-dasharray:none;stroke-opacity:1"
       d="m -329.35999,377.43861 a 8.5000071,8.5000071 0 0 0 -4.20614,0.0495 8.5000071,8.5000071 0 0 0 -6.01005,10.41073 8.5000071,8.5000071 0 0 0 10.40983,6.01056 8.5000071,8.5000071 0 0 0 6.01076,-10.41054 8.5000071,8.5000071 0 0 0 -6.2044,-6.06009 z m 2.41498,5.0959 a 2.4320196,2.4320196 0 0 1 1.77494,1.73445 2.4320196,2.4320196 0 0 1 -1.71927,2.9783 2.4320196,2.4320196 0 0 1 -2.97901,-1.71946 2.4320196,2.4320196 0 0 1 1.72017,-2.97881 2.4320196,2.4320196 0 0 1 1.20317,-0.0145 z m -5.32286,1.97911 a 1.8240147,1.8240147 0 0 1 1.3321,1.30033 1.8240147,1.8240147 0 0 1 -1.2899,2.23397 1.8240147,1.8240147 0 0 1 -2.23398,-1.2899 1.8240147,1.8240147 0 0 1 1.2899,-2.23398 1.8240147,1.8240147 0 0 1 0.90188,-0.01 z m -4.14757,1.66382 a 1.2160098,1.2160098 0 0 1 0.88766,0.86652 1.2160098,1.2160098 0 0 1 -0.85982,1.48986 1.2160098,1.2160098 0 0 1 -1.48967,-0.86053 1.2160098,1.2160098 0 0 1 0.86034,-1.48897 1.2160098,1.2160098 0 0 1 0.60149,-0.006 z"
       id="path827-7-2-1-0-6-8"
       inkscape:connector-curvature="0" />
    <g
       id="g1030"
       transform="translate(-0.37797633,8.693452)">
      <path
         inkscape:connector-curvature="0"
         id="path827-7-2-1-0-6-5"
         d="m -214.71019,365.29828 a 5.953125,5.953125 0 0 0 -2.94584,0.0346 5.953125,5.953125 0 0 0 -4.20924,7.29134 5.953125,5.953125 0 0 0 7.2907,4.2096 5.953125,5.953125 0 0 0 4.20974,-7.2912 5.953125,5.953125 0 0 0 -4.34536,-4.24429 z m 1.69137,3.569 a 1.7033064,1.7033064 0 0 1 1.24311,1.21476 1.7033064,1.7033064 0 0 1 -1.20412,2.0859 1.7033064,1.7033064 0 0 1 -2.0864,-1.20425 1.7033064,1.7033064 0 0 1 1.20475,-2.08627 1.7033064,1.7033064 0 0 1 0.84266,-0.0101 z m -3.72795,1.3861 a 1.2774798,1.2774798 0 0 1 0.93296,0.91071 1.2774798,1.2774798 0 0 1 -0.9034,1.5646 1.2774798,1.2774798 0 0 1 -1.56461,-0.9034 1.2774798,1.2774798 0 0 1 0.9034,-1.56461 1.2774798,1.2774798 0 0 1 0.63165,-0.007 z m -2.90482,1.16529 a 0.85165322,0.85165322 0 0 1 0.62169,0.60688 0.85165322,0.85165322 0 0 1 -0.6022,1.04345 0.85165322,0.85165322 0 0 1 -1.04331,-0.60269 0.85165322,0.85165322 0 0 1 0.60256,-1.04282 0.85165322,0.85165322 0 0 1 0.42126,-0.005 z"
         style="opacity:1;fill:#000000;fill-opacity:1;stroke:none;stroke-width:1.85208356;stroke-miterlimit:4;stroke-dasharray:none;stroke-opacity:1" />
      <g
         id="text817-2-8-8"
         style="font-style:normal;font-weight:normal;font-size:6.18725061px;line-height:1.25;font-family:sans-serif;letter-spacing:0px;word-spacing:0px;fill:#000000;fill-opacity:1;stroke:none;stroke-width:0.15468127"
         aria-label="Expande"
         transform="translate(-222.6658,80.697951)">
        <path
           id="path1094-4"
           style="font-style:normal;font-variant:normal;font-weight:normal;font-stretch:normal;font-size:7.38372135px;font-family:Montserrat;-inkscape-font-specification:Montserrat;fill:#000000;stroke-width:0.15468127"
           d="m 19.675841,292.02474 v 0.95988 h -4.001977 v -5.16861 h 3.905989 v 0.95989 h -2.71721 v 1.12232 h 2.39971 v 0.93035 h -2.39971 v 1.19617 z"
           inkscape:connector-curvature="0" />
        <path
           id="path1096-3"
           style="font-style:normal;font-variant:normal;font-weight:normal;font-stretch:normal;font-size:7.38372135px;font-family:Montserrat;-inkscape-font-specification:Montserrat;fill:#000000;stroke-width:0.15468127"
           d="m 23.021128,292.98462 -0.871279,-1.21831 -0.900814,1.21831 h -1.255232 l 1.52843,-2.00099 -1.476744,-1.97145 h 1.292151 l 0.841744,1.15924 0.863896,-1.15924 h 1.225697 l -1.476744,1.94192 1.535814,2.03052 z"
           inkscape:connector-curvature="0" />
        <path
           id="path1098-7"
           style="font-style:normal;font-variant:normal;font-weight:normal;font-stretch:normal;font-size:7.38372135px;font-family:Montserrat;-inkscape-font-specification:Montserrat;fill:#000000;stroke-width:0.15468127"
           d="m 27.242424,288.95311 q 0.553779,0 1.004186,0.25843 0.457791,0.25104 0.716221,0.71622 0.258431,0.45779 0.258431,1.07064 0,0.61285 -0.258431,1.07802 -0.25843,0.45779 -0.716221,0.71622 -0.450407,0.25105 -1.004186,0.25105 -0.760523,0 -1.196163,-0.47994 v 1.85331 h -1.15186 v -5.40488 h 1.100174 v 0.45779 q 0.428256,-0.51686 1.247849,-0.51686 z m -0.19936,3.14546 q 0.443023,0 0.723604,-0.29535 0.287966,-0.30273 0.287966,-0.80482 0,-0.50209 -0.287966,-0.79744 -0.280581,-0.30274 -0.723604,-0.30274 -0.443023,0 -0.730989,0.30274 -0.280581,0.29535 -0.280581,0.79744 0,0.50209 0.280581,0.80482 0.287966,0.29535 0.730989,0.29535 z"
           inkscape:connector-curvature="0" />
        <path
           id="path1100-1"
           style="font-style:normal;font-variant:normal;font-weight:normal;font-stretch:normal;font-size:7.38372135px;font-family:Montserrat;-inkscape-font-specification:Montserrat;fill:#000000;stroke-width:0.15468127"
           d="m 31.515292,288.95311 q 0.922965,0 1.417674,0.44302 0.49471,0.43564 0.49471,1.32169 v 2.2668 h -1.078024 v -0.49471 q -0.324883,0.55378 -1.21093,0.55378 -0.457791,0 -0.797442,-0.15506 -0.332267,-0.15506 -0.509477,-0.42826 -0.177209,-0.27319 -0.177209,-0.62023 0,-0.55378 0.413488,-0.87128 0.420872,-0.3175 1.292152,-0.3175 h 0.915581 q 0,-0.37657 -0.228895,-0.57593 -0.228896,-0.20674 -0.686686,-0.20674 -0.3175,0 -0.627617,0.10337 -0.302732,0.096 -0.51686,0.26581 l -0.413489,-0.80482 q 0.324884,-0.2289 0.775291,-0.35442 0.457791,-0.12552 0.937733,-0.12552 z m -0.0886,3.31529 q 0.295349,0 0.524244,-0.13291 0.228896,-0.14029 0.324884,-0.4061 v -0.40611 h -0.790058 q -0.708837,0 -0.708837,0.46518 0,0.22151 0.169825,0.35441 0.17721,0.12553 0.479942,0.12553 z"
           inkscape:connector-curvature="0" />
        <path
           id="path1102-3"
           style="font-style:normal;font-variant:normal;font-weight:normal;font-stretch:normal;font-size:7.38372135px;font-family:Montserrat;-inkscape-font-specification:Montserrat;fill:#000000;stroke-width:0.15468127"
           d="m 36.884641,288.95311 q 0.738373,0 1.18878,0.44302 0.45779,0.44302 0.45779,1.3143 v 2.27419 h -1.15186 v -2.09698 q 0,-0.47256 -0.206744,-0.70145 -0.206745,-0.23628 -0.598082,-0.23628 -0.435639,0 -0.69407,0.2732 -0.25843,0.26581 -0.25843,0.79744 v 1.96407 h -1.15186 v -3.97244 h 1.100174 v 0.46517 q 0.228895,-0.25105 0.568547,-0.38395 0.339651,-0.14029 0.745755,-0.14029 z"
           inkscape:connector-curvature="0" />
        <path
           id="path1104-8"
           style="font-style:normal;font-variant:normal;font-weight:normal;font-stretch:normal;font-size:7.38372135px;font-family:Montserrat;-inkscape-font-specification:Montserrat;fill:#000000;stroke-width:0.15468127"
           d="m 43.664858,287.5059 v 5.47872 h -1.100174 v -0.45779 q -0.428256,0.51686 -1.240465,0.51686 -0.561163,0 -1.018954,-0.25105 -0.450407,-0.25104 -0.708837,-0.71622 -0.25843,-0.46517 -0.25843,-1.07802 0,-0.61285 0.25843,-1.07803 0.25843,-0.46517 0.708837,-0.71622 0.457791,-0.25104 1.018954,-0.25104 0.760523,0 1.188779,0.47994 v -1.92715 z m -2.141279,4.59267 q 0.43564,0 0.723605,-0.29535 0.287965,-0.30273 0.287965,-0.80482 0,-0.50209 -0.287965,-0.79744 -0.287965,-0.30274 -0.723605,-0.30274 -0.443023,0 -0.730988,0.30274 -0.287965,0.29535 -0.287965,0.79744 0,0.50209 0.287965,0.80482 0.287965,0.29535 0.730988,0.29535 z"
           inkscape:connector-curvature="0" />
        <path
           id="path1106-0"
           style="font-style:normal;font-variant:normal;font-weight:normal;font-stretch:normal;font-size:7.38372135px;font-family:Montserrat;-inkscape-font-specification:Montserrat;fill:#000000;stroke-width:0.15468127"
           d="m 48.614952,291.01317 q 0,0.0222 -0.02215,0.31011 h -3.005174 q 0.08122,0.36919 0.383953,0.58332 0.302733,0.21412 0.75314,0.21412 0.310116,0 0.546395,-0.0886 0.243663,-0.096 0.450407,-0.29535 l 0.612849,0.66454 q -0.561163,0.64238 -1.639186,0.64238 -0.671919,0 -1.188779,-0.25843 -0.516861,-0.26582 -0.797442,-0.73099 -0.280582,-0.46517 -0.280582,-1.05587 0,-0.58332 0.273198,-1.04849 0.280582,-0.47256 0.760523,-0.73099 0.487326,-0.26581 1.085407,-0.26581 0.583314,0 1.055873,0.25104 0.472558,0.25105 0.738372,0.72361 0.273197,0.46517 0.273196,1.08541 z m -2.060058,-1.18878 q -0.391337,0 -0.657151,0.22151 -0.265814,0.22151 -0.324884,0.60546 h 1.956686 q -0.05907,-0.37657 -0.324883,-0.59808 -0.265814,-0.22889 -0.649768,-0.22889 z"
           inkscape:connector-curvature="0" />
      </g>
    </g>
    <g
       id="g1068"
       transform="translate(19.654762,-20.997949)">
      <text
         id="text823-1"
         y="429.36172"
         x="-234.64928"
         style="font-style:normal;font-weight:normal;font-size:10.58333302px;line-height:1.25;font-family:sans-serif;letter-spacing:0px;word-spacing:0px;fill:#000000;fill-opacity:1;stroke:none;stroke-width:0.26458332"
         xml:space="preserve"><tspan
           id="tspan825-7"
           style="font-style:normal;font-variant:normal;font-weight:bold;font-stretch:normal;font-size:7.4083333px;line-height:0;font-family:Montserrat;-inkscape-font-specification:'Montserrat Bold';stroke-width:0.26458332"
           y="429.36172"
           x="-234.64928"
           sodipodi:role="line">Asosciación</tspan></text>
      <text
         id="text823-0-5"
         y="439.17319"
         x="-235.59438"
         style="font-style:normal;font-weight:normal;font-size:10.58333302px;line-height:1.25;font-family:sans-serif;letter-spacing:0px;word-spacing:0px;fill:#000000;fill-opacity:1;stroke:none;stroke-width:0.26458332"
         xml:space="preserve"><tspan
           id="tspan825-8-1"
           style="font-style:normal;font-variant:normal;font-weight:bold;font-stretch:normal;line-height:0;font-family:Montserrat;-inkscape-font-specification:'Montserrat Bold';stroke-width:0.26458332"
           y="439.17319"
           x="-235.59438"
           sodipodi:role="line">Expande</tspan></text>
    </g>
    <path
       style="opacity:1;fill:#000000;fill-opacity:1;stroke:none;stroke-width:2.64444709;stroke-miterlimit:4;stroke-dasharray:none;stroke-opacity:1"
       d="m -225.42279,403.12084 a 8.5000071,8.5000071 0 0 0 -4.20614,0.0495 8.5000071,8.5000071 0 0 0 -6.01005,10.41073 8.5000071,8.5000071 0 0 0 10.40983,6.01056 8.5000071,8.5000071 0 0 0 6.01076,-10.41054 8.5000071,8.5000071 0 0 0 -6.2044,-6.06009 z m 2.41498,5.0959 a 2.4320196,2.4320196 0 0 1 1.77494,1.73445 2.4320196,2.4320196 0 0 1 -1.71927,2.9783 2.4320196,2.4320196 0 0 1 -2.97901,-1.71946 2.4320196,2.4320196 0 0 1 1.72017,-2.97881 2.4320196,2.4320196 0 0 1 1.20317,-0.0145 z m -5.32286,1.97911 a 1.8240147,1.8240147 0 0 1 1.3321,1.30033 1.8240147,1.8240147 0 0 1 -1.2899,2.23397 1.8240147,1.8240147 0 0 1 -2.23398,-1.2899 1.8240147,1.8240147 0 0 1 1.2899,-2.23398 1.8240147,1.8240147 0 0 1 0.90188,-0.01 z m -4.14757,1.66382 a 1.2160098,1.2160098 0 0 1 0.88766,0.86652 1.2160098,1.2160098 0 0 1 -0.85982,1.48986 1.2160098,1.2160098 0 0 1 -1.48967,-0.86053 1.2160098,1.2160098 0 0 1 0.86034,-1.48897 1.2160098,1.2160098 0 0 1 0.60149,-0.006 z"
       id="path827-7-2-1-0-6-8-7"
       inkscape:connector-curvature="0" />
    <g
       aria-label="Expande"
       style="font-style:normal;font-weight:normal;font-size:10.58333302px;line-height:1.25;font-family:sans-serif;letter-spacing:0px;word-spacing:0px;fill:#ffffff;fill-opacity:1;stroke:none;stroke-width:0.26458332"
       id="text844">
      <path
         d="m 16.667366,293.16177 v -5.75733 h 3.725333 v 1.016 h -2.556933 v 1.3462 h 2.048933 v 0.99907 h -2.048933 v 1.38006 h 2.556933 v 1.016 z"
         style="font-style:normal;font-variant:normal;font-weight:normal;font-stretch:normal;font-size:8.46666622px;font-family:'Titillium Web';-inkscape-font-specification:'Titillium Web';letter-spacing:-0.13229167px;fill:#ffffff;stroke-width:0.26458332"
         id="path911"
         inkscape:connector-curvature="0" />
      <path
         d="m 20.723428,288.92844 h 1.210733 l 0.677334,1.31233 0.685799,-1.31233 h 1.210734 l -1.202267,2.07433 1.202267,2.159 h -1.210734 l -0.685799,-1.2954 -0.677334,1.2954 h -1.210733 l 1.159933,-2.12513 z"
         style="font-style:normal;font-variant:normal;font-weight:normal;font-stretch:normal;font-size:8.46666622px;font-family:'Titillium Web';-inkscape-font-specification:'Titillium Web';letter-spacing:-0.13229167px;fill:#ffffff;stroke-width:0.26458332"
         id="path913"
         inkscape:connector-curvature="0" />
      <path
         d="m 25.015895,294.93977 v -6.01133 h 1.126067 v 0.2286 q 0.550333,-0.3302 0.9652,-0.3302 0.855133,0 1.261533,0.51647 0.4064,0.508 0.4064,1.73566 0,1.22767 -0.448733,1.71027 -0.448733,0.47413 -1.4732,0.47413 -0.2794,0 -0.601133,-0.0508 l -0.1016,-0.0169 v 1.74413 z m 1.871134,-5.09693 q -0.313267,0 -0.635,0.127 l -0.1016,0.0423 v 2.21827 q 0.381,0.0508 0.618066,0.0508 0.491067,0 0.668867,-0.28787 0.186267,-0.28786 0.186267,-0.98213 0,-1.1684 -0.7366,-1.1684 z"
         style="font-style:normal;font-variant:normal;font-weight:normal;font-stretch:normal;font-size:8.46666622px;font-family:'Titillium Web';-inkscape-font-specification:'Titillium Web';letter-spacing:-0.13229167px;fill:#ffffff;stroke-width:0.26458332"
         id="path915"
         inkscape:connector-curvature="0" />
      <path
         d="m 32.740009,290.24924 v 1.76107 q 0.01693,0.2032 0.06773,0.28786 0.0508,0.0762 0.211667,0.11007 l -0.03387,0.85513 q -0.4318,0 -0.694266,-0.0593 -0.254,-0.0593 -0.516467,-0.23707 -0.6096,0.29633 -1.2446,0.29633 -1.312333,0 -1.312333,-1.38853 0,-0.67733 0.364066,-0.95673 0.364067,-0.28787 1.1176,-0.33867 l 0.905934,-0.0677 v -0.26247 q 0,-0.26247 -0.118534,-0.3556 -0.118533,-0.1016 -0.381,-0.1016 l -1.591733,0.0677 -0.03387,-0.7874 q 0.905934,-0.24553 1.718734,-0.24553 0.821266,0 1.176866,0.33867 Q 32.74,289.50413 32.74,290.2492 Z m -1.905,1.1176 q -0.474133,0.0423 -0.474133,0.508 0,0.46567 0.414866,0.46567 0.321734,0 0.702734,-0.1016 l 0.127,-0.0339 v -0.90593 z"
         style="font-style:normal;font-variant:normal;font-weight:normal;font-stretch:normal;font-size:8.46666622px;font-family:'Titillium Web';-inkscape-font-specification:'Titillium Web';letter-spacing:-0.13229167px;fill:#ffffff;stroke-width:0.26458332"
         id="path917"
         inkscape:connector-curvature="0" />
      <path
         d="m 34.83207,293.16177 h -1.134533 v -4.23333 h 1.126067 v 0.23707 q 0.575733,-0.33867 1.058333,-0.33867 0.846666,0 1.1684,0.49953 0.321733,0.49954 0.321733,1.54094 v 2.29446 h -1.134533 v -2.2606 q 0,-0.54186 -0.127,-0.79586 -0.127,-0.26247 -0.508,-0.26247 -0.347134,0 -0.668867,0.11853 l -0.1016,0.0339 z"
         style="font-style:normal;font-variant:normal;font-weight:normal;font-stretch:normal;font-size:8.46666622px;font-family:'Titillium Web';-inkscape-font-specification:'Titillium Web';letter-spacing:-0.13229167px;fill:#ffffff;stroke-width:0.26458332"
         id="path919"
         inkscape:connector-curvature="0" />
      <path
         d="m 41.843395,287.23511 v 5.92666 h -1.126066 v -0.1778 q -0.592667,0.2794 -1.024467,0.2794 -0.922866,0 -1.286933,-0.5334 -0.364067,-0.5334 -0.364067,-1.68486 0,-1.15994 0.4318,-1.68487 0.440267,-0.5334 1.3208,-0.5334 0.270934,0 0.753534,0.0847 l 0.160866,0.0339 v -1.71026 z m -1.253066,4.91066 0.118533,-0.0254 v -2.22673 q -0.465666,-0.0847 -0.829733,-0.0847 -0.6858,0 -0.6858,1.2192 0,0.6604 0.1524,0.9398 0.1524,0.2794 0.499533,0.2794 0.3556,0 0.745067,-0.1016 z"
         style="font-style:normal;font-variant:normal;font-weight:normal;font-stretch:normal;font-size:8.46666622px;font-family:'Titillium Web';-inkscape-font-specification:'Titillium Web';letter-spacing:-0.13229167px;fill:#ffffff;stroke-width:0.26458332"
         id="path921"
         inkscape:connector-curvature="0" />
      <path
         d="m 43.690848,291.52771 q 0.0085,0.38946 0.2032,0.56726 0.2032,0.16934 0.575733,0.16934 0.7874,0 1.405466,-0.0508 l 0.237067,-0.0254 0.01693,0.8382 q -0.973666,0.23706 -1.761066,0.23706 -0.956733,0 -1.388533,-0.508 -0.4318,-0.508 -0.4318,-1.651 0,-2.27753 1.871133,-2.27753 1.845733,0 1.845733,1.91347 l -0.08467,0.7874 z m 1.456266,-0.8636 q 0,-0.508 -0.160866,-0.70274 -0.160867,-0.2032 -0.567267,-0.2032 -0.397933,0 -0.567267,0.21167 -0.160866,0.2032 -0.169333,0.69427 z"
         style="font-style:normal;font-variant:normal;font-weight:normal;font-stretch:normal;font-size:8.46666622px;font-family:'Titillium Web';-inkscape-font-specification:'Titillium Web';letter-spacing:-0.13229167px;fill:#ffffff;stroke-width:0.26458332"
         id="path923"
         inkscape:connector-curvature="0" />
    </g>
    <text
       xml:space="preserve"
       style="font-style:normal;font-weight:normal;font-size:10.58333302px;line-height:1.25;font-family:sans-serif;letter-spacing:0px;word-spacing:0px;fill:#000000;fill-opacity:1;stroke:none;stroke-width:0.26458332"
       x="12.734018"
       y="309.0907"
       id="text844-7"><tspan
         sodipodi:role="line"
         id="tspan842-7"
         x="12.734018"
         y="309.0907"
         style="font-style:normal;font-variant:normal;font-weight:normal;font-stretch:normal;font-size:8.46666622px;font-family:'Titillium Web';-inkscape-font-specification:'Titillium Web';letter-spacing:-0.13229169px;stroke-width:0.26458332"
         dx="0">Expande</tspan></text>
  </g>
</svg>
