<?xml version="1.0" encoding="UTF-8" standalone="no"?>
<!-- Created with Inkscape (http://www.inkscape.org/) -->

<svg
   xmlns:dc="http://purl.org/dc/elements/1.1/"
   xmlns:cc="http://creativecommons.org/ns#"
   xmlns:rdf="http://www.w3.org/1999/02/22-rdf-syntax-ns#"
   xmlns:svg="http://www.w3.org/2000/svg"
   xmlns="http://www.w3.org/2000/svg"
   xmlns:sodipodi="http://sodipodi.sourceforge.net/DTD/sodipodi-0.dtd"
   xmlns:inkscape="http://www.inkscape.org/namespaces/inkscape"
   width="198.43752mm"
   height="132.29167mm"
   viewBox="0 0 198.43752 132.29167"
   version="1.1"
   id="svg8"
   sodipodi:docname="estado-optimo.svg"
   inkscape:version="0.92.4 (f8dce91, 2019-08-02)">
  <defs
     id="defs2" />
  <sodipodi:namedview
     id="base"
     pagecolor="#ffffff"
     bordercolor="#666666"
     borderopacity="1.0"
     inkscape:pageopacity="0.0"
     inkscape:pageshadow="2"
     inkscape:zoom="0.98994949"
     inkscape:cx="189.36304"
     inkscape:cy="297.4683"
     inkscape:document-units="mm"
     inkscape:current-layer="layer1"
     showgrid="false"
     fit-margin-top="0"
     fit-margin-left="0"
     fit-margin-right="0"
     fit-margin-bottom="0"
     inkscape:window-width="1853"
     inkscape:window-height="1025"
     inkscape:window-x="1987"
     inkscape:window-y="27"
     inkscape:window-maximized="1" />
  <metadata
     id="metadata5">
    <rdf:RDF>
      <cc:Work
         rdf:about="">
        <dc:format>image/svg+xml</dc:format>
        <dc:type
           rdf:resource="http://purl.org/dc/dcmitype/StillImage" />
        <dc:title></dc:title>
      </cc:Work>
    </rdf:RDF>
  </metadata>
  <g
     inkscape:label="Layer 1"
     inkscape:groupmode="layer"
     id="layer1"
     transform="translate(455.27233,1.9791692)">
    <rect
       y="-1.9791692"
       x="-455.27231"
       height="132.29167"
       width="198.4375"
       id="rect1012"
       style="font-style:normal;font-weight:normal;font-size:10.58333302px;line-height:1;font-family:sans-serif;letter-spacing:0px;word-spacing:0px;opacity:1;fill:#ffffff;fill-opacity:1;stroke:none;stroke-width:37.4769516;stroke-linecap:butt;stroke-linejoin:miter;stroke-miterlimit:4;stroke-dasharray:none;stroke-opacity:0.30660376" />
    <rect
       style="opacity:0.8;fill:#f48a45;fill-opacity:1;stroke:none;stroke-width:9.66896343;stroke-linecap:butt;stroke-linejoin:miter;stroke-miterlimit:4;stroke-dasharray:none;stroke-opacity:0.30660376"
       id="rect2634"
       width="198.4375"
       height="132.29167"
       x="-455.27231"
       y="-1.9791692" />
    <path
       inkscape:connector-curvature="0"
       style="opacity:1;fill:#f48a45;fill-opacity:1;stroke:none;stroke-width:9.66896343;stroke-linecap:butt;stroke-linejoin:miter;stroke-miterlimit:4;stroke-dasharray:none;stroke-opacity:0.30660376"
       d="m -413.04173,97.231501 c -14.8288,-0.726861 -42.2305,14.155329 -42.2305,14.155329 v 8.51265 l 16.5204,6.10351 67.46881,-10.05417 c 0,0 -26.52311,-17.97052 -41.75871,-18.717319 z"
       id="rect2634-4"
       sodipodi:nodetypes="acccca" />
    <path
       style="opacity:1;fill:#f37c34;fill-opacity:1;stroke:none;stroke-width:0.42534432px;stroke-linecap:butt;stroke-linejoin:miter;stroke-opacity:1"
       d="m -300.65092,67.012418 c -1.26357,7.239669 -2.58743,14.441447 -3.90116,21.675956 -0.48951,2.694322 0.92903,6.10242 3.90116,6.212348 z m 8.1e-4,0 v 27.888304 c 2.97149,-0.110603 4.38971,-3.518267 3.90036,-6.212348 -1.31389,-7.234493 -2.63679,-14.436287 -3.90036,-21.675956 z"
       id="path2092-7"
       inkscape:connector-curvature="0" />
    <path
       style="fill:#f48a45;fill-opacity:1;stroke:none;stroke-width:0.42534432px;stroke-linecap:butt;stroke-linejoin:miter;stroke-opacity:1;opacity:1"
       d="m -301.243,103.81537 0.64449,-23.846285 0.5908,24.168525 z"
       id="path2090-4"
       inkscape:connector-curvature="0" />
    <path
       style="opacity:1;fill:#f37c34;fill-opacity:1;stroke:none;stroke-width:0.27045202px;stroke-linecap:butt;stroke-linejoin:miter;stroke-opacity:1"
       d="m -285.55793,82.595226 c -0.80343,4.603289 -1.6452,9.182486 -2.48053,13.782494 -0.31125,1.713165 0.59072,3.88018 2.48053,3.95007 z m 5.1e-4,0 v 17.732564 c 1.8894,-0.0703 2.79117,-2.237058 2.48002,-3.95007 -0.83543,-4.599998 -1.67658,-9.179205 -2.48002,-13.782494 z"
       id="path2092-7-0"
       inkscape:connector-curvature="0" />
    <path
       style="fill:#f48a45;fill-opacity:1;stroke:none;stroke-width:0.27045202px;stroke-linecap:butt;stroke-linejoin:miter;stroke-opacity:1;opacity:1"
       d="m -285.9344,105.9961 0.40979,-15.162475 0.37565,15.367375 z"
       id="path2090-4-7"
       inkscape:connector-curvature="0" />
    <path
       style="opacity:1;fill:#f37c34;fill-opacity:1;stroke:none;stroke-width:0.27045202px;stroke-linecap:butt;stroke-linejoin:miter;stroke-opacity:1"
       d="m -314.26523,79.275096 c -0.80343,4.603289 -1.6452,9.182486 -2.48053,13.782494 -0.31125,1.713165 0.59072,3.880178 2.48053,3.950075 z m 5.1e-4,0 v 17.732569 c 1.8894,-0.07033 2.79117,-2.237063 2.48002,-3.950075 -0.83543,-4.599998 -1.67658,-9.179205 -2.48002,-13.782494 z"
       id="path2092-7-0-6"
       inkscape:connector-curvature="0" />
    <path
       style="fill:#f48a45;fill-opacity:1;stroke:none;stroke-width:0.27045202px;stroke-linecap:butt;stroke-linejoin:miter;stroke-opacity:1;opacity:1"
       d="m -314.6417,102.67597 0.40979,-15.162475 0.37565,15.367375 z"
       id="path2090-4-7-8"
       inkscape:connector-curvature="0" />
    <g
       id="g1300"
       transform="translate(0,-10.583333)"
       style="opacity:0.99">
      <path
         d="m -406.82506,42.336413 q 0.46567,0.147461 0.72955,0.496711 0.26388,0.341489 0.26388,0.845961 0,0.714022 -0.5588,1.102078 -0.55104,0.380294 -1.61431,0.380294 h -2.80953 v -5.432778 h 2.6543 q 0.99343,0 1.52118,0.380295 0.53552,0.380294 0.53552,1.032227 0,0.395817 -0.19403,0.706262 -0.18627,0.310444 -0.52776,0.48895 z m -2.73967,-1.660878 v 1.280583 h 1.24954 q 0.46567,0 0.70626,-0.162983 0.2406,-0.162984 0.2406,-0.481189 0,-0.318206 -0.2406,-0.473428 -0.24059,-0.162983 -0.70626,-0.162983 z m 1.46685,3.539066 q 0.49671,0 0.74507,-0.162983 0.25612,-0.162983 0.25612,-0.504472 0,-0.675217 -1.00119,-0.675217 h -1.46685 v 1.342672 z"
         style="font-style:normal;font-variant:normal;font-weight:bold;font-stretch:normal;font-size:10.58333302px;line-height:1;font-family:Montserrat;-inkscape-font-specification:'Montserrat Bold';letter-spacing:0px;word-spacing:0px;fill:#ffffff;fill-opacity:1;stroke:none;stroke-width:0.07000434"
         id="path943"
         inkscape:connector-curvature="0" />
      <path
         d="m -404.95754,40.985979 h 1.21073 v 4.175478 h -1.21073 z m 0.60537,-0.582083 q -0.33373,0 -0.54328,-0.194028 -0.20955,-0.194028 -0.20955,-0.481189 0,-0.287161 0.20955,-0.481189 0.20955,-0.194027 0.54328,-0.194027 0.33373,0 0.54328,0.186266 0.20955,0.186267 0.20955,0.465667 0,0.302683 -0.20955,0.504472 -0.20955,0.194028 -0.54328,0.194028 z"
         style="font-style:normal;font-variant:normal;font-weight:bold;font-stretch:normal;font-size:10.58333302px;line-height:1;font-family:Montserrat;-inkscape-font-specification:'Montserrat Bold';letter-spacing:0px;word-spacing:0px;fill:#ffffff;fill-opacity:1;stroke:none;stroke-width:0.07000434"
         id="path945"
         inkscape:connector-curvature="0" />
      <path
         d="m -398.53304,43.08924 q 0,0.02328 -0.0233,0.325967 h -3.15877 q 0.0854,0.388056 0.40358,0.613128 0.3182,0.225072 0.79163,0.225072 0.32597,0 0.57432,-0.09313 0.25612,-0.100895 0.47343,-0.310445 l 0.64417,0.6985 q -0.58984,0.675217 -1.72296,0.675217 -0.70627,0 -1.24954,-0.271639 -0.54328,-0.2794 -0.8382,-0.76835 -0.29493,-0.48895 -0.29493,-1.109839 0,-0.613128 0.28717,-1.102078 0.29492,-0.496711 0.79939,-0.76835 0.51223,-0.2794 1.14088,-0.2794 0.61313,0 1.10984,0.263878 0.49671,0.263878 0.77611,0.760589 0.28716,0.48895 0.28716,1.140883 z m -2.16535,-1.249539 q -0.41133,0 -0.69073,0.232834 -0.2794,0.232833 -0.34149,0.636411 h 2.05669 q -0.0621,-0.395817 -0.34149,-0.62865 -0.2794,-0.240595 -0.68298,-0.240595 z"
         style="font-style:normal;font-variant:normal;font-weight:bold;font-stretch:normal;font-size:10.58333302px;line-height:1;font-family:Montserrat;-inkscape-font-specification:'Montserrat Bold';letter-spacing:0px;word-spacing:0px;fill:#ffffff;fill-opacity:1;stroke:none;stroke-width:0.07000434"
         id="path947"
         inkscape:connector-curvature="0" />
      <path
         d="m -395.18909,40.92389 q 0.77611,0 1.24954,0.465667 0.48119,0.465667 0.48119,1.381478 v 2.390422 h -1.21073 v -2.204156 q 0,-0.496711 -0.21732,-0.737305 -0.21731,-0.248356 -0.62865,-0.248356 -0.4579,0 -0.72954,0.287161 -0.27164,0.2794 -0.27164,0.8382 v 2.064456 h -1.21073 v -4.175478 h 1.1564 v 0.48895 q 0.2406,-0.263878 0.59761,-0.403578 0.35701,-0.147461 0.78387,-0.147461 z"
         style="font-style:normal;font-variant:normal;font-weight:bold;font-stretch:normal;font-size:10.58333302px;line-height:1;font-family:Montserrat;-inkscape-font-specification:'Montserrat Bold';letter-spacing:0px;word-spacing:0px;fill:#ffffff;fill-opacity:1;stroke:none;stroke-width:0.07000434"
         id="path949"
         inkscape:connector-curvature="0" />
      <path
         d="m -388.22531,43.08924 q 0,0.02328 -0.0233,0.325967 h -3.15877 q 0.0854,0.388056 0.40357,0.613128 0.31821,0.225072 0.79164,0.225072 0.32596,0 0.57432,-0.09313 0.25612,-0.100895 0.47343,-0.310445 l 0.64417,0.6985 q -0.58985,0.675217 -1.72297,0.675217 -0.70626,0 -1.24954,-0.271639 -0.54327,-0.2794 -0.8382,-0.76835 -0.29492,-0.48895 -0.29492,-1.109839 0,-0.613128 0.28716,-1.102078 0.29492,-0.496711 0.7994,-0.76835 0.51223,-0.2794 1.14088,-0.2794 0.61313,0 1.10984,0.263878 0.49671,0.263878 0.77611,0.760589 0.28716,0.48895 0.28716,1.140883 z m -2.16535,-1.249539 q -0.41134,0 -0.69074,0.232834 -0.2794,0.232833 -0.34149,0.636411 h 2.0567 q -0.0621,-0.395817 -0.34149,-0.62865 -0.2794,-0.240595 -0.68298,-0.240595 z"
         style="font-style:normal;font-variant:normal;font-weight:bold;font-stretch:normal;font-size:10.58333302px;line-height:1;font-family:Montserrat;-inkscape-font-specification:'Montserrat Bold';letter-spacing:0px;word-spacing:0px;fill:#ffffff;fill-opacity:1;stroke:none;stroke-width:0.07000434"
         id="path951"
         inkscape:connector-curvature="0" />
      <path
         d="m -386.01449,45.223546 q -0.51999,0 -1.0167,-0.124178 -0.49671,-0.131939 -0.79163,-0.325967 l 0.40357,-0.869244 q 0.2794,0.178506 0.67522,0.294922 0.39582,0.108656 0.77611,0.108656 0.76835,0 0.76835,-0.380295 0,-0.178505 -0.20955,-0.256116 -0.20955,-0.07761 -0.64417,-0.131939 -0.51223,-0.07761 -0.84596,-0.178506 -0.33373,-0.100894 -0.58209,-0.357011 -0.24059,-0.256117 -0.24059,-0.729544 0,-0.395817 0.22507,-0.6985 0.23284,-0.310445 0.66746,-0.481189 0.44238,-0.170745 1.03999,-0.170745 0.44238,0 0.877,0.100895 0.44239,0.09313 0.72955,0.263878 l -0.40358,0.861483 q -0.55104,-0.310445 -1.20297,-0.310445 -0.38806,0 -0.58209,0.108656 -0.19402,0.108656 -0.19402,0.2794 0,0.194028 0.20955,0.271639 0.20955,0.07761 0.66745,0.147461 0.51223,0.08537 0.8382,0.186267 0.32597,0.09313 0.56656,0.34925 0.2406,0.256116 0.2406,0.714022 0,0.388055 -0.23284,0.690739 -0.23283,0.302683 -0.68297,0.473428 -0.44239,0.162983 -1.05552,0.162983 z"
         style="font-style:normal;font-variant:normal;font-weight:bold;font-stretch:normal;font-size:10.58333302px;line-height:1;font-family:Montserrat;-inkscape-font-specification:'Montserrat Bold';letter-spacing:0px;word-spacing:0px;fill:#ffffff;fill-opacity:1;stroke:none;stroke-width:0.07000434"
         id="path953"
         inkscape:connector-curvature="0" />
      <path
         d="m -380.60305,44.959668 q -0.17851,0.131939 -0.44238,0.201789 -0.25612,0.06209 -0.54328,0.06209 -0.74507,0 -1.15641,-0.380294 -0.40358,-0.380295 -0.40358,-1.117601 v -1.715205 h -0.64417 v -0.931333 h 0.64417 v -1.016706 h 1.21074 v 1.016706 h 1.03999 v 0.931333 h -1.03999 v 1.699683 q 0,0.263878 0.13194,0.411339 0.1397,0.1397 0.38805,0.1397 0.28716,0 0.48895,-0.155222 z"
         style="font-style:normal;font-variant:normal;font-weight:bold;font-stretch:normal;font-size:10.58333302px;line-height:1;font-family:Montserrat;-inkscape-font-specification:'Montserrat Bold';letter-spacing:0px;word-spacing:0px;fill:#ffffff;fill-opacity:1;stroke:none;stroke-width:0.07000434"
         id="path955"
         inkscape:connector-curvature="0" />
      <path
         d="m -378.23167,40.92389 q 0.97014,0 1.49014,0.465667 0.51999,0.457906 0.51999,1.389239 v 2.382661 h -1.13312 v -0.519994 q -0.34149,0.582083 -1.27282,0.582083 -0.48119,0 -0.8382,-0.162983 -0.34925,-0.162984 -0.53552,-0.450145 -0.18627,-0.287161 -0.18627,-0.651933 0,-0.582084 0.43462,-0.915811 0.44239,-0.333728 1.3582,-0.333728 h 0.96238 q 0,-0.395817 -0.2406,-0.605367 -0.24059,-0.217311 -0.72178,-0.217311 -0.33373,0 -0.6597,0.108656 -0.3182,0.100894 -0.54327,0.2794 l -0.43463,-0.845961 q 0.34149,-0.240595 0.81492,-0.372534 0.48119,-0.131939 0.98566,-0.131939 z m -0.0931,3.484739 q 0.31044,0 0.55104,-0.1397 0.24059,-0.147461 0.34149,-0.426861 v -0.426861 h -0.83044 q -0.74507,0 -0.74507,0.48895 0,0.232833 0.17851,0.372533 0.18626,0.131939 0.50447,0.131939 z"
         style="font-style:normal;font-variant:normal;font-weight:bold;font-stretch:normal;font-size:10.58333302px;line-height:1;font-family:Montserrat;-inkscape-font-specification:'Montserrat Bold';letter-spacing:0px;word-spacing:0px;fill:#ffffff;fill-opacity:1;stroke:none;stroke-width:0.07000434"
         id="path957"
         inkscape:connector-curvature="0" />
      <path
         d="m -373.96936,41.537018 q 0.21731,-0.302683 0.58208,-0.457905 0.37254,-0.155223 0.85372,-0.155223 v 1.1176 q -0.20178,-0.01552 -0.27163,-0.01552 -0.52,0 -0.81492,0.294922 -0.29492,0.287161 -0.29492,0.869245 v 1.971322 h -1.21074 v -4.175478 h 1.15641 z"
         style="font-style:normal;font-variant:normal;font-weight:bold;font-stretch:normal;font-size:10.58333302px;line-height:1;font-family:Montserrat;-inkscape-font-specification:'Montserrat Bold';letter-spacing:0px;word-spacing:0px;fill:#ffffff;fill-opacity:1;stroke:none;stroke-width:0.07000434"
         id="path959"
         inkscape:connector-curvature="0" />
      <path
         d="m -365.89647,41.048068 -1.99461,4.524728 q -0.26388,0.62865 -0.62089,0.884767 -0.34925,0.256116 -0.84596,0.256116 -0.30268,0 -0.58984,-0.100894 -0.2794,-0.09313 -0.46567,-0.2794 l 0.31821,-0.5588 q 0.3182,0.302683 0.7373,0.302683 0.27164,0 0.45015,-0.147461 0.18626,-0.1397 0.33372,-0.48895 l 0.13194,-0.287161 -1.8161,-4.105628 h 0.77611 l 1.43581,3.290711 1.42028,-3.290711 z"
         style="font-style:normal;font-variant:normal;font-weight:normal;font-stretch:normal;font-size:7.76111126px;line-height:1;font-family:'Montserrat Medium';-inkscape-font-specification:'Montserrat Medium, ';text-align:center;letter-spacing:0px;word-spacing:0px;text-anchor:middle;fill:#ffffff;fill-opacity:1;stroke:none;stroke-width:0.07000434"
         id="path961"
         inkscape:connector-curvature="0" />
      <path
         d="m -361.23884,45.223546 q -0.66745,0 -1.20297,-0.271639 -0.52775,-0.2794 -0.83044,-0.76835 -0.29492,-0.48895 -0.29492,-1.109839 0,-0.620889 0.29492,-1.109839 0.30269,-0.48895 0.83044,-0.760589 0.53552,-0.2794 1.20297,-0.2794 0.6597,0 1.14865,0.2794 0.49671,0.271639 0.72178,0.783873 l -0.93909,0.504472 q -0.32597,-0.574322 -0.9391,-0.574322 -0.47343,0 -0.78387,0.310444 -0.31044,0.310444 -0.31044,0.845961 0,0.535517 0.31044,0.845961 0.31044,0.310445 0.78387,0.310445 0.62089,0 0.9391,-0.574323 l 0.93909,0.512234 q -0.22507,0.496711 -0.72178,0.776111 -0.48895,0.2794 -1.14865,0.2794 z"
         style="font-style:normal;font-variant:normal;font-weight:bold;font-stretch:normal;font-size:10.58333302px;line-height:1;font-family:Montserrat;-inkscape-font-specification:'Montserrat Bold';letter-spacing:0px;word-spacing:0px;fill:#ffffff;fill-opacity:1;stroke:none;stroke-width:0.07000434"
         id="path963"
         inkscape:connector-curvature="0" />
      <path
         d="m -356.97956,40.92389 q 0.97014,0 1.49013,0.465667 0.52,0.457906 0.52,1.389239 v 2.382661 h -1.13313 v -0.519994 q -0.34149,0.582083 -1.27282,0.582083 -0.48119,0 -0.8382,-0.162983 -0.34925,-0.162984 -0.53552,-0.450145 -0.18626,-0.287161 -0.18626,-0.651933 0,-0.582084 0.43462,-0.915811 0.44238,-0.333728 1.35819,-0.333728 h 0.96238 q 0,-0.395817 -0.24059,-0.605367 -0.2406,-0.217311 -0.72179,-0.217311 -0.33372,0 -0.65969,0.108656 -0.31821,0.100894 -0.54328,0.2794 l -0.43462,-0.845961 q 0.34149,-0.240595 0.81492,-0.372534 0.48119,-0.131939 0.98566,-0.131939 z m -0.0931,3.484739 q 0.31045,0 0.55104,-0.1397 0.2406,-0.147461 0.34149,-0.426861 v -0.426861 h -0.83044 q -0.74506,0 -0.74506,0.48895 0,0.232833 0.1785,0.372533 0.18627,0.131939 0.50447,0.131939 z"
         style="font-style:normal;font-variant:normal;font-weight:bold;font-stretch:normal;font-size:10.58333302px;line-height:1;font-family:Montserrat;-inkscape-font-specification:'Montserrat Bold';letter-spacing:0px;word-spacing:0px;fill:#ffffff;fill-opacity:1;stroke:none;stroke-width:0.07000434"
         id="path965"
         inkscape:connector-curvature="0" />
      <path
         d="m -353.87366,39.402713 h 1.21073 v 5.758744 h -1.21073 z"
         style="font-style:normal;font-variant:normal;font-weight:bold;font-stretch:normal;font-size:10.58333302px;line-height:1;font-family:Montserrat;-inkscape-font-specification:'Montserrat Bold';letter-spacing:0px;word-spacing:0px;fill:#ffffff;fill-opacity:1;stroke:none;stroke-width:0.07000434"
         id="path967"
         inkscape:connector-curvature="0" />
      <path
         d="m -351.53927,40.985979 h 1.21074 v 4.175478 h -1.21074 z m 0.60537,-0.582083 q -0.33373,0 -0.54328,-0.194028 -0.20955,-0.194028 -0.20955,-0.481189 0,-0.287161 0.20955,-0.481189 0.20955,-0.194027 0.54328,-0.194027 0.33373,0 0.54328,0.186266 0.20955,0.186267 0.20955,0.465667 0,0.302683 -0.20955,0.504472 -0.20955,0.194028 -0.54328,0.194028 z"
         style="font-style:normal;font-variant:normal;font-weight:bold;font-stretch:normal;font-size:10.58333302px;line-height:1;font-family:Montserrat;-inkscape-font-specification:'Montserrat Bold';letter-spacing:0px;word-spacing:0px;fill:#ffffff;fill-opacity:1;stroke:none;stroke-width:0.07000434"
         id="path969"
         inkscape:connector-curvature="0" />
      <path
         d="m -344.95178,39.402713 v 5.758744 h -1.15641 v -0.481189 q -0.45014,0.543278 -1.30386,0.543278 -0.58985,0 -1.07104,-0.263878 -0.47342,-0.263878 -0.74506,-0.752828 -0.27164,-0.48895 -0.27164,-1.133122 0,-0.644172 0.27164,-1.133122 0.27164,-0.48895 0.74506,-0.752828 0.48119,-0.263878 1.07104,-0.263878 0.79939,0 1.24954,0.504473 v -2.02565 z m -2.25072,4.827411 q 0.4579,0 0.76059,-0.310445 0.30268,-0.318205 0.30268,-0.845961 0,-0.527755 -0.30268,-0.8382 -0.30269,-0.318205 -0.76059,-0.318205 -0.46567,0 -0.76835,0.318205 -0.30269,0.310445 -0.30269,0.8382 0,0.527756 0.30269,0.845961 0.30268,0.310445 0.76835,0.310445 z"
         style="font-style:normal;font-variant:normal;font-weight:bold;font-stretch:normal;font-size:10.58333302px;line-height:1;font-family:Montserrat;-inkscape-font-specification:'Montserrat Bold';letter-spacing:0px;word-spacing:0px;fill:#ffffff;fill-opacity:1;stroke:none;stroke-width:0.07000434"
         id="path971"
         inkscape:connector-curvature="0" />
      <path
         d="m -342.15463,40.92389 q 0.97014,0 1.49014,0.465667 0.51999,0.457906 0.51999,1.389239 v 2.382661 h -1.13312 v -0.519994 q -0.34149,0.582083 -1.27282,0.582083 -0.48119,0 -0.8382,-0.162983 -0.34925,-0.162984 -0.53552,-0.450145 -0.18627,-0.287161 -0.18627,-0.651933 0,-0.582084 0.43463,-0.915811 0.44238,-0.333728 1.35819,-0.333728 h 0.96238 q 0,-0.395817 -0.2406,-0.605367 -0.24059,-0.217311 -0.72178,-0.217311 -0.33373,0 -0.65969,0.108656 -0.31821,0.100894 -0.54328,0.2794 l -0.43462,-0.845961 q 0.34148,-0.240595 0.81491,-0.372534 0.48119,-0.131939 0.98566,-0.131939 z m -0.0931,3.484739 q 0.31044,0 0.55104,-0.1397 0.24059,-0.147461 0.34149,-0.426861 v -0.426861 h -0.83044 q -0.74507,0 -0.74507,0.48895 0,0.232833 0.17851,0.372533 0.18626,0.131939 0.50447,0.131939 z"
         style="font-style:normal;font-variant:normal;font-weight:bold;font-stretch:normal;font-size:10.58333302px;line-height:1;font-family:Montserrat;-inkscape-font-specification:'Montserrat Bold';letter-spacing:0px;word-spacing:0px;fill:#ffffff;fill-opacity:1;stroke:none;stroke-width:0.07000434"
         id="path973"
         inkscape:connector-curvature="0" />
      <path
         d="m -334.75017,39.402713 v 5.758744 h -1.1564 v -0.481189 q -0.45015,0.543278 -1.30387,0.543278 -0.58984,0 -1.07103,-0.263878 -0.47343,-0.263878 -0.74507,-0.752828 -0.27164,-0.48895 -0.27164,-1.133122 0,-0.644172 0.27164,-1.133122 0.27164,-0.48895 0.74507,-0.752828 0.48119,-0.263878 1.07103,-0.263878 0.7994,0 1.24954,0.504473 v -2.02565 z m -2.25072,4.827411 q 0.45791,0 0.76059,-0.310445 0.30268,-0.318205 0.30268,-0.845961 0,-0.527755 -0.30268,-0.8382 -0.30268,-0.318205 -0.76059,-0.318205 -0.46566,0 -0.76835,0.318205 -0.30268,0.310445 -0.30268,0.8382 0,0.527756 0.30268,0.845961 0.30269,0.310445 0.76835,0.310445 z"
         style="font-style:normal;font-variant:normal;font-weight:bold;font-stretch:normal;font-size:10.58333302px;line-height:1;font-family:Montserrat;-inkscape-font-specification:'Montserrat Bold';letter-spacing:0px;word-spacing:0px;fill:#ffffff;fill-opacity:1;stroke:none;stroke-width:0.07000434"
         id="path975"
         inkscape:connector-curvature="0" />
      <path
         d="m -327.18611,39.402713 v 5.758744 h -1.1564 v -0.481189 q -0.45015,0.543278 -1.30387,0.543278 -0.58985,0 -1.07103,-0.263878 -0.47343,-0.263878 -0.74507,-0.752828 -0.27164,-0.48895 -0.27164,-1.133122 0,-0.644172 0.27164,-1.133122 0.27164,-0.48895 0.74507,-0.752828 0.48118,-0.263878 1.07103,-0.263878 0.79939,0 1.24954,0.504473 v -2.02565 z m -2.25072,4.827411 q 0.4579,0 0.76059,-0.310445 0.30268,-0.318205 0.30268,-0.845961 0,-0.527755 -0.30268,-0.8382 -0.30269,-0.318205 -0.76059,-0.318205 -0.46567,0 -0.76835,0.318205 -0.30268,0.310445 -0.30268,0.8382 0,0.527756 0.30268,0.845961 0.30268,0.310445 0.76835,0.310445 z"
         style="font-style:normal;font-variant:normal;font-weight:bold;font-stretch:normal;font-size:10.58333302px;line-height:1;font-family:Montserrat;-inkscape-font-specification:'Montserrat Bold';letter-spacing:0px;word-spacing:0px;fill:#ffffff;fill-opacity:1;stroke:none;stroke-width:0.07000434"
         id="path977"
         inkscape:connector-curvature="0" />
      <path
         d="m -321.98301,43.08924 q 0,0.02328 -0.0233,0.325967 h -3.15878 q 0.0854,0.388056 0.40358,0.613128 0.31821,0.225072 0.79163,0.225072 0.32597,0 0.57433,-0.09313 0.25611,-0.100895 0.47342,-0.310445 l 0.64418,0.6985 q -0.58985,0.675217 -1.72297,0.675217 -0.70626,0 -1.24954,-0.271639 -0.54328,-0.2794 -0.8382,-0.76835 -0.29492,-0.48895 -0.29492,-1.109839 0,-0.613128 0.28716,-1.102078 0.29492,-0.496711 0.79939,-0.76835 0.51224,-0.2794 1.14089,-0.2794 0.61313,0 1.10984,0.263878 0.49671,0.263878 0.77611,0.760589 0.28716,0.48895 0.28716,1.140883 z m -2.16535,-1.249539 q -0.41134,0 -0.69074,0.232834 -0.2794,0.232833 -0.34149,0.636411 h 2.0567 q -0.0621,-0.395817 -0.34149,-0.62865 -0.2794,-0.240595 -0.68298,-0.240595 z"
         style="font-style:normal;font-variant:normal;font-weight:bold;font-stretch:normal;font-size:10.58333302px;line-height:1;font-family:Montserrat;-inkscape-font-specification:'Montserrat Bold';letter-spacing:0px;word-spacing:0px;fill:#ffffff;fill-opacity:1;stroke:none;stroke-width:0.07000434"
         id="path979"
         inkscape:connector-curvature="0" />
      <path
         d="m -314.83454,40.985979 -1.76178,4.175478 h -1.24954 l -1.75401,-4.175478 h 1.24954 l 1.15641,2.840567 1.19521,-2.840567 z"
         style="font-style:normal;font-variant:normal;font-weight:bold;font-stretch:normal;font-size:10.58333302px;line-height:1;font-family:Montserrat;-inkscape-font-specification:'Montserrat Bold';letter-spacing:0px;word-spacing:0px;fill:#ffffff;fill-opacity:1;stroke:none;stroke-width:0.07000434"
         id="path981"
         inkscape:connector-curvature="0" />
      <path
         d="m -314.3405,40.985979 h 1.21073 v 4.175478 h -1.21073 z m 0.60536,-0.582083 q -0.33373,0 -0.54328,-0.194028 -0.20955,-0.194028 -0.20955,-0.481189 0,-0.287161 0.20955,-0.481189 0.20955,-0.194027 0.54328,-0.194027 0.33373,0 0.54328,0.186266 0.20955,0.186267 0.20955,0.465667 0,0.302683 -0.20955,0.504472 -0.20955,0.194028 -0.54328,0.194028 z"
         style="font-style:normal;font-variant:normal;font-weight:bold;font-stretch:normal;font-size:10.58333302px;line-height:1;font-family:Montserrat;-inkscape-font-specification:'Montserrat Bold';letter-spacing:0px;word-spacing:0px;fill:#ffffff;fill-opacity:1;stroke:none;stroke-width:0.07000434"
         id="path983"
         inkscape:connector-curvature="0" />
      <path
         d="m -307.75302,39.402713 v 5.758744 h -1.1564 v -0.481189 q -0.45015,0.543278 -1.30387,0.543278 -0.58985,0 -1.07103,-0.263878 -0.47343,-0.263878 -0.74507,-0.752828 -0.27164,-0.48895 -0.27164,-1.133122 0,-0.644172 0.27164,-1.133122 0.27164,-0.48895 0.74507,-0.752828 0.48118,-0.263878 1.07103,-0.263878 0.79939,0 1.24954,0.504473 v -2.02565 z m -2.25072,4.827411 q 0.4579,0 0.76059,-0.310445 0.30268,-0.318205 0.30268,-0.845961 0,-0.527755 -0.30268,-0.8382 -0.30269,-0.318205 -0.76059,-0.318205 -0.46567,0 -0.76835,0.318205 -0.30268,0.310445 -0.30268,0.8382 0,0.527756 0.30268,0.845961 0.30268,0.310445 0.76835,0.310445 z"
         style="font-style:normal;font-variant:normal;font-weight:bold;font-stretch:normal;font-size:10.58333302px;line-height:1;font-family:Montserrat;-inkscape-font-specification:'Montserrat Bold';letter-spacing:0px;word-spacing:0px;fill:#ffffff;fill-opacity:1;stroke:none;stroke-width:0.07000434"
         id="path985"
         inkscape:connector-curvature="0" />
      <path
         d="m -304.95587,40.92389 q 0.97014,0 1.49014,0.465667 0.51999,0.457906 0.51999,1.389239 v 2.382661 h -1.13312 v -0.519994 q -0.34149,0.582083 -1.27282,0.582083 -0.48119,0 -0.8382,-0.162983 -0.34925,-0.162984 -0.53552,-0.450145 -0.18627,-0.287161 -0.18627,-0.651933 0,-0.582084 0.43463,-0.915811 0.44238,-0.333728 1.35819,-0.333728 h 0.96238 q 0,-0.395817 -0.2406,-0.605367 -0.24059,-0.217311 -0.72178,-0.217311 -0.33373,0 -0.65969,0.108656 -0.31821,0.100894 -0.54328,0.2794 l -0.43462,-0.845961 q 0.34149,-0.240595 0.81491,-0.372534 0.48119,-0.131939 0.98566,-0.131939 z m -0.0931,3.484739 q 0.31045,0 0.55104,-0.1397 0.24059,-0.147461 0.34149,-0.426861 v -0.426861 h -0.83044 q -0.74507,0 -0.74507,0.48895 0,0.232833 0.17851,0.372533 0.18627,0.131939 0.50447,0.131939 z"
         style="font-style:normal;font-variant:normal;font-weight:bold;font-stretch:normal;font-size:10.58333302px;line-height:1;font-family:Montserrat;-inkscape-font-specification:'Montserrat Bold';letter-spacing:0px;word-spacing:0px;fill:#ffffff;fill-opacity:1;stroke:none;stroke-width:0.07000434"
         id="path987"
         inkscape:connector-curvature="0" />
      <path
         d="m -301.51624,44.144751 q 0.21731,0 0.35701,0.155223 0.14747,0.147461 0.14747,0.372533 0,0.116417 -0.031,0.225072 -0.0233,0.108656 -0.10089,0.333728 l -0.36478,1.078795 h -0.48895 l 0.28717,-1.156406 q -0.14747,-0.05433 -0.2406,-0.178506 -0.0854,-0.131938 -0.0854,-0.302683 0,-0.232833 0.14746,-0.380294 0.14746,-0.147462 0.37253,-0.147462 z"
         style="font-style:normal;font-variant:normal;font-weight:normal;font-stretch:normal;font-size:7.76111126px;line-height:1;font-family:'Montserrat Medium';-inkscape-font-specification:'Montserrat Medium, ';text-align:center;letter-spacing:0px;word-spacing:0px;text-anchor:middle;fill:#ffffff;fill-opacity:1;stroke:none;stroke-width:0.07000434"
         id="path989"
         inkscape:connector-curvature="0" />
      <path
         d="m -407.64058,55.791357 q -0.62865,0 -1.12536,-0.271639 -0.48895,-0.271639 -0.76835,-0.745067 -0.2794,-0.481189 -0.2794,-1.086555 0,-0.605367 0.2794,-1.078795 0.2794,-0.481189 0.76835,-0.745067 0.49671,-0.271638 1.12536,-0.271638 0.5588,0 0.99342,0.225072 0.44239,0.225072 0.68298,0.651933 l -0.56656,0.364772 q -0.19403,-0.294922 -0.48119,-0.442383 -0.28716,-0.147461 -0.63641,-0.147461 -0.40358,0 -0.72954,0.178505 -0.31821,0.178506 -0.50448,0.512234 -0.1785,0.325966 -0.1785,0.752828 0,0.434622 0.1785,0.76835 0.18627,0.325966 0.50448,0.504472 0.32596,0.178505 0.72954,0.178505 0.34925,0 0.63641,-0.147461 0.28716,-0.147461 0.48119,-0.442383 l 0.56656,0.357011 q -0.24059,0.426861 -0.68298,0.659695 -0.43462,0.225072 -0.99342,0.225072 z"
         style="font-style:normal;font-variant:normal;font-weight:normal;font-stretch:normal;font-size:7.76111126px;line-height:1;font-family:'Montserrat Medium';-inkscape-font-specification:'Montserrat Medium, ';text-align:center;letter-spacing:0px;word-spacing:0px;text-anchor:middle;fill:#ffffff;fill-opacity:1;stroke:none;stroke-width:0.07000434"
         id="path991"
         inkscape:connector-curvature="0" />
      <path
         d="m -403.306,55.791357 q -0.61313,0 -1.10208,-0.271639 -0.48895,-0.271639 -0.76835,-0.745067 -0.27164,-0.481189 -0.27164,-1.086555 0,-0.605367 0.27164,-1.078795 0.2794,-0.481189 0.76835,-0.745067 0.48895,-0.271638 1.10208,-0.271638 0.61313,0 1.09432,0.271638 0.48895,0.263878 0.76059,0.745067 0.2794,0.473428 0.2794,1.078795 0,0.605366 -0.2794,1.086555 -0.27164,0.473428 -0.76059,0.745067 -0.48119,0.271639 -1.09432,0.271639 z m 0,-0.651934 q 0.39582,0 0.70626,-0.178505 0.31821,-0.186267 0.49671,-0.512234 0.17851,-0.333727 0.17851,-0.760588 0,-0.426862 -0.17851,-0.752828 -0.1785,-0.333728 -0.49671,-0.512234 -0.31044,-0.178505 -0.70626,-0.178505 -0.39582,0 -0.71402,0.178505 -0.31045,0.178506 -0.49671,0.512234 -0.17851,0.325966 -0.17851,0.752828 0,0.426861 0.17851,0.760588 0.18626,0.325967 0.49671,0.512234 0.3182,0.178505 0.71402,0.178505 z"
         style="font-style:normal;font-variant:normal;font-weight:normal;font-stretch:normal;font-size:7.76111126px;line-height:1;font-family:'Montserrat Medium';-inkscape-font-specification:'Montserrat Medium, ';text-align:center;letter-spacing:0px;word-spacing:0px;text-anchor:middle;fill:#ffffff;fill-opacity:1;stroke:none;stroke-width:0.07000434"
         id="path993"
         inkscape:connector-curvature="0" />
      <path
         d="m -394.99567,51.592596 q 0.77611,0 1.22626,0.450144 0.4579,0.450144 0.4579,1.334911 v 2.367139 h -0.74506 v -2.281767 q 0,-0.597605 -0.2794,-0.900289 -0.27164,-0.302683 -0.78388,-0.302683 -0.56656,0 -0.90028,0.357011 -0.33373,0.34925 -0.33373,1.008945 v 2.118783 h -0.74507 v -2.281767 q 0,-0.597605 -0.2794,-0.900289 -0.27164,-0.302683 -0.78387,-0.302683 -0.56656,0 -0.90029,0.357011 -0.33373,0.34925 -0.33373,1.008945 v 2.118783 h -0.74506 v -4.113389 h 0.71402 v 0.613128 q 0.22507,-0.318206 0.58984,-0.481189 0.36477,-0.170744 0.83044,-0.170744 0.48119,0 0.85372,0.194027 0.37254,0.194028 0.57433,0.566561 0.23283,-0.357011 0.64417,-0.5588 0.4191,-0.201788 0.93909,-0.201788 z"
         style="font-style:normal;font-variant:normal;font-weight:normal;font-stretch:normal;font-size:7.76111126px;line-height:1;font-family:'Montserrat Medium';-inkscape-font-specification:'Montserrat Medium, ';text-align:center;letter-spacing:0px;word-spacing:0px;text-anchor:middle;fill:#ffffff;fill-opacity:1;stroke:none;stroke-width:0.07000434"
         id="path995"
         inkscape:connector-curvature="0" />
      <path
         d="m -390.14849,55.791357 q -0.61313,0 -1.10208,-0.271639 -0.48895,-0.271639 -0.76835,-0.745067 -0.27164,-0.481189 -0.27164,-1.086555 0,-0.605367 0.27164,-1.078795 0.2794,-0.481189 0.76835,-0.745067 0.48895,-0.271638 1.10208,-0.271638 0.61313,0 1.09432,0.271638 0.48895,0.263878 0.76058,0.745067 0.2794,0.473428 0.2794,1.078795 0,0.605366 -0.2794,1.086555 -0.27163,0.473428 -0.76058,0.745067 -0.48119,0.271639 -1.09432,0.271639 z m 0,-0.651934 q 0.39582,0 0.70626,-0.178505 0.31821,-0.186267 0.49671,-0.512234 0.17851,-0.333727 0.17851,-0.760588 0,-0.426862 -0.17851,-0.752828 -0.1785,-0.333728 -0.49671,-0.512234 -0.31044,-0.178505 -0.70626,-0.178505 -0.39582,0 -0.71402,0.178505 -0.31045,0.178506 -0.49671,0.512234 -0.17851,0.325966 -0.17851,0.752828 0,0.426861 0.17851,0.760588 0.18626,0.325967 0.49671,0.512234 0.3182,0.178505 0.71402,0.178505 z"
         style="font-style:normal;font-variant:normal;font-weight:normal;font-stretch:normal;font-size:7.76111126px;line-height:1;font-family:'Montserrat Medium';-inkscape-font-specification:'Montserrat Medium, ';text-align:center;letter-spacing:0px;word-spacing:0px;text-anchor:middle;fill:#ffffff;fill-opacity:1;stroke:none;stroke-width:0.07000434"
         id="path997"
         inkscape:connector-curvature="0" />
      <path
         d="m -382.71104,51.592596 q 0.5976,0 1.07103,0.263877 0.47343,0.263878 0.73731,0.737306 0.27164,0.473428 0.27164,1.094317 0,0.620888 -0.27164,1.102077 -0.26388,0.473428 -0.73731,0.737306 -0.47343,0.263878 -1.07103,0.263878 -0.45791,0 -0.8382,-0.178506 -0.3803,-0.178505 -0.62865,-0.519994 v 0.651933 h -0.71402 v -5.758744 h 0.74506 v 2.266244 q 0.24836,-0.325967 0.62089,-0.48895 0.37253,-0.170744 0.81492,-0.170744 z m -0.0621,3.546827 q 0.39582,0 0.70626,-0.178505 0.31821,-0.186267 0.49671,-0.512234 0.18627,-0.333727 0.18627,-0.760588 0,-0.426862 -0.18627,-0.752828 -0.1785,-0.333728 -0.49671,-0.512234 -0.31044,-0.178505 -0.70626,-0.178505 -0.38806,0 -0.70626,0.178505 -0.31821,0.178506 -0.49671,0.512234 -0.17851,0.325966 -0.17851,0.752828 0,0.426861 0.17851,0.760588 0.1785,0.325967 0.49671,0.512234 0.3182,0.178505 0.70626,0.178505 z"
         style="font-style:normal;font-variant:normal;font-weight:normal;font-stretch:normal;font-size:7.76111126px;line-height:1;font-family:'Montserrat Medium';-inkscape-font-specification:'Montserrat Medium, ';text-align:center;letter-spacing:0px;word-spacing:0px;text-anchor:middle;fill:#ffffff;fill-opacity:1;stroke:none;stroke-width:0.07000434"
         id="path999"
         inkscape:connector-curvature="0" />
      <path
         d="m -378.14921,51.592596 q 0.85373,0 1.30387,0.4191 0.45791,0.4191 0.45791,1.249538 v 2.483556 h -0.70627 v -0.543278 q -0.18626,0.287161 -0.53551,0.442384 -0.34149,0.147461 -0.81492,0.147461 -0.69074,0 -1.10984,-0.333728 -0.41134,-0.333728 -0.41134,-0.877006 0,-0.543277 0.39582,-0.869244 0.39582,-0.333728 1.2573,-0.333728 h 1.17969 V 53.23019 q 0,-0.481189 -0.2794,-0.737306 -0.2794,-0.256116 -0.82268,-0.256116 -0.36477,0 -0.71402,0.124178 -0.34925,0.116416 -0.58985,0.318205 l -0.31044,-0.5588 q 0.31821,-0.256117 0.76059,-0.388055 0.44238,-0.1397 0.93909,-0.1397 z m -0.17074,3.624439 q 0.42686,0 0.7373,-0.186267 0.31045,-0.194028 0.45015,-0.543278 v -0.574322 h -1.14865 q -0.94685,0 -0.94685,0.636411 0,0.310444 0.24059,0.48895 0.2406,0.178506 0.66746,0.178506 z"
         style="font-style:normal;font-variant:normal;font-weight:normal;font-stretch:normal;font-size:7.76111126px;line-height:1;font-family:'Montserrat Medium';-inkscape-font-specification:'Montserrat Medium, ';text-align:center;letter-spacing:0px;word-spacing:0px;text-anchor:middle;fill:#ffffff;fill-opacity:1;stroke:none;stroke-width:0.07000434"
         id="path1001"
         inkscape:connector-curvature="0" />
      <path
         d="m -373.82894,55.791357 q -0.50447,0 -0.97014,-0.131939 -0.46566,-0.1397 -0.72954,-0.34925 l 0.31044,-0.589845 q 0.27164,0.194028 0.6597,0.310445 0.38805,0.116417 0.78387,0.116417 0.9779,0 0.9779,-0.558801 0,-0.186266 -0.13194,-0.294922 -0.13194,-0.108655 -0.33373,-0.155222 -0.19402,-0.05433 -0.5588,-0.116417 -0.49671,-0.07761 -0.81491,-0.178505 -0.31045,-0.100895 -0.53552,-0.341489 -0.22507,-0.240595 -0.22507,-0.675217 0,-0.5588 0.46567,-0.892528 0.46566,-0.341488 1.24953,-0.341488 0.41134,0 0.82268,0.100894 0.41134,0.100894 0.67522,0.271639 l -0.31821,0.589844 q -0.50447,-0.325966 -1.18745,-0.325966 -0.47342,0 -0.72178,0.155222 -0.24836,0.155222 -0.24836,0.411339 0,0.201789 0.1397,0.318205 0.1397,0.116417 0.34149,0.170745 0.20955,0.05433 0.58209,0.124178 0.49671,0.08537 0.79939,0.186266 0.31045,0.09313 0.52776,0.325967 0.21731,0.232833 0.21731,0.651933 0,0.5588 -0.48119,0.892528 -0.47343,0.325967 -1.29611,0.325967 z"
         style="font-style:normal;font-variant:normal;font-weight:normal;font-stretch:normal;font-size:7.76111126px;line-height:1;font-family:'Montserrat Medium';-inkscape-font-specification:'Montserrat Medium, ';text-align:center;letter-spacing:0px;word-spacing:0px;text-anchor:middle;fill:#ffffff;fill-opacity:1;stroke:none;stroke-width:0.07000434"
         id="path1003"
         inkscape:connector-curvature="0" />
      <path
         d="m -367.39534,53.711379 q 0,0.08537 -0.0155,0.225072 h -3.33728 q 0.0698,0.543278 0.47343,0.877006 0.41134,0.325966 1.01671,0.325966 0.7373,0 1.18745,-0.496711 l 0.41134,0.481189 q -0.2794,0.325967 -0.6985,0.496711 -0.41134,0.170745 -0.92358,0.170745 -0.65193,0 -1.1564,-0.263878 -0.50447,-0.271639 -0.78387,-0.752828 -0.27164,-0.481189 -0.27164,-1.086555 0,-0.597606 0.26388,-1.078795 0.27163,-0.481189 0.7373,-0.745067 0.47343,-0.271638 1.06327,-0.271638 0.58985,0 1.04775,0.271638 0.46567,0.263878 0.72179,0.745067 0.26387,0.481189 0.26387,1.102078 z m -2.03341,-1.490133 q -0.53551,0 -0.90029,0.325966 -0.35701,0.325967 -0.4191,0.853722 h 2.63878 q -0.0621,-0.519994 -0.42686,-0.845961 -0.35701,-0.333727 -0.89253,-0.333727 z"
         style="font-style:normal;font-variant:normal;font-weight:normal;font-stretch:normal;font-size:7.76111126px;line-height:1;font-family:'Montserrat Medium';-inkscape-font-specification:'Montserrat Medium, ';text-align:center;letter-spacing:0px;word-spacing:0px;text-anchor:middle;fill:#ffffff;fill-opacity:1;stroke:none;stroke-width:0.07000434"
         id="path1005"
         inkscape:connector-curvature="0" />
      <path
         d="m -365.18864,55.791357 q -0.50447,0 -0.97013,-0.131939 -0.46567,-0.1397 -0.72955,-0.34925 l 0.31045,-0.589845 q 0.27163,0.194028 0.65969,0.310445 0.38806,0.116417 0.78387,0.116417 0.9779,0 0.9779,-0.558801 0,-0.186266 -0.13194,-0.294922 -0.13194,-0.108655 -0.33372,-0.155222 -0.19403,-0.05433 -0.5588,-0.116417 -0.49672,-0.07761 -0.81492,-0.178505 -0.31045,-0.100895 -0.53552,-0.341489 -0.22507,-0.240595 -0.22507,-0.675217 0,-0.5588 0.46567,-0.892528 0.46566,-0.341488 1.24954,-0.341488 0.41133,0 0.82267,0.100894 0.41134,0.100894 0.67522,0.271639 l -0.31821,0.589844 q -0.50447,-0.325966 -1.18745,-0.325966 -0.47342,0 -0.72178,0.155222 -0.24835,0.155222 -0.24835,0.411339 0,0.201789 0.1397,0.318205 0.1397,0.116417 0.34148,0.170745 0.20955,0.05433 0.58209,0.124178 0.49671,0.08537 0.79939,0.186266 0.31045,0.09313 0.52776,0.325967 0.21731,0.232833 0.21731,0.651933 0,0.5588 -0.48119,0.892528 -0.47343,0.325967 -1.29611,0.325967 z"
         style="font-style:normal;font-variant:normal;font-weight:normal;font-stretch:normal;font-size:7.76111126px;line-height:1;font-family:'Montserrat Medium';-inkscape-font-specification:'Montserrat Medium, ';text-align:center;letter-spacing:0px;word-spacing:0px;text-anchor:middle;fill:#ffffff;fill-opacity:1;stroke:none;stroke-width:0.07000434"
         id="path1007"
         inkscape:connector-curvature="0" />
      <path
         d="m -358.19988,51.592596 q 0.59761,0 1.07104,0.263877 0.47342,0.263878 0.7373,0.737306 0.27164,0.473428 0.27164,1.094317 0,0.620888 -0.27164,1.102077 -0.26388,0.473428 -0.7373,0.737306 -0.47343,0.263878 -1.07104,0.263878 -0.44238,0 -0.81491,-0.170745 -0.36478,-0.170744 -0.62089,-0.496711 v 2.126545 h -0.74507 v -5.619045 h 0.71402 v 0.651933 q 0.24836,-0.341488 0.62865,-0.512233 0.3803,-0.178505 0.8382,-0.178505 z m -0.0621,3.546827 q 0.39582,0 0.70627,-0.178505 0.3182,-0.186267 0.49671,-0.512234 0.18626,-0.333727 0.18626,-0.760588 0,-0.426862 -0.18626,-0.752828 -0.17851,-0.333728 -0.49671,-0.512234 -0.31045,-0.178505 -0.70627,-0.178505 -0.38805,0 -0.70626,0.186267 -0.31044,0.178505 -0.49671,0.504472 -0.1785,0.325966 -0.1785,0.752828 0,0.426861 0.1785,0.760588 0.17851,0.325967 0.49671,0.512234 0.31821,0.178505 0.70626,0.178505 z"
         style="font-style:normal;font-variant:normal;font-weight:normal;font-stretch:normal;font-size:7.76111126px;line-height:1;font-family:'Montserrat Medium';-inkscape-font-specification:'Montserrat Medium, ';text-align:center;letter-spacing:0px;word-spacing:0px;text-anchor:middle;fill:#ffffff;fill-opacity:1;stroke:none;stroke-width:0.07000434"
         id="path1009"
         inkscape:connector-curvature="0" />
      <path
         d="m -353.63804,51.592596 q 0.85372,0 1.30387,0.4191 0.4579,0.4191 0.4579,1.249538 v 2.483556 h -0.70626 v -0.543278 q -0.18626,0.287161 -0.53551,0.442384 -0.34149,0.147461 -0.81492,0.147461 -0.69074,0 -1.10984,-0.333728 -0.41134,-0.333728 -0.41134,-0.877006 0,-0.543277 0.39582,-0.869244 0.39581,-0.333728 1.2573,-0.333728 h 1.17969 V 53.23019 q 0,-0.481189 -0.2794,-0.737306 -0.2794,-0.256116 -0.82268,-0.256116 -0.36477,0 -0.71402,0.124178 -0.34925,0.116416 -0.58985,0.318205 l -0.31044,-0.5588 q 0.3182,-0.256117 0.76059,-0.388055 0.44238,-0.1397 0.93909,-0.1397 z m -0.17074,3.624439 q 0.42686,0 0.7373,-0.186267 0.31045,-0.194028 0.45015,-0.543278 v -0.574322 h -1.14865 q -0.94685,0 -0.94685,0.636411 0,0.310444 0.24059,0.48895 0.2406,0.178506 0.66746,0.178506 z"
         style="font-style:normal;font-variant:normal;font-weight:normal;font-stretch:normal;font-size:7.76111126px;line-height:1;font-family:'Montserrat Medium';-inkscape-font-specification:'Montserrat Medium, ';text-align:center;letter-spacing:0px;word-spacing:0px;text-anchor:middle;fill:#ffffff;fill-opacity:1;stroke:none;stroke-width:0.07000434"
         id="path1011"
         inkscape:connector-curvature="0" />
      <path
         d="m -349.78344,52.32214 q 0.19403,-0.357011 0.57432,-0.543278 0.3803,-0.186266 0.92358,-0.186266 v 0.721783 q -0.0621,-0.0078 -0.17075,-0.0078 -0.60536,0 -0.95461,0.364772 -0.34149,0.357011 -0.34149,1.024467 v 2.048933 h -0.74507 v -4.113389 h 0.71402 z"
         style="font-style:normal;font-variant:normal;font-weight:normal;font-stretch:normal;font-size:7.76111126px;line-height:1;font-family:'Montserrat Medium';-inkscape-font-specification:'Montserrat Medium, ';text-align:center;letter-spacing:0px;word-spacing:0px;text-anchor:middle;fill:#ffffff;fill-opacity:1;stroke:none;stroke-width:0.07000434"
         id="path1013"
         inkscape:connector-curvature="0" />
      <path
         d="m -345.87693,51.592596 q 0.85372,0 1.30387,0.4191 0.4579,0.4191 0.4579,1.249538 v 2.483556 h -0.70626 v -0.543278 q -0.18627,0.287161 -0.53552,0.442384 -0.34148,0.147461 -0.81491,0.147461 -0.69074,0 -1.10984,-0.333728 -0.41134,-0.333728 -0.41134,-0.877006 0,-0.543277 0.39582,-0.869244 0.39581,-0.333728 1.2573,-0.333728 h 1.17969 V 53.23019 q 0,-0.481189 -0.2794,-0.737306 -0.2794,-0.256116 -0.82268,-0.256116 -0.36477,0 -0.71402,0.124178 -0.34925,0.116416 -0.58985,0.318205 l -0.31044,-0.5588 q 0.3182,-0.256117 0.76059,-0.388055 0.44238,-0.1397 0.93909,-0.1397 z m -0.17074,3.624439 q 0.42686,0 0.7373,-0.186267 0.31045,-0.194028 0.45015,-0.543278 v -0.574322 h -1.14865 q -0.94685,0 -0.94685,0.636411 0,0.310444 0.24059,0.48895 0.24059,0.178506 0.66746,0.178506 z"
         style="font-style:normal;font-variant:normal;font-weight:normal;font-stretch:normal;font-size:7.76111126px;line-height:1;font-family:'Montserrat Medium';-inkscape-font-specification:'Montserrat Medium, ';text-align:center;letter-spacing:0px;word-spacing:0px;text-anchor:middle;fill:#ffffff;fill-opacity:1;stroke:none;stroke-width:0.07000434"
         id="path1015"
         inkscape:connector-curvature="0" />
      <path
         d="m -336.8105,51.631401 v 4.113389 h -0.70626 v -0.620889 q -0.22507,0.318206 -0.5976,0.496711 -0.36478,0.170745 -0.7994,0.170745 -0.82268,0 -1.2961,-0.450145 -0.47343,-0.457905 -0.47343,-1.342672 v -2.367139 h 0.74507 v 2.281767 q 0,0.597605 0.28716,0.90805 0.28716,0.302683 0.82267,0.302683 0.58985,0 0.93134,-0.357011 0.34149,-0.357011 0.34149,-1.008944 v -2.126545 z"
         style="font-style:normal;font-variant:normal;font-weight:normal;font-stretch:normal;font-size:7.76111126px;line-height:1;font-family:'Montserrat Medium';-inkscape-font-specification:'Montserrat Medium, ';text-align:center;letter-spacing:0px;word-spacing:0px;text-anchor:middle;fill:#ffffff;fill-opacity:1;stroke:none;stroke-width:0.07000434"
         id="path1017"
         inkscape:connector-curvature="0" />
      <path
         d="m -333.18812,51.592596 q 0.78387,0 1.24178,0.457905 0.46566,0.450145 0.46566,1.32715 v 2.367139 h -0.74506 v -2.281767 q 0,-0.597605 -0.28716,-0.900289 -0.28716,-0.302683 -0.82268,-0.302683 -0.60537,0 -0.95462,0.357011 -0.34925,0.34925 -0.34925,1.008945 v 2.118783 h -0.74506 v -4.113389 h 0.71402 v 0.620889 q 0.22507,-0.318206 0.60536,-0.48895 0.38806,-0.170744 0.87701,-0.170744 z"
         style="font-style:normal;font-variant:normal;font-weight:normal;font-stretch:normal;font-size:7.76111126px;line-height:1;font-family:'Montserrat Medium';-inkscape-font-specification:'Montserrat Medium, ';text-align:center;letter-spacing:0px;word-spacing:0px;text-anchor:middle;fill:#ffffff;fill-opacity:1;stroke:none;stroke-width:0.07000434"
         id="path1019"
         inkscape:connector-curvature="0" />
      <path
         d="m -324.28479,53.711379 q 0,0.08537 -0.0155,0.225072 h -3.33728 q 0.0698,0.543278 0.47343,0.877006 0.41134,0.325966 1.01671,0.325966 0.7373,0 1.18745,-0.496711 l 0.41134,0.481189 q -0.2794,0.325967 -0.6985,0.496711 -0.41134,0.170745 -0.92358,0.170745 -0.65193,0 -1.1564,-0.263878 -0.50447,-0.271639 -0.78387,-0.752828 -0.27164,-0.481189 -0.27164,-1.086555 0,-0.597606 0.26388,-1.078795 0.27163,-0.481189 0.7373,-0.745067 0.47343,-0.271638 1.06327,-0.271638 0.58985,0 1.04775,0.271638 0.46567,0.263878 0.72179,0.745067 0.26387,0.481189 0.26387,1.102078 z m -2.03341,-1.490133 q -0.53551,0 -0.90029,0.325966 -0.35701,0.325967 -0.4191,0.853722 h 2.63878 q -0.0621,-0.519994 -0.42686,-0.845961 -0.35701,-0.333727 -0.89253,-0.333727 z"
         style="font-style:normal;font-variant:normal;font-weight:normal;font-stretch:normal;font-size:7.76111126px;line-height:1;font-family:'Montserrat Medium';-inkscape-font-specification:'Montserrat Medium, ';text-align:center;letter-spacing:0px;word-spacing:0px;text-anchor:middle;fill:#ffffff;fill-opacity:1;stroke:none;stroke-width:0.07000434"
         id="path1021"
         inkscape:connector-curvature="0" />
      <path
         d="m -322.07809,55.791357 q -0.50447,0 -0.97013,-0.131939 -0.46567,-0.1397 -0.72955,-0.34925 l 0.31045,-0.589845 q 0.27163,0.194028 0.65969,0.310445 0.38806,0.116417 0.78387,0.116417 0.9779,0 0.9779,-0.558801 0,-0.186266 -0.13194,-0.294922 -0.13194,-0.108655 -0.33372,-0.155222 -0.19403,-0.05433 -0.5588,-0.116417 -0.49672,-0.07761 -0.81492,-0.178505 -0.31045,-0.100895 -0.53552,-0.341489 -0.22507,-0.240595 -0.22507,-0.675217 0,-0.5588 0.46567,-0.892528 0.46566,-0.341488 1.24954,-0.341488 0.41133,0 0.82267,0.100894 0.41134,0.100894 0.67522,0.271639 l -0.31821,0.589844 q -0.50447,-0.325966 -1.18745,-0.325966 -0.47342,0 -0.72178,0.155222 -0.24835,0.155222 -0.24835,0.411339 0,0.201789 0.1397,0.318205 0.1397,0.116417 0.34148,0.170745 0.20955,0.05433 0.58209,0.124178 0.49671,0.08537 0.79939,0.186266 0.31045,0.09313 0.52776,0.325967 0.21731,0.232833 0.21731,0.651933 0,0.5588 -0.48119,0.892528 -0.47343,0.325967 -1.29611,0.325967 z"
         style="font-style:normal;font-variant:normal;font-weight:normal;font-stretch:normal;font-size:7.76111126px;line-height:1;font-family:'Montserrat Medium';-inkscape-font-specification:'Montserrat Medium, ';text-align:center;letter-spacing:0px;word-spacing:0px;text-anchor:middle;fill:#ffffff;fill-opacity:1;stroke:none;stroke-width:0.07000434"
         id="path1023"
         inkscape:connector-curvature="0" />
      <path
         d="m -317.04925,55.504196 q -0.16298,0.1397 -0.40358,0.217311 -0.24059,0.06985 -0.49671,0.06985 -0.62089,0 -0.96238,-0.333728 -0.34149,-0.333728 -0.34149,-0.954617 v -2.258483 h -0.6985 v -0.613128 h 0.6985 v -0.900289 h 0.74507 v 0.900289 h 1.17969 v 0.613128 h -1.17969 v 2.227439 q 0,0.333728 0.16298,0.512233 0.17075,0.178506 0.48119,0.178506 0.34149,0 0.58209,-0.194028 z"
         style="font-style:normal;font-variant:normal;font-weight:normal;font-stretch:normal;font-size:7.76111126px;line-height:1;font-family:'Montserrat Medium';-inkscape-font-specification:'Montserrat Medium, ';text-align:center;letter-spacing:0px;word-spacing:0px;text-anchor:middle;fill:#ffffff;fill-opacity:1;stroke:none;stroke-width:0.07000434"
         id="path1025"
         inkscape:connector-curvature="0" />
      <path
         d="m -314.65058,51.592596 q 0.85372,0 1.30387,0.4191 0.4579,0.4191 0.4579,1.249538 v 2.483556 h -0.70626 v -0.543278 q -0.18627,0.287161 -0.53552,0.442384 -0.34149,0.147461 -0.81491,0.147461 -0.69074,0 -1.10984,-0.333728 -0.41134,-0.333728 -0.41134,-0.877006 0,-0.543277 0.39582,-0.869244 0.39581,-0.333728 1.2573,-0.333728 h 1.17968 V 53.23019 q 0,-0.481189 -0.2794,-0.737306 -0.2794,-0.256116 -0.82267,-0.256116 -0.36478,0 -0.71403,0.124178 -0.34925,0.116416 -0.58984,0.318205 l -0.31044,-0.5588 q 0.3182,-0.256117 0.76058,-0.388055 0.44239,-0.1397 0.9391,-0.1397 z m -0.17075,3.624439 q 0.42687,0 0.73731,-0.186267 0.31044,-0.194028 0.45014,-0.543278 v -0.574322 h -1.14864 q -0.94686,0 -0.94686,0.636411 0,0.310444 0.2406,0.48895 0.24059,0.178506 0.66745,0.178506 z"
         style="font-style:normal;font-variant:normal;font-weight:normal;font-stretch:normal;font-size:7.76111126px;line-height:1;font-family:'Montserrat Medium';-inkscape-font-specification:'Montserrat Medium, ';text-align:center;letter-spacing:0px;word-spacing:0px;text-anchor:middle;fill:#ffffff;fill-opacity:1;stroke:none;stroke-width:0.07000434"
         id="path1027"
         inkscape:connector-curvature="0" />
      <path
         d="m -307.59913,49.986046 v 5.758744 h -0.71402 v -0.651933 q -0.24836,0.341489 -0.62865,0.519994 -0.38029,0.178506 -0.8382,0.178506 -0.59761,0 -1.07103,-0.263878 -0.47343,-0.263878 -0.74507,-0.737306 -0.26388,-0.481189 -0.26388,-1.102077 0,-0.620889 0.26388,-1.094317 0.27164,-0.473428 0.74507,-0.737306 0.47342,-0.263877 1.07103,-0.263877 0.44238,0 0.81492,0.170744 0.37253,0.162983 0.62089,0.48895 v -2.266244 z m -2.11878,5.153377 q 0.38805,0 0.70626,-0.178505 0.31821,-0.186267 0.49671,-0.512234 0.17851,-0.333727 0.17851,-0.760588 0,-0.426862 -0.17851,-0.752828 -0.1785,-0.333728 -0.49671,-0.512234 -0.31821,-0.178505 -0.70626,-0.178505 -0.39582,0 -0.71402,0.178505 -0.31045,0.178506 -0.49671,0.512234 -0.17851,0.325966 -0.17851,0.752828 0,0.426861 0.17851,0.760588 0.18626,0.325967 0.49671,0.512234 0.3182,0.178505 0.71402,0.178505 z"
         style="font-style:normal;font-variant:normal;font-weight:normal;font-stretch:normal;font-size:7.76111126px;line-height:1;font-family:'Montserrat Medium';-inkscape-font-specification:'Montserrat Medium, ';text-align:center;letter-spacing:0px;word-spacing:0px;text-anchor:middle;fill:#ffffff;fill-opacity:1;stroke:none;stroke-width:0.07000434"
         id="path1029"
         inkscape:connector-curvature="0" />
      <path
         d="m -304.42762,55.791357 q -0.61313,0 -1.10208,-0.271639 -0.48895,-0.271639 -0.76835,-0.745067 -0.27164,-0.481189 -0.27164,-1.086555 0,-0.605367 0.27164,-1.078795 0.2794,-0.481189 0.76835,-0.745067 0.48895,-0.271638 1.10208,-0.271638 0.61313,0 1.09432,0.271638 0.48895,0.263878 0.76059,0.745067 0.2794,0.473428 0.2794,1.078795 0,0.605366 -0.2794,1.086555 -0.27164,0.473428 -0.76059,0.745067 -0.48119,0.271639 -1.09432,0.271639 z m 0,-0.651934 q 0.39582,0 0.70626,-0.178505 0.31821,-0.186267 0.49671,-0.512234 0.17851,-0.333727 0.17851,-0.760588 0,-0.426862 -0.17851,-0.752828 -0.1785,-0.333728 -0.49671,-0.512234 -0.31044,-0.178505 -0.70626,-0.178505 -0.39582,0 -0.71402,0.178505 -0.31045,0.178506 -0.49671,0.512234 -0.17851,0.325966 -0.17851,0.752828 0,0.426861 0.17851,0.760588 0.18626,0.325967 0.49671,0.512234 0.3182,0.178505 0.71402,0.178505 z"
         style="font-style:normal;font-variant:normal;font-weight:normal;font-stretch:normal;font-size:7.76111126px;line-height:1;font-family:'Montserrat Medium';-inkscape-font-specification:'Montserrat Medium, ';text-align:center;letter-spacing:0px;word-spacing:0px;text-anchor:middle;fill:#ffffff;fill-opacity:1;stroke:none;stroke-width:0.07000434"
         id="path1031"
         inkscape:connector-curvature="0" />
      <path
         d="m -392.81085,62.090556 q 0.58208,0 1.05551,0.271639 0.48119,0.263878 0.75283,0.752828 0.27163,0.481189 0.27163,1.125361 0,0.644172 -0.27163,1.133122 -0.27164,0.481189 -0.75283,0.752828 -0.47343,0.263878 -1.05551,0.263878 -0.7994,0 -1.2573,-0.504472 v 1.948039 h -1.21074 v -5.681134 h 1.15641 v 0.481189 q 0.45014,-0.543278 1.31163,-0.543278 z m -0.20955,3.306234 q 0.46566,0 0.76059,-0.310445 0.30268,-0.318205 0.30268,-0.845961 0,-0.527755 -0.30268,-0.8382 -0.29493,-0.318205 -0.76059,-0.318205 -0.46567,0 -0.76835,0.318205 -0.29493,0.310445 -0.29493,0.8382 0,0.527756 0.29493,0.845961 0.30268,0.310445 0.76835,0.310445 z"
         style="font-style:normal;font-variant:normal;font-weight:bold;font-stretch:normal;font-size:10.58333302px;line-height:1;font-family:Montserrat;-inkscape-font-specification:'Montserrat Bold';letter-spacing:0px;word-spacing:0px;fill:#ffffff;fill-opacity:1;stroke:none;stroke-width:0.07000434"
         id="path1033"
         inkscape:connector-curvature="0" />
      <path
         d="m -388.5232,66.390212 q -0.52,0 -1.01671,-0.124178 -0.49671,-0.131939 -0.79163,-0.325966 l 0.40358,-0.869245 q 0.2794,0.178506 0.67521,0.294922 0.39582,0.108656 0.77611,0.108656 0.76835,0 0.76835,-0.380295 0,-0.178505 -0.20955,-0.256116 -0.20955,-0.07761 -0.64417,-0.131939 -0.51223,-0.07761 -0.84596,-0.178506 -0.33373,-0.100894 -0.58208,-0.357011 -0.2406,-0.256117 -0.2406,-0.729544 0,-0.395817 0.22507,-0.6985 0.23284,-0.310445 0.66746,-0.481189 0.44238,-0.170745 1.03999,-0.170745 0.44238,0 0.877,0.100895 0.44239,0.09313 0.72955,0.263878 l -0.40358,0.861483 q -0.55104,-0.310445 -1.20297,-0.310445 -0.38806,0 -0.58208,0.108656 -0.19403,0.108656 -0.19403,0.2794 0,0.194028 0.20955,0.271639 0.20955,0.07761 0.66745,0.147461 0.51224,0.08537 0.8382,0.186267 0.32597,0.09313 0.56656,0.34925 0.2406,0.256116 0.2406,0.714022 0,0.388056 -0.23283,0.690739 -0.23284,0.302683 -0.68298,0.473428 -0.44239,0.162983 -1.05551,0.162983 z"
         style="font-style:normal;font-variant:normal;font-weight:bold;font-stretch:normal;font-size:10.58333302px;line-height:1;font-family:Montserrat;-inkscape-font-specification:'Montserrat Bold';letter-spacing:0px;word-spacing:0px;fill:#ffffff;fill-opacity:1;stroke:none;stroke-width:0.07000434"
         id="path1035"
         inkscape:connector-curvature="0" />
      <path
         d="m -385.80487,62.152645 h 1.21073 v 4.175478 h -1.21073 z m 0.60536,-0.582083 q -0.33373,0 -0.54328,-0.194028 -0.20955,-0.194028 -0.20955,-0.481189 0,-0.287161 0.20955,-0.481189 0.20955,-0.194027 0.54328,-0.194027 0.33373,0 0.54328,0.186266 0.20955,0.186267 0.20955,0.465667 0,0.302683 -0.20955,0.504472 -0.20955,0.194028 -0.54328,0.194028 z"
         style="font-style:normal;font-variant:normal;font-weight:bold;font-stretch:normal;font-size:10.58333302px;line-height:1;font-family:Montserrat;-inkscape-font-specification:'Montserrat Bold';letter-spacing:0px;word-spacing:0px;fill:#ffffff;fill-opacity:1;stroke:none;stroke-width:0.07000434"
         id="path1037"
         inkscape:connector-curvature="0" />
      <path
         d="m -381.45259,66.390212 q -0.66745,0 -1.20297,-0.271639 -0.52776,-0.2794 -0.83044,-0.76835 -0.29492,-0.48895 -0.29492,-1.109839 0,-0.620889 0.29492,-1.109839 0.30268,-0.48895 0.83044,-0.760589 0.53552,-0.2794 1.20297,-0.2794 0.6597,0 1.14865,0.2794 0.49671,0.271639 0.72178,0.783873 l -0.9391,0.504472 q -0.32596,-0.574322 -0.93909,-0.574322 -0.47343,0 -0.78387,0.310444 -0.31045,0.310444 -0.31045,0.845961 0,0.535517 0.31045,0.845961 0.31044,0.310445 0.78387,0.310445 0.62089,0 0.93909,-0.574322 l 0.9391,0.512233 q -0.22507,0.496711 -0.72178,0.776111 -0.48895,0.2794 -1.14865,0.2794 z"
         style="font-style:normal;font-variant:normal;font-weight:bold;font-stretch:normal;font-size:10.58333302px;line-height:1;font-family:Montserrat;-inkscape-font-specification:'Montserrat Bold';letter-spacing:0px;word-spacing:0px;fill:#ffffff;fill-opacity:1;stroke:none;stroke-width:0.07000434"
         id="path1039"
         inkscape:connector-curvature="0" />
      <path
         d="m -376.95126,66.390212 q -0.6597,0 -1.18745,-0.271639 -0.52,-0.2794 -0.81492,-0.76835 -0.29492,-0.48895 -0.29492,-1.109839 0,-0.620889 0.29492,-1.109839 0.29492,-0.48895 0.81492,-0.760589 0.52775,-0.2794 1.18745,-0.2794 0.65969,0 1.17968,0.2794 0.52,0.271639 0.81492,0.760589 0.29492,0.48895 0.29492,1.109839 0,0.620889 -0.29492,1.109839 -0.29492,0.48895 -0.81492,0.76835 -0.51999,0.271639 -1.17968,0.271639 z m 0,-0.993422 q 0.46566,0 0.76058,-0.310445 0.30269,-0.318205 0.30269,-0.845961 0,-0.527755 -0.30269,-0.8382 -0.29492,-0.318205 -0.76058,-0.318205 -0.46567,0 -0.76835,0.318205 -0.30269,0.310445 -0.30269,0.8382 0,0.527756 0.30269,0.845961 0.30268,0.310445 0.76835,0.310445 z"
         style="font-style:normal;font-variant:normal;font-weight:bold;font-stretch:normal;font-size:10.58333302px;line-height:1;font-family:Montserrat;-inkscape-font-specification:'Montserrat Bold';letter-spacing:0px;word-spacing:0px;fill:#ffffff;fill-opacity:1;stroke:none;stroke-width:0.07000434"
         id="path1041"
         inkscape:connector-curvature="0" />
      <path
         d="m -373.86004,60.569379 h 1.21073 v 5.758744 h -1.21073 z"
         style="font-style:normal;font-variant:normal;font-weight:bold;font-stretch:normal;font-size:10.58333302px;line-height:1;font-family:Montserrat;-inkscape-font-specification:'Montserrat Bold';letter-spacing:0px;word-spacing:0px;fill:#ffffff;fill-opacity:1;stroke:none;stroke-width:0.07000434"
         id="path1043"
         inkscape:connector-curvature="0" />
      <path
         d="m -369.5388,66.390212 q -0.65969,0 -1.18745,-0.271639 -0.51999,-0.2794 -0.81492,-0.76835 -0.29492,-0.48895 -0.29492,-1.109839 0,-0.620889 0.29492,-1.109839 0.29493,-0.48895 0.81492,-0.760589 0.52776,-0.2794 1.18745,-0.2794 0.6597,0 1.17969,0.2794 0.52,0.271639 0.81492,0.760589 0.29492,0.48895 0.29492,1.109839 0,0.620889 -0.29492,1.109839 -0.29492,0.48895 -0.81492,0.76835 -0.51999,0.271639 -1.17969,0.271639 z m 0,-0.993422 q 0.46567,0 0.76059,-0.310445 0.30268,-0.318205 0.30268,-0.845961 0,-0.527755 -0.30268,-0.8382 -0.29492,-0.318205 -0.76059,-0.318205 -0.46567,0 -0.76835,0.318205 -0.30268,0.310445 -0.30268,0.8382 0,0.527756 0.30268,0.845961 0.30268,0.310445 0.76835,0.310445 z m 0.32597,-4.897261 h 1.30387 l -1.40477,1.1176 h -0.94685 z"
         style="font-style:normal;font-variant:normal;font-weight:bold;font-stretch:normal;font-size:10.58333302px;line-height:1;font-family:Montserrat;-inkscape-font-specification:'Montserrat Bold';letter-spacing:0px;word-spacing:0px;fill:#ffffff;fill-opacity:1;stroke:none;stroke-width:0.07000434"
         id="path1045"
         inkscape:connector-curvature="0" />
      <path
         d="m -362.14015,62.152645 v 3.476978 q 0,1.148645 -0.59761,1.707445 -0.59761,0.5588 -1.74625,0.5588 -0.60537,0 -1.14864,-0.147462 -0.54328,-0.147461 -0.90029,-0.426861 l 0.48119,-0.869244 q 0.26387,0.217311 0.66745,0.341489 0.40358,0.131939 0.80716,0.131939 0.62865,0 0.92357,-0.287161 0.30268,-0.2794 0.30268,-0.853723 V 65.60634 q -0.47343,0.519994 -1.31939,0.519994 -0.57432,0 -1.05551,-0.248355 -0.47343,-0.256117 -0.75283,-0.714023 -0.2794,-0.457905 -0.2794,-1.055511 0,-0.597605 0.2794,-1.055511 0.2794,-0.457905 0.75283,-0.706261 0.48119,-0.256117 1.05551,-0.256117 0.90805,0 1.38148,0.597606 v -0.535517 z m -2.28953,2.980267 q 0.48119,0 0.78387,-0.2794 0.31044,-0.287161 0.31044,-0.745067 0,-0.457905 -0.31044,-0.737305 -0.30268,-0.287161 -0.78387,-0.287161 -0.48119,0 -0.79164,0.287161 -0.31044,0.2794 -0.31044,0.737305 0,0.457906 0.31044,0.745067 0.31045,0.2794 0.79164,0.2794 z"
         style="font-style:normal;font-variant:normal;font-weight:bold;font-stretch:normal;font-size:10.58333302px;line-height:1;font-family:Montserrat;-inkscape-font-specification:'Montserrat Bold';letter-spacing:0px;word-spacing:0px;fill:#ffffff;fill-opacity:1;stroke:none;stroke-width:0.07000434"
         id="path1047"
         inkscape:connector-curvature="0" />
      <path
         d="m -361.02086,62.152645 h 1.21074 v 4.175478 h -1.21074 z m 0.60537,-0.582083 q -0.33373,0 -0.54328,-0.194028 -0.20955,-0.194028 -0.20955,-0.481189 0,-0.287161 0.20955,-0.481189 0.20955,-0.194027 0.54328,-0.194027 0.33373,0 0.54328,0.186266 0.20955,0.186267 0.20955,0.465667 0,0.302683 -0.20955,0.504472 -0.20955,0.194028 -0.54328,0.194028 z"
         style="font-style:normal;font-variant:normal;font-weight:bold;font-stretch:normal;font-size:10.58333302px;line-height:1;font-family:Montserrat;-inkscape-font-specification:'Montserrat Bold';letter-spacing:0px;word-spacing:0px;fill:#ffffff;fill-opacity:1;stroke:none;stroke-width:0.07000434"
         id="path1049"
         inkscape:connector-curvature="0" />
      <path
         d="m -356.66857,66.390212 q -0.66746,0 -1.20297,-0.271639 -0.52776,-0.2794 -0.83044,-0.76835 -0.29493,-0.48895 -0.29493,-1.109839 0,-0.620889 0.29493,-1.109839 0.30268,-0.48895 0.83044,-0.760589 0.53551,-0.2794 1.20297,-0.2794 0.65969,0 1.14864,0.2794 0.49671,0.271639 0.72179,0.783873 l -0.9391,0.504472 q -0.32597,-0.574322 -0.93909,-0.574322 -0.47343,0 -0.78388,0.310444 -0.31044,0.310444 -0.31044,0.845961 0,0.535517 0.31044,0.845961 0.31045,0.310445 0.78388,0.310445 0.62089,0 0.93909,-0.574322 l 0.9391,0.512233 q -0.22508,0.496711 -0.72179,0.776111 -0.48895,0.2794 -1.14864,0.2794 z"
         style="font-style:normal;font-variant:normal;font-weight:bold;font-stretch:normal;font-size:10.58333302px;line-height:1;font-family:Montserrat;-inkscape-font-specification:'Montserrat Bold';letter-spacing:0px;word-spacing:0px;fill:#ffffff;fill-opacity:1;stroke:none;stroke-width:0.07000434"
         id="path1051"
         inkscape:connector-curvature="0" />
      <path
         d="m -352.16725,66.390212 q -0.65969,0 -1.18745,-0.271639 -0.51999,-0.2794 -0.81492,-0.76835 -0.29492,-0.48895 -0.29492,-1.109839 0,-0.620889 0.29492,-1.109839 0.29493,-0.48895 0.81492,-0.760589 0.52776,-0.2794 1.18745,-0.2794 0.6597,0 1.17969,0.2794 0.51999,0.271639 0.81492,0.760589 0.29492,0.48895 0.29492,1.109839 0,0.620889 -0.29492,1.109839 -0.29493,0.48895 -0.81492,0.76835 -0.51999,0.271639 -1.17969,0.271639 z m 0,-0.993422 q 0.46567,0 0.76059,-0.310445 0.30268,-0.318205 0.30268,-0.845961 0,-0.527755 -0.30268,-0.8382 -0.29492,-0.318205 -0.76059,-0.318205 -0.46567,0 -0.76835,0.318205 -0.30268,0.310445 -0.30268,0.8382 0,0.527756 0.30268,0.845961 0.30268,0.310445 0.76835,0.310445 z"
         style="font-style:normal;font-variant:normal;font-weight:bold;font-stretch:normal;font-size:10.58333302px;line-height:1;font-family:Montserrat;-inkscape-font-specification:'Montserrat Bold';letter-spacing:0px;word-spacing:0px;fill:#ffffff;fill-opacity:1;stroke:none;stroke-width:0.07000434"
         id="path1053"
         inkscape:connector-curvature="0" />
      <path
         d="m -344.89121,66.390212 q -0.65969,0 -1.18745,-0.271639 -0.51999,-0.2794 -0.81491,-0.76835 -0.29492,-0.48895 -0.29492,-1.109839 0,-0.620889 0.29492,-1.109839 0.29492,-0.48895 0.81491,-0.760589 0.52776,-0.2794 1.18745,-0.2794 0.6597,0 1.17969,0.2794 0.52,0.271639 0.81492,0.760589 0.29492,0.48895 0.29492,1.109839 0,0.620889 -0.29492,1.109839 -0.29492,0.48895 -0.81492,0.76835 -0.51999,0.271639 -1.17969,0.271639 z m 0,-0.993422 q 0.46567,0 0.76059,-0.310445 0.30269,-0.318205 0.30269,-0.845961 0,-0.527755 -0.30269,-0.8382 -0.29492,-0.318205 -0.76059,-0.318205 -0.46566,0 -0.76835,0.318205 -0.30268,0.310445 -0.30268,0.8382 0,0.527756 0.30268,0.845961 0.30269,0.310445 0.76835,0.310445 z m 0.32597,-4.897261 h 1.30387 l -1.40476,1.1176 h -0.94686 z"
         style="font-style:normal;font-variant:normal;font-weight:bold;font-stretch:normal;font-size:10.58333302px;line-height:1;font-family:Montserrat;-inkscape-font-specification:'Montserrat Bold';letter-spacing:0px;word-spacing:0px;fill:#ffffff;fill-opacity:1;stroke:none;stroke-width:0.07000434"
         id="path1055"
         inkscape:connector-curvature="0" />
      <path
         d="m -339.33195,62.090556 q 0.58208,0 1.05551,0.271639 0.48119,0.263878 0.75283,0.752828 0.27164,0.481189 0.27164,1.125361 0,0.644172 -0.27164,1.133122 -0.27164,0.481189 -0.75283,0.752828 -0.47343,0.263878 -1.05551,0.263878 -0.79939,0 -1.2573,-0.504472 v 1.948039 h -1.21073 v -5.681134 h 1.1564 v 0.481189 q 0.45015,-0.543278 1.31163,-0.543278 z m -0.20955,3.306234 q 0.46567,0 0.76059,-0.310445 0.30268,-0.318205 0.30268,-0.845961 0,-0.527755 -0.30268,-0.8382 -0.29492,-0.318205 -0.76059,-0.318205 -0.46567,0 -0.76835,0.318205 -0.29492,0.310445 -0.29492,0.8382 0,0.527756 0.29492,0.845961 0.30268,0.310445 0.76835,0.310445 z"
         style="font-style:normal;font-variant:normal;font-weight:bold;font-stretch:normal;font-size:10.58333302px;line-height:1;font-family:Montserrat;-inkscape-font-specification:'Montserrat Bold';letter-spacing:0px;word-spacing:0px;fill:#ffffff;fill-opacity:1;stroke:none;stroke-width:0.07000434"
         id="path1057"
         inkscape:connector-curvature="0" />
      <path
         d="m -333.75595,66.126334 q -0.17851,0.131939 -0.44238,0.201789 -0.25612,0.06209 -0.54328,0.06209 -0.74507,0 -1.15641,-0.380294 -0.40358,-0.380295 -0.40358,-1.1176 v -1.715206 h -0.64417 V 62.24578 h 0.64417 v -1.016706 h 1.21074 v 1.016706 h 1.03999 v 0.931333 h -1.03999 v 1.699683 q 0,0.263878 0.13194,0.411339 0.1397,0.1397 0.38805,0.1397 0.28716,0 0.48895,-0.155222 z"
         style="font-style:normal;font-variant:normal;font-weight:bold;font-stretch:normal;font-size:10.58333302px;line-height:1;font-family:Montserrat;-inkscape-font-specification:'Montserrat Bold';letter-spacing:0px;word-spacing:0px;fill:#ffffff;fill-opacity:1;stroke:none;stroke-width:0.07000434"
         id="path1059"
         inkscape:connector-curvature="0" />
      <path
         d="m -333.06873,62.152645 h 1.21073 v 4.175478 h -1.21073 z m 0.60536,-0.582083 q -0.33372,0 -0.54327,-0.194028 -0.20955,-0.194028 -0.20955,-0.481189 0,-0.287161 0.20955,-0.481189 0.20955,-0.194027 0.54327,-0.194027 0.33373,0 0.54328,0.186266 0.20955,0.186267 0.20955,0.465667 0,0.302683 -0.20955,0.504472 -0.20955,0.194028 -0.54328,0.194028 z"
         style="font-style:normal;font-variant:normal;font-weight:bold;font-stretch:normal;font-size:10.58333302px;line-height:1;font-family:Montserrat;-inkscape-font-specification:'Montserrat Bold';letter-spacing:0px;word-spacing:0px;fill:#ffffff;fill-opacity:1;stroke:none;stroke-width:0.07000434"
         id="path1061"
         inkscape:connector-curvature="0" />
      <path
         d="m -325.38693,62.090556 q 0.78388,0 1.24178,0.465667 0.46567,0.457906 0.46567,1.381478 v 2.390422 h -1.21073 v -2.204156 q 0,-0.496711 -0.20955,-0.737305 -0.20179,-0.248356 -0.58209,-0.248356 -0.42686,0 -0.67521,0.2794 -0.24836,0.271639 -0.24836,0.814917 v 2.0955 h -1.21073 v -2.204156 q 0,-0.985661 -0.79164,-0.985661 -0.4191,0 -0.66745,0.2794 -0.24836,0.271639 -0.24836,0.814917 v 2.0955 h -1.21073 v -4.175478 h 1.1564 v 0.481189 q 0.23284,-0.263878 0.56657,-0.403578 0.34148,-0.1397 0.74506,-0.1397 0.44239,0 0.7994,0.178506 0.35701,0.170744 0.57432,0.504472 0.25612,-0.325967 0.64417,-0.504472 0.39582,-0.178506 0.86148,-0.178506 z"
         style="font-style:normal;font-variant:normal;font-weight:bold;font-stretch:normal;font-size:10.58333302px;line-height:1;font-family:Montserrat;-inkscape-font-specification:'Montserrat Bold';letter-spacing:0px;word-spacing:0px;fill:#ffffff;fill-opacity:1;stroke:none;stroke-width:0.07000434"
         id="path1063"
         inkscape:connector-curvature="0" />
      <path
         d="m -320.56194,66.390212 q -0.65969,0 -1.18745,-0.271639 -0.51999,-0.2794 -0.81492,-0.76835 -0.29492,-0.48895 -0.29492,-1.109839 0,-0.620889 0.29492,-1.109839 0.29493,-0.48895 0.81492,-0.760589 0.52776,-0.2794 1.18745,-0.2794 0.65969,0 1.17969,0.2794 0.51999,0.271639 0.81492,0.760589 0.29492,0.48895 0.29492,1.109839 0,0.620889 -0.29492,1.109839 -0.29493,0.48895 -0.81492,0.76835 -0.52,0.271639 -1.17969,0.271639 z m 0,-0.993422 q 0.46567,0 0.76059,-0.310445 0.30268,-0.318205 0.30268,-0.845961 0,-0.527755 -0.30268,-0.8382 -0.29492,-0.318205 -0.76059,-0.318205 -0.46567,0 -0.76835,0.318205 -0.30268,0.310445 -0.30268,0.8382 0,0.527756 0.30268,0.845961 0.30268,0.310445 0.76835,0.310445 z"
         style="font-style:normal;font-variant:normal;font-weight:bold;font-stretch:normal;font-size:10.58333302px;line-height:1;font-family:Montserrat;-inkscape-font-specification:'Montserrat Bold';letter-spacing:0px;word-spacing:0px;fill:#ffffff;fill-opacity:1;stroke:none;stroke-width:0.07000434"
         id="path1065"
         inkscape:connector-curvature="0" />
      <path
         d="m -317.14475,66.37469 q -0.21731,0 -0.37253,-0.147461 -0.15522,-0.155223 -0.15522,-0.388056 0,-0.225072 0.15522,-0.372533 0.15522,-0.155222 0.37253,-0.155222 0.21731,0 0.36478,0.147461 0.14746,0.147461 0.14746,0.380294 0,0.232833 -0.15523,0.388056 -0.14746,0.147461 -0.35701,0.147461 z"
         style="font-style:normal;font-variant:normal;font-weight:normal;font-stretch:normal;font-size:7.76111126px;line-height:1;font-family:'Montserrat Medium';-inkscape-font-specification:'Montserrat Medium, ';text-align:center;letter-spacing:0px;word-spacing:0px;text-anchor:middle;fill:#ffffff;fill-opacity:1;stroke:none;stroke-width:0.07000434"
         id="path1067"
         inkscape:connector-curvature="0" />
    </g>
    <path
       inkscape:connector-curvature="0"
       style="opacity:1;fill:#f37c34;fill-opacity:1;stroke:none;stroke-width:9.66896343;stroke-linecap:butt;stroke-linejoin:miter;stroke-miterlimit:4;stroke-dasharray:none;stroke-opacity:0.30660376"
       d="m -319.90173,101.56386 c -45.2075,-0.251 -78.46939,8.2486 -135.3706,15.19753 v 13.55111 h 198.4375 v -18.52446 c -23.3077,-5.90262 -43.8358,-10.1174 -63.0669,-10.22418 z"
       id="rect2634-5"
       sodipodi:nodetypes="sccccs" />
    <path
       style="opacity:1;fill:#f48a45;stroke:none;stroke-width:0.19126822px;stroke-linecap:butt;stroke-linejoin:miter;stroke-opacity:1;fill-opacity:1"
       d="m -273.78892,20.875114 -21.586,-0.27324 c -3.577,-0.04528 -3.54626,-10.447251 2.0493,-10.383132 1.54688,0.113716 4.50846,2.049303 4.50846,2.049303 2.4818,-3.3184613 4.55568,-4.3164658 7.24088,-3.8253652 2.03124,0.3714959 2.83354,0.5336558 4.09861,4.6450852 0,0 4.6847,-2.856228 6.42115,1.912682 0.73891,2.029337 0.80449,5.919439 -2.7324,5.874667 z"
       id="path1441"
       inkscape:connector-curvature="0"
       sodipodi:nodetypes="ssccacss" />
    <path
       style="opacity:1;fill:#f48a45;stroke:none;stroke-width:0.24014495px;stroke-linecap:butt;stroke-linejoin:miter;stroke-opacity:1;fill-opacity:1"
       d="m -435.79004,79.391741 27.10208,-0.343064 c 4.49108,-0.05685 4.45248,-13.116945 -2.57298,-13.036441 -1.94216,0.142775 -5.66056,2.572982 -5.66056,2.572982 -3.116,-4.166461 -5.71982,-5.419496 -9.0912,-4.802899 -2.5503,0.466427 -3.55764,0.670026 -5.14597,5.832091 0,0 -5.88184,-3.586109 -8.06201,2.40145 -0.92774,2.547913 -1.01008,7.432093 3.43064,7.375881 z"
       id="path1441-2"
       inkscape:connector-curvature="0"
       sodipodi:nodetypes="ssccacss" />
  </g>
</svg>
