<?xml version="1.0" encoding="UTF-8" standalone="no"?>
<!-- Created with Inkscape (http://www.inkscape.org/) -->

<svg
   xmlns:dc="http://purl.org/dc/elements/1.1/"
   xmlns:cc="http://creativecommons.org/ns#"
   xmlns:rdf="http://www.w3.org/1999/02/22-rdf-syntax-ns#"
   xmlns:svg="http://www.w3.org/2000/svg"
   xmlns="http://www.w3.org/2000/svg"
   xmlns:sodipodi="http://sodipodi.sourceforge.net/DTD/sodipodi-0.dtd"
   xmlns:inkscape="http://www.inkscape.org/namespaces/inkscape"
   width="198.43752mm"
   height="132.29167mm"
   viewBox="0 0 198.43752 132.29167"
   version="1.1"
   id="svg8"
   sodipodi:docname="estado-optimo.svg"
   inkscape:version="0.92.4 (f8dce91, 2019-08-02)">
  <defs
     id="defs2" />
  <sodipodi:namedview
     id="base"
     pagecolor="#ffffff"
     bordercolor="#666666"
     borderopacity="1.0"
     inkscape:pageopacity="0.0"
     inkscape:pageshadow="2"
     inkscape:zoom="0.7"
     inkscape:cx="377.64726"
     inkscape:cy="194.62305"
     inkscape:document-units="mm"
     inkscape:current-layer="layer1"
     showgrid="false"
     fit-margin-top="0"
     fit-margin-left="0"
     fit-margin-right="0"
     fit-margin-bottom="0"
     inkscape:window-width="1853"
     inkscape:window-height="1025"
     inkscape:window-x="1987"
     inkscape:window-y="27"
     inkscape:window-maximized="1" />
  <metadata
     id="metadata5">
    <rdf:RDF>
      <cc:Work
         rdf:about="">
        <dc:format>image/svg+xml</dc:format>
        <dc:type
           rdf:resource="http://purl.org/dc/dcmitype/StillImage" />
        <dc:title></dc:title>
      </cc:Work>
    </rdf:RDF>
  </metadata>
  <g
     inkscape:label="Layer 1"
     inkscape:groupmode="layer"
     id="layer1"
     transform="translate(455.27233,1.9791692)">
    <rect
       y="-1.9791692"
       x="-455.27231"
       height="132.29167"
       width="198.4375"
       id="rect1012"
       style="font-style:normal;font-weight:normal;font-size:10.58333302px;line-height:1;font-family:sans-serif;letter-spacing:0px;word-spacing:0px;opacity:1;fill:#ffffff;fill-opacity:1;stroke:none;stroke-width:37.4769516;stroke-linecap:butt;stroke-linejoin:miter;stroke-miterlimit:4;stroke-dasharray:none;stroke-opacity:0.30660376"
       inkscape:export-xdpi="93.503998"
       inkscape:export-ydpi="93.503998" />
    <rect
       style="opacity:0.8;fill:#f48a45;fill-opacity:1;stroke:none;stroke-width:9.66896343;stroke-linecap:butt;stroke-linejoin:miter;stroke-miterlimit:4;stroke-dasharray:none;stroke-opacity:0.30660376"
       id="rect2634"
       width="198.4375"
       height="132.29167"
       x="-455.27231"
       y="-1.9791692"
       inkscape:export-xdpi="93.503998"
       inkscape:export-ydpi="93.503998" />
    <path
       style="color:#000000;font-style:normal;font-variant:normal;font-weight:normal;font-stretch:normal;font-size:medium;line-height:normal;font-family:sans-serif;font-variant-ligatures:normal;font-variant-position:normal;font-variant-caps:normal;font-variant-numeric:normal;font-variant-alternates:normal;font-feature-settings:normal;text-indent:0;text-align:start;text-decoration:none;text-decoration-line:none;text-decoration-style:solid;text-decoration-color:#000000;letter-spacing:normal;word-spacing:normal;text-transform:none;writing-mode:lr-tb;direction:ltr;text-orientation:mixed;dominant-baseline:auto;baseline-shift:baseline;text-anchor:start;white-space:normal;shape-padding:0;clip-rule:nonzero;display:inline;overflow:visible;visibility:visible;opacity:0.5;isolation:auto;mix-blend-mode:normal;color-interpolation:sRGB;color-interpolation-filters:linearRGB;solid-color:#000000;solid-opacity:1;vector-effect:none;fill:#f48a45;fill-opacity:1;fill-rule:nonzero;stroke:none;stroke-width:26.28000069;stroke-linecap:butt;stroke-linejoin:miter;stroke-miterlimit:4;stroke-dasharray:none;stroke-dashoffset:0;stroke-opacity:1;color-rendering:auto;image-rendering:auto;shape-rendering:auto;text-rendering:auto;enable-background:accumulate"
       d="m -283.0332,-23.703125 c -31.29722,-4e-6 -56.95118,25.6539565 -56.95118,56.951172 0,31.297215 25.65396,56.949222 56.95118,56.949219 31.29721,-4e-6 56.95117,-25.652009 56.95117,-56.949219 0,-31.2972105 -25.65396,-56.951168 -56.95117,-56.951172 z m 0,26.28125 c 17.09444,2e-6 30.66992,13.575477 30.66992,30.669922 0,17.094445 -13.57548,30.66992 -30.66992,30.669922 -17.09445,2e-6 -30.66993,-13.575474 -30.66992,-30.669922 -10e-6,-17.094448 13.57547,-30.669924 30.66992,-30.669922 z"
       id="path1770"
       inkscape:connector-curvature="0" />
    <path
       style="opacity:0.5;fill:#f48a45;fill-opacity:1;stroke:none;stroke-width:17.68078232;stroke-linecap:butt;stroke-linejoin:miter;stroke-miterlimit:4;stroke-dasharray:none;stroke-opacity:1"
       inkscape:transform-center-x="4.0382796"
       inkscape:transform-center-y="-3.4441407"
       d="m -400.35622,26.707074 c -31.45969,30.148871 -37.71158,28.330297 -48.09142,-13.98903 -10.37984,-42.319326 -5.67897,-46.82433 36.16056,-34.653874 41.83954,12.1704565 43.39055,18.4940341 11.93086,48.642904 z"
       id="path1780" />
    <path
       style="color:#000000;font-style:normal;font-variant:normal;font-weight:normal;font-stretch:normal;font-size:medium;line-height:normal;font-family:sans-serif;font-variant-ligatures:normal;font-variant-position:normal;font-variant-caps:normal;font-variant-numeric:normal;font-variant-alternates:normal;font-feature-settings:normal;text-indent:0;text-align:start;text-decoration:none;text-decoration-line:none;text-decoration-style:solid;text-decoration-color:#000000;letter-spacing:normal;word-spacing:normal;text-transform:none;writing-mode:lr-tb;direction:ltr;text-orientation:mixed;dominant-baseline:auto;baseline-shift:baseline;text-anchor:start;white-space:normal;shape-padding:0;clip-rule:nonzero;display:inline;overflow:visible;visibility:visible;opacity:0.5;isolation:auto;mix-blend-mode:normal;color-interpolation:sRGB;color-interpolation-filters:linearRGB;solid-color:#000000;solid-opacity:1;vector-effect:none;fill:#f48a45;fill-opacity:1;fill-rule:nonzero;stroke:none;stroke-width:27.22250938;stroke-linecap:butt;stroke-linejoin:miter;stroke-miterlimit:4;stroke-dasharray:none;stroke-dashoffset:0;stroke-opacity:1;color-rendering:auto;image-rendering:auto;shape-rendering:auto;text-rendering:auto;enable-background:accumulate"
       d="m -401.16602,75.935547 c -1.98003,0.04037 -3.77355,0.428942 -5.14843,0.919922 -2.74976,0.98196 -4.4696,2.2381 -5.94922,3.449219 -2.95925,2.422237 -4.98922,4.969734 -7.0918,7.917968 -3.19826,4.4846 -6.2383,10.141987 -9.1543,16.296874 -4.17305,-5.01965 -8.34171,-9.576306 -12.38671,-13.01953 -2.75745,-2.347216 -5.34647,-4.322796 -8.80664,-5.951172 -1.73009,-0.814188 -3.7052,-1.613967 -6.61133,-1.896484 -2.90614,-0.282517 -7.33374,0.243486 -11.01367,3.021484 -3.67991,2.778049 -5.3974,6.891323 -5.92188,9.763672 -0.52448,2.872349 -0.29733,4.99195 0.0117,6.87891 0.61809,3.7739 1.80859,6.8046 3.31055,10.09961 3.00391,6.59 7.49649,13.83951 13.17187,21.35742 5.67539,7.51791 11.41674,13.82314 16.93164,18.51758 2.75745,2.34721 5.34646,4.32279 8.80664,5.95117 1.73009,0.81419 3.70517,1.61397 6.61133,1.89648 0.97705,0.095 2.27302,-0.0997 3.50781,-0.24219 0.0159,0.002 0.0309,0.006 0.0469,0.008 6.21657,0.84306 13.34961,0.8373 21.34179,0.17382 1.98976,-0.16518 4.02593,-0.3749 6.09571,-0.63085 9.3484,-1.15608 17.679,-2.97548 24.50195,-5.4043 3.41147,-1.21441 6.41829,-2.46798 9.55859,-4.65039 1.57016,-1.09121 3.24953,-2.4018 4.94727,-4.77735 1.69774,-2.37554 3.45651,-6.47289 2.89063,-11.04882 -0.56585,-4.57594 -3.26885,-8.1213 -5.49415,-10.01172 -2.22529,-1.89043 -4.17421,-2.7519 -5.96289,-3.42774 -3.57735,-1.35168 -6.7978,-1.83486 -10.40234,-2.18164 -5.12033,-0.4926 -11.0784,-0.33547 -17.34961,0.11524 2.15167,-5.90796 3.9342,-11.59479 4.86328,-16.6543 0.65403,-3.561626 1.06987,-6.792727 0.75,-10.603516 -0.15993,-1.905394 -0.4537,-4.015776 -1.66211,-6.673828 -1.20841,-2.658051 -3.87725,-6.229439 -8.12304,-8.027344 -2.12292,-0.898926 -4.2895,-1.206382 -6.26954,-1.166015 z"
       id="path1799-7-4"
       inkscape:connector-curvature="0" />
  </g>
</svg>
