<?xml version="1.0" encoding="UTF-8" standalone="no"?>
<svg
   xmlns:dc="http://purl.org/dc/elements/1.1/"
   xmlns:cc="http://creativecommons.org/ns#"
   xmlns:rdf="http://www.w3.org/1999/02/22-rdf-syntax-ns#"
   xmlns:svg="http://www.w3.org/2000/svg"
   xmlns="http://www.w3.org/2000/svg"
   xmlns:sodipodi="http://sodipodi.sourceforge.net/DTD/sodipodi-0.dtd"
   xmlns:inkscape="http://www.inkscape.org/namespaces/inkscape"
   id="svg1025"
   version="1.1"
   viewBox="0 0 58.208332 26.458333"
   height="100"
   width="220"
   sodipodi:docname="logo_with_text.svg"
   inkscape:version="0.92.4 (33fec40, 2019-01-16)">
  <sodipodi:namedview
     pagecolor="#ffffff"
     bordercolor="#666666"
     borderopacity="1"
     objecttolerance="10"
     gridtolerance="10"
     guidetolerance="10"
     inkscape:pageopacity="0"
     inkscape:pageshadow="2"
     inkscape:window-width="1853"
     inkscape:window-height="1025"
     id="namedview21"
     showgrid="false"
     inkscape:zoom="2.36"
     inkscape:cx="50"
     inkscape:cy="-17.79661"
     inkscape:window-x="67"
     inkscape:window-y="27"
     inkscape:window-maximized="1"
     inkscape:current-layer="text817-0" />
  <defs
     id="defs1019">
    <filter
       height="1.0418968"
       y="-0.020948401"
       width="1.0168166"
       x="-0.0084082847"
       id="filter937"
       style="color-interpolation-filters:sRGB">
      <feGaussianBlur
         id="feGaussianBlur939"
         stdDeviation="0.25387168" />
    </filter>
  </defs>
  <metadata
     id="metadata1022">
    <rdf:RDF>
      <cc:Work
         rdf:about="">
        <dc:format>image/svg+xml</dc:format>
        <dc:type
           rdf:resource="http://purl.org/dc/dcmitype/StillImage" />
        <dc:title></dc:title>
      </cc:Work>
    </rdf:RDF>
  </metadata>
  <g
     transform="translate(0,-270.54167)"
     id="layer1">
    <g
       transform="matrix(0.21393647,0,0,0.21393647,698.1728,47.029427)"
       id="g958">
      <g
         style="fill:#9242ea;fill-opacity:1"
         id="g2767">
        <path
           style="fill:#9242ea;fill-opacity:1;stroke-width:0.19744781"
           d="m -3216.5658,1115.7632 c -19.2851,-3.0659 -31.3579,-11.2839 -37.3217,-25.4051 -2.6326,-6.2335 -3.8649,-12.7815 -4.0848,-21.7029 l -0.1154,-4.6903 0.5719,0.098 c 0.3145,0.054 2.1449,0.366 4.0676,0.6934 1.9225,0.3274 5.2545,0.9524 7.4042,1.3888 4.464,0.9063 4.2378,0.7701 5.3998,3.251 1.3775,2.9405 1.8137,5.6113 2.1608,13.229 0.2166,4.7504 0.4933,6.8268 1.4054,10.5474 1.5984,6.5201 4.0826,11.2652 7.8643,15.0221 3.1419,3.1213 6.9662,5.3356 11.7593,6.8088 1.3032,0.4005 2.4583,0.758 2.5669,0.7943 0.2694,0.09 -1.0659,0.062 -1.6783,-0.035 z"
           id="path3811-6-4-2-0-2"
           inkscape:connector-curvature="0" />
        <path
           style="fill:#9242ea;fill-opacity:1;stroke-width:0.19744781"
           d="m -3209.3894,1110.9463 c -8.8348,-1.8562 -16.3235,-7.8594 -18.7027,-14.9931 -0.7068,-2.1191 -0.918,-4.6283 -1.1133,-13.229 -0.1124,-4.9487 -0.2819,-8.3863 -0.486,-9.8498 -0.1722,-1.2364 -0.2772,-2.2841 -0.233,-2.3283 0.044,-0.044 1.002,0.2684 2.1287,0.6945 9.316,3.5232 15.652,7.8349 20.7922,14.1491 l 1.1251,1.3821 -0.1149,7.3056 c -0.063,4.0181 -0.1679,9.5491 -0.2324,12.2911 l -0.1174,4.9856 -0.6194,-0.014 c -0.3407,-0.01 -1.4329,-0.1849 -2.4269,-0.3937 z"
           id="path3813-0-1-0-4-21"
           inkscape:connector-curvature="0" />
        <path
           style="fill:#9242ea;fill-opacity:1;stroke-width:0.19744781"
           d="m -3197.113,1099.0812 -0.1461,-12.4073 1.438,-1.7281 c 3.8089,-4.5769 8.1741,-7.9853 13.9073,-10.8587 2.8345,-1.4206 8.513,-3.7627 8.6726,-3.5769 0.034,0.04 -0.061,0.8706 -0.2086,1.848 -0.1523,1.0041 -0.3534,4.9977 -0.4625,9.1813 -0.2911,11.1682 -0.5284,13.2013 -1.8833,16.1369 -3.1876,6.9069 -10.7757,12.1476 -19.6447,13.5677 l -1.5264,0.2445 z"
           id="path3815-6-9-2-0-7"
           inkscape:connector-curvature="0" />
        <path
           style="fill:#9242ea;fill-opacity:1;stroke-width:0.19744781"
           d="m -3188.6269,1115.859 c 12.2404,-2.9909 19.1376,-9.7725 22.3013,-21.9277 0.997,-3.83 1.2704,-5.5309 1.4961,-9.304 0.497,-8.3106 0.607,-9.6081 0.9581,-11.2933 0.4247,-2.0385 1.0813,-3.7772 1.9974,-5.2887 l 0.6324,-1.0435 3.5839,-0.7576 c 1.9713,-0.4166 5.5388,-1.0881 7.9279,-1.4923 l 4.3438,-0.7347 0.1425,1.2087 c 0.3231,2.742 -0.2871,10.9717 -1.1351,15.3106 -2.9566,15.1264 -11.1204,25.3564 -24.8128,31.0931 -4.0612,1.7014 -8.6292,2.9569 -14.1414,3.8866 -3.3651,0.5676 -4.8436,0.7214 -3.2941,0.3428 z"
           id="path3817-2-0-1-1-2"
           inkscape:connector-curvature="0" />
      </g>
      <path
         style="fill:#7414dc;fill-opacity:1;stroke-width:0.19744781;filter:url(#filter937)"
         d="m -3179.8638,1148.4651 c -5.9233,-0.5277 -10.9229,-2.6007 -15.9206,-6.6016 l -1.4316,-1.1458 v -10.4277 -10.4277 l 0.7405,-0.1569 c 1.4655,-0.3105 8.31,-0.1733 10.193,0.2044 6.6182,1.3273 11.6937,4.4175 15.4494,9.4065 3.3209,4.4113 5.4062,10.6388 5.4062,16.1446 v 1.9746 l -2.6368,0.4204 c -4.7397,0.7557 -8.1684,0.9327 -11.8001,0.6092 z"
         id="path3819-6-9-7-3-4"
         inkscape:connector-curvature="0" />
      <path
         style="fill:#7414dc;fill-opacity:1;stroke-width:0.19744781;filter:url(#filter937)"
         d="m -3230.4859,1148.4565 c -1.0859,-0.088 -3.1962,-0.3575 -4.6895,-0.599 l -2.7148,-0.439 v -1.1582 c 0,-3.1678 0.8572,-7.6959 2.0108,-10.6201 3.3157,-8.4061 9.6015,-13.6909 18.6019,-15.6398 1.675,-0.3626 2.6445,-0.4335 6.0428,-0.4419 2.2262,-0.01 4.292,0.058 4.5906,0.1417 l 0.543,0.1516 v 10.4538 10.4538 l -1.234,1.0289 c -6.3966,5.3331 -13.6922,7.4344 -23.1508,6.6682 z"
         id="path3821-1-8-5-7-1"
         inkscape:connector-curvature="0" />
      <g
         style="fill:#7414dc;fill-opacity:1"
         id="g2773">
        <path
           style="opacity:0.73200061;fill:#7414dc;fill-opacity:1;stroke:none;stroke-width:1.01174331;stroke-miterlimit:4;stroke-dasharray:none"
           d="m -12245.8,4334.7779 c -28.885,-6.0929 -52.045,-15.3145 -71.873,-28.6171 -26.594,-17.8425 -44.708,-41.3516 -56.115,-72.8271 -6.501,-17.9408 -10.482,-40.1992 -11.836,-66.1878 l -0.526,-10.1015 3.344,9.0914 c 12.352,33.5774 35.615,63.0825 67.391,85.4735 8.523,6.0055 9.053,6.599 10.577,11.8407 0.882,3.0351 3.292,9.4278 5.354,14.2061 11.776,27.2774 32.59,46.3295 61.874,56.6353 10.254,3.6086 7.412,3.7774 -8.19,0.4865 z"
           id="path2755"
           transform="matrix(0.26458333,0,0,0.26458333,19.243406,-32.072343)"
           inkscape:connector-curvature="0" />
        <path
           style="opacity:0.73200061;fill:#7414dc;fill-opacity:1;stroke:none;stroke-width:0.35770527;stroke-miterlimit:4;stroke-dasharray:none"
           d="m -12197.01,4320.974 c -24.575,-3.8519 -48.152,-16.7465 -62.877,-34.388 -3.063,-3.6701 -6.576,-8.5894 -6.318,-8.8475 0.09,-0.09 1.593,0.3806 3.34,1.0462 19.31,7.3565 45.007,12.9917 67.779,14.8635 2.335,0.192 4.273,0.3941 4.307,0.4492 0.03,0.055 -0.05,4.6806 -0.193,10.2788 -0.14,5.5982 -0.27,11.7455 -0.289,13.6607 l -0.03,3.4821 -1.34,-0.035 c -0.736,-0.019 -2.705,-0.2487 -4.375,-0.5104 z"
           id="path2757"
           transform="matrix(0.26458333,0,0,0.26458333,19.243406,-32.072343)"
           inkscape:connector-curvature="0" />
        <path
           style="opacity:0.73200061;fill:#7414dc;fill-opacity:1;stroke:none;stroke-width:0.35770527;stroke-miterlimit:4;stroke-dasharray:none"
           d="m -12155.702,4312.1753 c -0.13,-5.3355 -0.236,-11.5935 -0.236,-13.9067 v -4.2058 l 1.518,-0.1801 c 0.835,-0.099 4.25,-0.4436 7.589,-0.7656 20.267,-1.9545 41.137,-6.607 60.262,-13.4341 3.323,-1.1864 6.125,-2.0746 6.226,-1.9738 0.101,0.1009 -0.489,1.1733 -1.311,2.3832 -2.814,4.1444 -7.055,9.1069 -11.294,13.2167 -14.755,14.3064 -34,23.6922 -56.726,27.6657 -2.835,0.4957 -5.298,0.9014 -5.474,0.9014 -0.175,0 -0.424,-4.3654 -0.554,-9.7009 z"
           id="path2759"
           transform="matrix(0.26458333,0,0,0.26458333,19.243406,-32.072343)"
           inkscape:connector-curvature="0" />
        <path
           style="opacity:0.73200061;fill:#7414dc;fill-opacity:1;stroke:none;stroke-width:0.35770527;stroke-miterlimit:4;stroke-dasharray:none"
           d="m -12119.688,4337.6193 c 36.575,-10.2956 59.17,-29.1181 72.702,-60.5645 1.697,-3.9421 5.467,-14.7314 6.39,-18.285 0.36,-1.3865 0.697,-1.7041 4.485,-4.2262 37.226,-24.7906 63.361,-58.953 74.618,-97.5382 l 1.236,-4.2364 0.01,5.5358 c 0.03,12.6876 -2.287,35.9656 -4.837,48.5714 -5.612,27.7324 -16.246,51.4189 -31.825,70.8867 -3.751,4.6865 -12.153,13.388 -16.879,17.4801 -20.119,17.4185 -45.416,29.908 -75.546,37.2971 -9.926,2.4343 -27.12,5.6841 -33.214,6.2779 -1.808,0.1762 -1.361,-0.011 2.857,-1.1987 z"
           id="path2761"
           transform="matrix(0.26458333,0,0,0.26458333,19.243406,-32.072343)"
           inkscape:connector-curvature="0" />
      </g>
    </g>
  </g>
  <g
     aria-label="Associació
Benestar
Psicològic"
     style="font-style:normal;font-weight:normal;font-size:2.93144822px;line-height:1.25;font-family:sans-serif;letter-spacing:0px;word-spacing:0px;fill:#555555;fill-opacity:1;stroke:none;stroke-width:0.07328621"
     id="text817-0">
    <path
       d="m 31.047552,8.642039 h -1.378697 l -0.217568,0.6229327 h -0.886305 l 1.266477,-3.4192595 h 1.051199 l 1.266477,3.4192595 H 31.26283 Z M 29.888714,8.0076553 h 0.936689 L 30.358204,6.6472801 Z"
       style="font-style:normal;font-variant:normal;font-weight:bold;font-stretch:normal;font-size:4.69031715px;font-family:'Samyak Devanagari';-inkscape-font-specification:'Samyak Devanagari Bold';fill:#000000;fill-opacity:1;stroke-width:0.07328621"
       id="path883" />
    <path
       d="m 34.56758,6.7801113 v 0.6229328 q -0.263372,-0.1099293 -0.508423,-0.164894 -0.245051,-0.054965 -0.462619,-0.054965 -0.2336,0 -0.34811,0.059545 -0.112219,0.057255 -0.112219,0.1786351 0,0.098478 0.08474,0.1511528 0.08703,0.052675 0.309176,0.077867 l 0.144283,0.020612 q 0.629803,0.080157 0.847371,0.2633723 0.217569,0.1832155 0.217569,0.5748386 0,0.4099448 -0.302306,0.6160622 -0.302306,0.2061175 -0.902336,0.2061175 -0.254212,0 -0.526745,-0.041224 -0.270243,-0.038933 -0.556517,-0.1190901 V 8.548141 q 0.245051,0.1190901 0.501552,0.1786352 0.258792,0.059545 0.524455,0.059545 0.24047,0 0.36185,-0.066416 0.121381,-0.066416 0.121381,-0.1969567 0,-0.1099293 -0.08474,-0.1626038 -0.08245,-0.054965 -0.332079,-0.084737 L 33.399581,8.2572864 Q 32.852225,8.1885806 32.632366,8.0030749 32.412508,7.8175692 32.412508,7.4396872 q 0,-0.4076545 0.279403,-0.6046112 0.279404,-0.1969567 0.856533,-0.1969567 0.226729,0 0.47636,0.034353 0.249631,0.034353 0.542776,0.1076391 z"
       style="font-style:normal;font-variant:normal;font-weight:bold;font-stretch:normal;font-size:4.69031715px;font-family:'Samyak Devanagari';-inkscape-font-specification:'Samyak Devanagari Bold';fill:#000000;fill-opacity:1;stroke-width:0.07328621"
       id="path885" />
    <path
       d="m 37.361617,6.7801113 v 0.6229328 q -0.263373,-0.1099293 -0.508423,-0.164894 -0.245051,-0.054965 -0.462619,-0.054965 -0.2336,0 -0.34811,0.059545 -0.112219,0.057255 -0.112219,0.1786351 0,0.098478 0.08474,0.1511528 0.08703,0.052675 0.309176,0.077867 l 0.144282,0.020612 q 0.629803,0.080157 0.847372,0.2633723 0.217568,0.1832155 0.217568,0.5748386 0,0.4099448 -0.302305,0.6160622 -0.302306,0.2061175 -0.902337,0.2061175 -0.254211,0 -0.526744,-0.041224 -0.270243,-0.038933 -0.556517,-0.1190901 V 8.548141 q 0.24505,0.1190901 0.501552,0.1786352 0.258792,0.059545 0.524454,0.059545 0.240471,0 0.361851,-0.066416 0.12138,-0.066416 0.12138,-0.1969567 0,-0.1099293 -0.08474,-0.1626038 Q 36.587531,8.3053805 36.3379,8.275608 L 36.193618,8.2572864 Q 35.646262,8.1885806 35.426403,8.0030749 35.206544,7.8175692 35.206544,7.4396872 q 0,-0.4076545 0.279404,-0.6046112 0.279404,-0.1969567 0.856532,-0.1969567 0.22673,0 0.476361,0.034353 0.249631,0.034353 0.542776,0.1076391 z"
       style="font-style:normal;font-variant:normal;font-weight:bold;font-stretch:normal;font-size:4.69031715px;font-family:'Samyak Devanagari';-inkscape-font-specification:'Samyak Devanagari Bold';fill:#000000;fill-opacity:1;stroke-width:0.07328621"
       id="path887" />
    <path
       d="m 39.372407,7.2244089 q -0.272533,0 -0.416815,0.1969567 -0.141992,0.1946665 -0.141992,0.5633877 0,0.3687213 0.141992,0.5656779 0.144282,0.1946665 0.416815,0.1946665 0.267953,0 0.409945,-0.1946665 0.141992,-0.1969566 0.141992,-0.5656779 0,-0.3687212 -0.141992,-0.5633877 Q 39.64036,7.2244089 39.372407,7.2244089 Z m 0,-0.5862896 q 0.661866,0 1.032877,0.3572703 0.373302,0.3572702 0.373302,0.9893637 0,0.6320936 -0.373302,0.9893638 -0.371011,0.3572703 -1.032877,0.3572703 -0.664156,0 -1.039748,-0.3572703 -0.373302,-0.3572702 -0.373302,-0.9893638 0,-0.6320935 0.373302,-0.9893637 0.375592,-0.3572703 1.039748,-0.3572703 z"
       style="font-style:normal;font-variant:normal;font-weight:bold;font-stretch:normal;font-size:4.69031715px;font-family:'Samyak Devanagari';-inkscape-font-specification:'Samyak Devanagari Bold';fill:#000000;fill-opacity:1;stroke-width:0.07328621"
       id="path889" />
    <path
       d="M 43.448952,6.7801113 V 7.448848 q -0.167184,-0.1145097 -0.336658,-0.1694744 -0.167185,-0.054965 -0.34811,-0.054965 -0.343529,0 -0.535905,0.2015371 -0.190086,0.1992469 -0.190086,0.5588073 0,0.3595605 0.190086,0.5610975 0.192376,0.1992469 0.535905,0.1992469 0.192376,0 0.364141,-0.057255 0.174055,-0.057255 0.320627,-0.1694744 v 0.6710268 q -0.192376,0.070996 -0.391623,0.105349 -0.196957,0.036643 -0.396204,0.036643 -0.693928,0 -1.085551,-0.3549801 -0.391624,-0.3572703 -0.391624,-0.991654 0,-0.6343837 0.391624,-0.9893637 0.391623,-0.3572703 1.085551,-0.3572703 0.201538,0 0.396204,0.036643 0.196957,0.034353 0.391623,0.1053489 z"
       style="font-style:normal;font-variant:normal;font-weight:bold;font-stretch:normal;font-size:4.69031715px;font-family:'Samyak Devanagari';-inkscape-font-specification:'Samyak Devanagari Bold';fill:#000000;fill-opacity:1;stroke-width:0.07328621"
       id="path891" />
    <path
       d="m 44.161203,6.6999545 h 0.819889 v 2.5650172 h -0.819889 z m 0,-0.9985245 h 0.819889 v 0.6687366 h -0.819889 z"
       style="font-style:normal;font-variant:normal;font-weight:bold;font-stretch:normal;font-size:4.69031715px;font-family:'Samyak Devanagari';-inkscape-font-specification:'Samyak Devanagari Bold';fill:#000000;fill-opacity:1;stroke-width:0.07328621"
       id="path893" />
    <path
       d="m 46.923176,8.110714 q -0.256502,0 -0.387043,0.087027 -0.128251,0.087027 -0.128251,0.2565017 0,0.1557332 0.103059,0.2450507 0.105349,0.087027 0.290855,0.087027 0.231309,0 0.389333,-0.164894 0.158023,-0.1671841 0.158023,-0.4168153 V 8.110714 Z m 1.252736,-0.3091762 v 1.4634339 h -0.82676 V 8.8847995 q -0.164894,0.2335998 -0.371011,0.3412389 -0.206118,0.105349 -0.501553,0.105349 -0.398494,0 -0.648125,-0.2313096 -0.247341,-0.2335998 -0.247341,-0.6046112 0,-0.4511682 0.309177,-0.6618661 0.311466,-0.2106978 0.975622,-0.2106978 h 0.483231 v -0.064125 q 0,-0.1946665 -0.153443,-0.2839841 -0.153443,-0.091608 -0.47865,-0.091608 -0.263373,0 -0.490102,0.052674 -0.226729,0.052674 -0.421396,0.1580234 V 6.7686604 q 0.263373,-0.064126 0.529035,-0.096188 0.265663,-0.034353 0.531325,-0.034353 0.693929,0 1.000815,0.2748233 0.309176,0.2725331 0.309176,0.8885952 z"
       style="font-style:normal;font-variant:normal;font-weight:bold;font-stretch:normal;font-size:4.69031715px;font-family:'Samyak Devanagari';-inkscape-font-specification:'Samyak Devanagari Bold';fill:#000000;fill-opacity:1;stroke-width:0.07328621"
       id="path895" />
    <path
       d="M 51.015752,6.7801113 V 7.448848 q -0.167184,-0.1145097 -0.336658,-0.1694744 -0.167184,-0.054965 -0.34811,-0.054965 -0.343529,0 -0.535905,0.2015371 -0.190086,0.1992469 -0.190086,0.5588073 0,0.3595605 0.190086,0.5610975 0.192376,0.1992469 0.535905,0.1992469 0.192377,0 0.364141,-0.057255 0.174055,-0.057255 0.320627,-0.1694744 v 0.6710268 q -0.192376,0.070996 -0.391623,0.105349 -0.196957,0.036643 -0.396203,0.036643 -0.693929,0 -1.085552,-0.3549801 -0.391624,-0.3572703 -0.391624,-0.991654 0,-0.6343837 0.391624,-0.9893637 0.391623,-0.3572703 1.085552,-0.3572703 0.201537,0 0.396203,0.036643 0.196957,0.034353 0.391623,0.1053489 z"
       style="font-style:normal;font-variant:normal;font-weight:bold;font-stretch:normal;font-size:4.69031715px;font-family:'Samyak Devanagari';-inkscape-font-specification:'Samyak Devanagari Bold';fill:#000000;fill-opacity:1;stroke-width:0.07328621"
       id="path897" />
    <path
       d="m 51.728005,6.6999545 h 0.819889 v 2.5650172 h -0.819889 z m 0,-0.9985245 h 0.819889 v 0.6687366 h -0.819889 z"
       style="font-style:normal;font-variant:normal;font-weight:bold;font-stretch:normal;font-size:4.69031715px;font-family:'Samyak Devanagari';-inkscape-font-specification:'Samyak Devanagari Bold';fill:#000000;fill-opacity:1;stroke-width:0.07328621"
       id="path899" />
    <path
       d="m 54.560973,7.2244089 q -0.272533,0 -0.416815,0.1969567 -0.141992,0.1946665 -0.141992,0.5633877 0,0.3687213 0.141992,0.5656779 0.144282,0.1946665 0.416815,0.1946665 0.267953,0 0.409945,-0.1946665 0.141992,-0.1969566 0.141992,-0.5656779 0,-0.3687212 -0.141992,-0.5633877 -0.141992,-0.1969567 -0.409945,-0.1969567 z m 0,-0.5862896 q 0.661866,0 1.032878,0.3572703 0.373301,0.3572702 0.373301,0.9893637 0,0.6320936 -0.373301,0.9893638 -0.371012,0.3572703 -1.032878,0.3572703 -0.664156,0 -1.039748,-0.3572703 -0.373302,-0.3572702 -0.373302,-0.9893638 0,-0.6320935 0.373302,-0.9893637 0.375592,-0.3572703 1.039748,-0.3572703 z m 0.35956,-1.1244852 h 0.648125 L 54.723577,6.374747 h -0.448878 z"
       style="font-style:normal;font-variant:normal;font-weight:bold;font-stretch:normal;font-size:4.69031715px;font-family:'Samyak Devanagari';-inkscape-font-specification:'Samyak Devanagari Bold';fill:#000000;fill-opacity:1;stroke-width:0.07328621"
       id="path901" />
    <path
       d="m 30.342172,13.032341 q 0.208408,0 0.316047,-0.09161 0.107639,-0.09161 0.107639,-0.270243 0,-0.176345 -0.107639,-0.267953 -0.107639,-0.0939 -0.316047,-0.0939 h -0.487811 v 0.723702 z m 0.02977,1.495496 q 0.265662,0 0.398494,-0.112219 0.135121,-0.11222 0.135121,-0.338949 0,-0.222149 -0.132831,-0.332078 -0.132831,-0.112219 -0.400784,-0.112219 h -0.517584 v 0.895465 z m 0.819889,-1.229834 q 0.283984,0.08245 0.439718,0.304596 0.155733,0.222149 0.155733,0.545066 0,0.494682 -0.334369,0.737443 -0.334368,0.24276 -1.016846,0.24276 h -1.463434 v -3.419259 h 1.323732 q 0.712251,0 1.030588,0.215278 0.320627,0.215278 0.320627,0.689348 0,0.249631 -0.1168,0.425976 -0.1168,0.174055 -0.338949,0.258792 z"
       style="font-style:normal;font-variant:normal;font-weight:bold;font-stretch:normal;font-size:4.69031715px;font-family:'Samyak Devanagari';-inkscape-font-specification:'Samyak Devanagari Bold';fill:#000000;fill-opacity:1;stroke-width:0.07328621"
       id="path903" />
    <path
       d="m 35.069132,13.838489 v 0.2336 H 33.15224 q 0.02977,0.288564 0.208408,0.432846 0.178635,0.144283 0.499262,0.144283 0.258792,0 0.529035,-0.07558 0.272533,-0.07787 0.558807,-0.2336 v 0.632094 q -0.290854,0.109929 -0.581709,0.164894 -0.290855,0.05725 -0.581709,0.05725 -0.696219,0 -1.083262,-0.35269 -0.384753,-0.35498 -0.384753,-0.993944 0,-0.627513 0.377882,-0.987074 0.380173,-0.35956 1.044329,-0.35956 0.604611,0 0.966462,0.364141 0.36414,0.36414 0.36414,0.973332 z m -0.842791,-0.272533 q 0,-0.2336 -0.137412,-0.375592 -0.135121,-0.144282 -0.35498,-0.144282 -0.23818,0 -0.387042,0.135121 -0.148863,0.132832 -0.185506,0.384753 z"
       style="font-style:normal;font-variant:normal;font-weight:bold;font-stretch:normal;font-size:4.69031715px;font-family:'Samyak Devanagari';-inkscape-font-specification:'Samyak Devanagari Bold';fill:#000000;fill-opacity:1;stroke-width:0.07328621"
       id="path905" />
    <path
       d="m 38.266243,13.565956 v 1.561912 h -0.82447 v -0.254211 -0.94127 q 0,-0.332078 -0.01603,-0.458039 -0.01374,-0.125961 -0.05038,-0.185506 -0.04809,-0.08016 -0.130541,-0.12367 -0.08245,-0.0458 -0.187796,-0.0458 -0.256502,0 -0.403074,0.199247 -0.146573,0.196957 -0.146573,0.547356 v 1.261897 h -0.819889 v -2.565017 h 0.819889 v 0.375592 q 0.185506,-0.224439 0.393914,-0.329788 0.208407,-0.107639 0.460329,-0.107639 0.444297,0 0.673317,0.272533 0.231309,0.272533 0.231309,0.792407 z"
       style="font-style:normal;font-variant:normal;font-weight:bold;font-stretch:normal;font-size:4.69031715px;font-family:'Samyak Devanagari';-inkscape-font-specification:'Samyak Devanagari Bold';fill:#000000;fill-opacity:1;stroke-width:0.07328621"
       id="path907" />
    <path
       d="m 41.591605,13.838489 v 0.2336 h -1.916892 q 0.02977,0.288564 0.208407,0.432846 0.178635,0.144283 0.499262,0.144283 0.258792,0 0.529035,-0.07558 0.272533,-0.07787 0.558808,-0.2336 v 0.632094 q -0.290855,0.109929 -0.58171,0.164894 -0.290854,0.05725 -0.581709,0.05725 -0.696219,0 -1.083262,-0.35269 -0.384752,-0.35498 -0.384752,-0.993944 0,-0.627513 0.377882,-0.987074 0.380172,-0.35956 1.044328,-0.35956 0.604611,0 0.966462,0.364141 0.364141,0.36414 0.364141,0.973332 z m -0.842791,-0.272533 q 0,-0.2336 -0.137412,-0.375592 -0.135122,-0.144282 -0.35498,-0.144282 -0.23818,0 -0.387043,0.135121 -0.148863,0.132832 -0.185506,0.384753 z"
       style="font-style:normal;font-variant:normal;font-weight:bold;font-stretch:normal;font-size:4.69031715px;font-family:'Samyak Devanagari';-inkscape-font-specification:'Samyak Devanagari Bold';fill:#000000;fill-opacity:1;stroke-width:0.07328621"
       id="path909" />
    <path
       d="m 44.213877,12.643008 v 0.622933 q -0.263372,-0.10993 -0.508423,-0.164894 -0.245051,-0.05496 -0.462619,-0.05496 -0.2336,0 -0.34811,0.05954 -0.112219,0.05725 -0.112219,0.178635 0,0.09848 0.08474,0.151153 0.08703,0.05267 0.309176,0.07787 l 0.144282,0.02061 q 0.629804,0.08016 0.847372,0.263373 0.217568,0.183215 0.217568,0.574838 0,0.409945 -0.302305,0.616062 -0.302306,0.206118 -0.902337,0.206118 -0.254211,0 -0.526744,-0.04122 -0.270243,-0.03893 -0.556517,-0.11909 v -0.622933 q 0.24505,0.119091 0.501552,0.178636 0.258792,0.05954 0.524455,0.05954 0.24047,0 0.36185,-0.06642 0.121381,-0.06642 0.121381,-0.196957 0,-0.109929 -0.08474,-0.162603 -0.08245,-0.05497 -0.332078,-0.08474 l -0.144282,-0.01832 q -0.547356,-0.06871 -0.767215,-0.254212 -0.219859,-0.185505 -0.219859,-0.563387 0,-0.407655 0.279404,-0.604612 0.279404,-0.196956 0.856533,-0.196956 0.226729,0 0.47636,0.03435 0.249631,0.03435 0.542776,0.107639 z"
       style="font-style:normal;font-variant:normal;font-weight:bold;font-stretch:normal;font-size:4.69031715px;font-family:'Samyak Devanagari';-inkscape-font-specification:'Samyak Devanagari Bold';fill:#000000;fill-opacity:1;stroke-width:0.07328621"
       id="path911" />
    <path
       d="m 45.89946,11.834569 v 0.728282 h 0.845081 v 0.58629 H 45.89946 v 1.087842 q 0,0.178635 0.071,0.24276 0.071,0.06184 0.281694,0.06184 h 0.421395 v 0.586289 h -0.703089 q -0.485521,0 -0.689348,-0.201537 -0.201538,-0.203827 -0.201538,-0.689348 v -1.087842 h -0.407654 v -0.58629 h 0.407654 v -0.728282 z"
       style="font-style:normal;font-variant:normal;font-weight:bold;font-stretch:normal;font-size:4.69031715px;font-family:'Samyak Devanagari';-inkscape-font-specification:'Samyak Devanagari Bold';fill:#000000;fill-opacity:1;stroke-width:0.07328621"
       id="path913" />
    <path
       d="m 48.398062,13.97361 q -0.256502,0 -0.387043,0.08703 -0.128251,0.08703 -0.128251,0.256502 0,0.155733 0.103059,0.24505 0.105349,0.08703 0.290855,0.08703 0.231309,0 0.389333,-0.164894 0.158023,-0.167184 0.158023,-0.416816 v -0.0939 z m 1.252736,-0.309176 v 1.463434 h -0.82676 v -0.380172 q -0.164894,0.2336 -0.371011,0.341239 -0.206118,0.105349 -0.501553,0.105349 -0.398494,0 -0.648125,-0.23131 -0.247341,-0.2336 -0.247341,-0.604611 0,-0.451168 0.309176,-0.661866 0.311467,-0.210698 0.975623,-0.210698 h 0.483231 v -0.06413 q 0,-0.194667 -0.153443,-0.283984 -0.153443,-0.09161 -0.478651,-0.09161 -0.263372,0 -0.490101,0.05267 -0.226729,0.05268 -0.421396,0.158024 v -0.625223 q 0.263373,-0.06413 0.529035,-0.09619 0.265663,-0.03435 0.531325,-0.03435 0.693929,0 1.000815,0.274823 0.309176,0.272533 0.309176,0.888595 z"
       style="font-style:normal;font-variant:normal;font-weight:bold;font-stretch:normal;font-size:4.69031715px;font-family:'Samyak Devanagari';-inkscape-font-specification:'Samyak Devanagari Bold';fill:#000000;fill-opacity:1;stroke-width:0.07328621"
       id="path915" />
    <path
       d="m 52.323454,13.26136 q -0.107639,-0.05038 -0.215278,-0.07329 -0.105349,-0.02519 -0.212988,-0.02519 -0.316047,0 -0.487812,0.203827 -0.169474,0.201537 -0.169474,0.579419 v 1.18174 h -0.819889 v -2.565017 h 0.819889 v 0.421396 q 0.158024,-0.251922 0.361851,-0.366431 0.206117,-0.1168 0.492391,-0.1168 0.04122,0 0.08932,0.0046 0.04809,0.0023 0.139702,0.01374 z"
       style="font-style:normal;font-variant:normal;font-weight:bold;font-stretch:normal;font-size:4.69031715px;font-family:'Samyak Devanagari';-inkscape-font-specification:'Samyak Devanagari Bold';fill:#000000;fill-opacity:1;stroke-width:0.07328621"
       id="path917" />
    <path
       d="m 28.972636,17.571505 h 1.463434 q 0.652706,0 1.000815,0.290855 0.3504,0.288564 0.3504,0.82447 0,0.538195 -0.3504,0.82905 -0.348109,0.288564 -1.000815,0.288564 h -0.581709 v 1.186321 h -0.881725 z m 0.881725,0.638964 v 0.955011 h 0.487811 q 0.256502,0 0.396204,-0.12367 0.139702,-0.125961 0.139702,-0.35498 0,-0.22902 -0.139702,-0.35269 -0.139702,-0.123671 -0.396204,-0.123671 z"
       style="font-style:normal;font-variant:normal;font-weight:bold;font-stretch:normal;font-size:4.69031715px;font-family:'Samyak Devanagari';-inkscape-font-specification:'Samyak Devanagari Bold';fill:#000000;fill-opacity:1;stroke-width:0.07328621"
       id="path919" />
    <path
       d="m 34.292757,18.505904 v 0.622933 q -0.263372,-0.109929 -0.508423,-0.164894 -0.245051,-0.05496 -0.462619,-0.05496 -0.2336,0 -0.34811,0.05954 -0.112219,0.05725 -0.112219,0.178636 0,0.09848 0.08474,0.151152 0.08703,0.05267 0.309176,0.07787 l 0.144282,0.02061 q 0.629804,0.08016 0.847372,0.263372 0.217569,0.183215 0.217569,0.574839 0,0.409944 -0.302306,0.616062 -0.302306,0.206117 -0.902336,0.206117 -0.254212,0 -0.526745,-0.04122 -0.270243,-0.03893 -0.556517,-0.11909 v -0.622933 q 0.245051,0.11909 0.501552,0.178635 0.258792,0.05954 0.524455,0.05954 0.24047,0 0.36185,-0.06642 0.121381,-0.06641 0.121381,-0.196956 0,-0.10993 -0.08474,-0.162604 -0.08245,-0.05496 -0.332078,-0.08474 l -0.144282,-0.01832 q -0.547356,-0.06871 -0.767215,-0.254211 -0.219859,-0.185506 -0.219859,-0.563388 0,-0.407654 0.279404,-0.604611 0.279404,-0.196957 0.856533,-0.196957 0.226729,0 0.47636,0.03435 0.249631,0.03435 0.542776,0.107639 z"
       style="font-style:normal;font-variant:normal;font-weight:bold;font-stretch:normal;font-size:4.69031715px;font-family:'Samyak Devanagari';-inkscape-font-specification:'Samyak Devanagari Bold';fill:#000000;fill-opacity:1;stroke-width:0.07328621"
       id="path921" />
    <path
       d="m 35.082874,18.425747 h 0.819889 v 2.565018 h -0.819889 z m 0,-0.998524 h 0.819889 v 0.668736 h -0.819889 z"
       style="font-style:normal;font-variant:normal;font-weight:bold;font-stretch:normal;font-size:4.69031715px;font-family:'Samyak Devanagari';-inkscape-font-specification:'Samyak Devanagari Bold';fill:#000000;fill-opacity:1;stroke-width:0.07328621"
       id="path923" />
    <path
       d="m 38.767796,18.505904 v 0.668737 q -0.167184,-0.11451 -0.336659,-0.169475 -0.167184,-0.05496 -0.348109,-0.05496 -0.343529,0 -0.535905,0.201537 -0.190086,0.199247 -0.190086,0.558807 0,0.359561 0.190086,0.561098 0.192376,0.199247 0.535905,0.199247 0.192376,0 0.364141,-0.05726 0.174055,-0.05726 0.320627,-0.169475 v 0.671027 q -0.192376,0.071 -0.391623,0.105349 -0.196957,0.03664 -0.396204,0.03664 -0.693928,0 -1.085552,-0.35498 -0.391623,-0.35727 -0.391623,-0.991654 0,-0.634384 0.391623,-0.989364 0.391624,-0.35727 1.085552,-0.35727 0.201537,0 0.396204,0.03664 0.196957,0.03435 0.391623,0.105349 z"
       style="font-style:normal;font-variant:normal;font-weight:bold;font-stretch:normal;font-size:4.69031715px;font-family:'Samyak Devanagari';-inkscape-font-specification:'Samyak Devanagari Bold';fill:#000000;fill-opacity:1;stroke-width:0.07328621"
       id="path925" />
    <path
       d="m 40.70072,18.950202 q -0.272533,0 -0.416816,0.196957 -0.141992,0.194666 -0.141992,0.563387 0,0.368721 0.141992,0.565678 0.144283,0.194667 0.416816,0.194667 0.267952,0 0.409944,-0.194667 0.141992,-0.196957 0.141992,-0.565678 0,-0.368721 -0.141992,-0.563387 -0.141992,-0.196957 -0.409944,-0.196957 z m 0,-0.58629 q 0.661866,0 1.032877,0.35727 0.373302,0.357271 0.373302,0.989364 0,0.632094 -0.373302,0.989364 -0.371011,0.35727 -1.032877,0.35727 -0.664157,0 -1.039748,-0.35727 -0.373302,-0.35727 -0.373302,-0.989364 0,-0.632093 0.373302,-0.989364 0.375591,-0.35727 1.039748,-0.35727 z"
       style="font-style:normal;font-variant:normal;font-weight:bold;font-stretch:normal;font-size:4.69031715px;font-family:'Samyak Devanagari';-inkscape-font-specification:'Samyak Devanagari Bold';fill:#000000;fill-opacity:1;stroke-width:0.07328621"
       id="path927" />
    <path
       d="m 42.70464,17.427223 h 0.819889 v 3.563542 H 42.70464 Z"
       style="font-style:normal;font-variant:normal;font-weight:bold;font-stretch:normal;font-size:4.69031715px;font-family:'Samyak Devanagari';-inkscape-font-specification:'Samyak Devanagari Bold';fill:#000000;fill-opacity:1;stroke-width:0.07328621"
       id="path929" />
    <path
       d="m 45.53761,18.950202 q -0.272533,0 -0.416815,0.196957 -0.141992,0.194666 -0.141992,0.563387 0,0.368721 0.141992,0.565678 0.144282,0.194667 0.416815,0.194667 0.267953,0 0.409945,-0.194667 0.141992,-0.196957 0.141992,-0.565678 0,-0.368721 -0.141992,-0.563387 -0.141992,-0.196957 -0.409945,-0.196957 z m 0,-0.58629 q 0.661866,0 1.032877,0.35727 0.373302,0.357271 0.373302,0.989364 0,0.632094 -0.373302,0.989364 -0.371011,0.35727 -1.032877,0.35727 -0.664156,0 -1.039748,-0.35727 -0.373302,-0.35727 -0.373302,-0.989364 0,-0.632093 0.373302,-0.989364 0.375592,-0.35727 1.039748,-0.35727 z m -0.258792,-1.124485 0.645835,0.861113 h -0.448878 l -0.845082,-0.861113 z"
       style="font-style:normal;font-variant:normal;font-weight:bold;font-stretch:normal;font-size:4.69031715px;font-family:'Samyak Devanagari';-inkscape-font-specification:'Samyak Devanagari Bold';fill:#000000;fill-opacity:1;stroke-width:0.07328621"
       id="path931" />
    <path
       d="m 49.286657,20.555628 q -0.169475,0.224439 -0.373302,0.329788 -0.203827,0.105349 -0.47178,0.105349 -0.46949,0 -0.776376,-0.368722 -0.306886,-0.371011 -0.306886,-0.943559 0,-0.574839 0.306886,-0.94127 0.306886,-0.368721 0.776376,-0.368721 0.267953,0 0.47178,0.105348 0.203827,0.105349 0.373302,0.332079 v -0.380173 h 0.824469 v 2.306226 q 0,0.618352 -0.391623,0.94356 -0.389333,0.327497 -1.131356,0.327497 -0.24047,0 -0.464909,-0.03664 -0.224439,-0.03664 -0.451168,-0.112219 v -0.638964 q 0.215278,0.12367 0.421396,0.183215 0.206117,0.06183 0.414525,0.06183 0.403074,0 0.59087,-0.176345 0.187796,-0.176344 0.187796,-0.551936 z m -0.540486,-1.596265 q -0.254212,0 -0.396204,0.187796 -0.141992,0.187795 -0.141992,0.531325 0,0.352689 0.137412,0.535905 0.137411,0.180925 0.400784,0.180925 0.256502,0 0.398494,-0.187796 0.141992,-0.187796 0.141992,-0.529034 0,-0.34353 -0.141992,-0.531325 -0.141992,-0.187796 -0.398494,-0.187796 z"
       style="font-style:normal;font-variant:normal;font-weight:bold;font-stretch:normal;font-size:4.69031715px;font-family:'Samyak Devanagari';-inkscape-font-specification:'Samyak Devanagari Bold';fill:#000000;fill-opacity:1;stroke-width:0.07328621"
       id="path933" />
    <path
       d="m 50.903534,18.425747 h 0.819889 v 2.565018 h -0.819889 z m 0,-0.998524 h 0.819889 v 0.668736 h -0.819889 z"
       style="font-style:normal;font-variant:normal;font-weight:bold;font-stretch:normal;font-size:4.69031715px;font-family:'Samyak Devanagari';-inkscape-font-specification:'Samyak Devanagari Bold';fill:#000000;fill-opacity:1;stroke-width:0.07328621"
       id="path935" />
    <path
       d="m 54.588457,18.505904 v 0.668737 q -0.167185,-0.11451 -0.336659,-0.169475 -0.167184,-0.05496 -0.348109,-0.05496 -0.343529,0 -0.535906,0.201537 -0.190086,0.199247 -0.190086,0.558807 0,0.359561 0.190086,0.561098 0.192377,0.199247 0.535906,0.199247 0.192376,0 0.36414,-0.05726 0.174055,-0.05726 0.320628,-0.169475 v 0.671027 q -0.192377,0.071 -0.391624,0.105349 -0.196956,0.03664 -0.396203,0.03664 -0.693929,0 -1.085552,-0.35498 -0.391623,-0.35727 -0.391623,-0.991654 0,-0.634384 0.391623,-0.989364 0.391623,-0.35727 1.085552,-0.35727 0.201537,0 0.396203,0.03664 0.196957,0.03435 0.391624,0.105349 z"
       style="font-style:normal;font-variant:normal;font-weight:bold;font-stretch:normal;font-size:4.69031715px;font-family:'Samyak Devanagari';-inkscape-font-specification:'Samyak Devanagari Bold';fill:#000000;fill-opacity:1;stroke-width:0.07328621"
       id="path937" />
  </g>
</svg>
